<svg width="200" height="200" viewBox="0 0 200 200" fill="none" xmlns="http://www.w3.org/2000/svg">
<g id="Group 553">
<g id="g12421">
<path id="rect12029" d="M82.1957 0H73.1289V9.0668H82.1957V0Z" fill="#052636"/>
<path id="rect12031" d="M73.1312 0H64.0645V9.0668H73.1312V0Z" fill="#052636"/>
<path id="rect12033" d="M64.059 0H54.9922V9.0668H64.059V0Z" fill="#052636"/>
<path id="rect12035" d="M54.9887 0H45.9219V9.0668H54.9887V0Z" fill="#052636"/>
<path id="rect12037" d="M45.9242 0H36.8574V9.0668H45.9242V0Z" fill="#052636"/>
<path id="rect12039" d="M36.8578 0H27.791V9.0668H36.8578V0Z" fill="#052636"/>
<path id="rect12041" d="M27.7934 0H18.7266V9.0668H27.7934V0Z" fill="#052636"/>
<path id="rect12043" d="M18.7211 0H9.6543V9.0668H18.7211V0Z" fill="#052636"/>
<path id="rect12045" d="M91.2601 9.07422H82.1934V18.141H91.2601V9.07422Z" fill="#052636"/>
<path id="rect12047-6" d="M82.1957 9.07422H73.1289V18.141H82.1957V9.07422Z" fill="#052636"/>
<path id="rect12049-3" d="M73.1312 9.07422H64.0645V18.141H73.1312V9.07422Z" fill="#052636"/>
<path id="rect12051-2" d="M64.059 9.07422H54.9922V18.141H64.059V9.07422Z" fill="#052636"/>
<path id="rect12053-6" d="M54.9887 9.07422H45.9219V18.141H54.9887V9.07422Z" fill="#052636"/>
<path id="rect12055-9" d="M45.9223 9.07422H36.8555V18.141H45.9223V9.07422Z" fill="#052636"/>
<path id="rect12057-6" d="M36.8578 9.07422H27.791V18.141H36.8578V9.07422Z" fill="#052636"/>
<path id="rect12059" d="M27.7934 9.07422H18.7266V18.141H27.7934V9.07422Z" fill="#052636"/>
<path id="rect12061" d="M18.7211 9.07422H9.6543V18.141H18.7211V9.07422Z" fill="#052636"/>
<path id="rect12063" d="M9.65664 9.07422H0.589844V18.141H9.65664V9.07422Z" fill="#052636"/>
<path id="rect12065-8" d="M91.2601 18.1328H82.1934V27.1996H91.2601V18.1328Z" fill="#052636"/>
<path id="rect12067-0" d="M82.1957 18.1328H73.1289V27.1996H82.1957V18.1328Z" fill="#052636"/>
<path id="rect12069-6" d="M64.059 18.1328H54.9922V27.1996H64.059V18.1328Z" fill="#052636"/>
<path id="rect12071-2" d="M54.9887 18.1328H45.9219V27.1996H54.9887V18.1328Z" fill="#052636"/>
<path id="rect12073-7" d="M45.9223 18.1328H36.8555V27.1996H45.9223V18.1328Z" fill="#052636"/>
<path id="rect12075-0" d="M36.8578 18.1328H27.791V27.1996H36.8578V18.1328Z" fill="#052636"/>
<path id="rect12077-5" d="M27.7934 18.1328H18.7266V27.1996H27.7934V18.1328Z" fill="#052636"/>
<path id="rect12079" d="M18.7211 18.1328H9.6543V27.1996H18.7211V18.1328Z" fill="#052636"/>
<path id="rect12081" d="M9.65664 18.1328H0.589844V27.1996H9.65664V18.1328Z" fill="#052636"/>
<path id="rect12083-9" d="M91.2601 27.1992H82.1934V36.266H91.2601V27.1992Z" fill="#052636"/>
<path id="rect12085-5" d="M82.1957 27.1992H73.1289V36.266H82.1957V27.1992Z" fill="#052636"/>
<path id="rect12087-7" d="M73.1312 27.1992H64.0645V36.266H73.1312V27.1992Z" fill="#052636"/>
<path id="rect12089-7" d="M64.059 27.1992H54.9922V36.266H64.059V27.1992Z" fill="#052636"/>
<path id="rect12091-8" d="M54.9887 27.1992H45.9219V36.266H54.9887V27.1992Z" fill="#052636"/>
<path id="rect12093-8" d="M45.9223 27.1992H36.8555V36.266H45.9223V27.1992Z" fill="#052636"/>
<path id="rect12095-9" d="M36.8578 27.1992H27.791V36.266H36.8578V27.1992Z" fill="#052636"/>
<path id="rect12097-3" d="M27.7934 27.1992H18.7266V36.266H27.7934V27.1992Z" fill="#052636"/>
<path id="rect12099" d="M18.7211 27.1992H9.6543V36.266H18.7211V27.1992Z" fill="#052636"/>
<path id="rect12101" d="M9.65664 27.1992H0.589844V36.266H9.65664V27.1992Z" fill="#052636"/>
<path id="rect12103-0" d="M91.2601 36.2734H82.1934V45.3402H91.2601V36.2734Z" fill="#052636"/>
<path id="rect12105-1" d="M82.1957 36.2734H73.1289V45.3402H82.1957V36.2734Z" fill="#052636"/>
<path id="rect12107-9" d="M73.1312 36.2734H64.0645V45.3402H73.1312V36.2734Z" fill="#052636"/>
<path id="rect12109-8" d="M64.059 36.2734H54.9922V45.3402H64.059V36.2734Z" fill="#052636"/>
<path id="rect12111-7" d="M54.9887 36.2734H45.9219V45.3402H54.9887V36.2734Z" fill="#052636"/>
<path id="rect12113-5" d="M45.9223 36.2734H36.8555V45.3402H45.9223V36.2734Z" fill="#052636"/>
<path id="rect12115-0" d="M36.8578 36.2734H27.791V45.3402H36.8578V36.2734Z" fill="#052636"/>
<path id="rect12117-2" d="M27.7934 36.2734H18.7266V45.3402H27.7934V36.2734Z" fill="#052636"/>
<path id="rect12119" d="M18.7211 36.2734H9.6543V45.3402H18.7211V36.2734Z" fill="#052636"/>
<path id="rect12121" d="M9.65664 36.2734H0.589844V45.3402H9.65664V36.2734Z" fill="#052636"/>
<path id="rect12123-7" d="M91.2601 45.332H82.1934V54.3988H91.2601V45.332Z" fill="#052636"/>
<path id="rect12125-7" d="M82.1957 45.332H73.1289V54.3988H82.1957V45.332Z" fill="#052636"/>
<path id="rect12127-3" d="M73.1312 45.332H64.0645V54.3988H73.1312V45.332Z" fill="#052636"/>
<path id="rect12129-4" d="M64.059 45.332H54.9922V54.3988H64.059V45.332Z" fill="#052636"/>
<path id="rect12131-7" d="M54.9887 45.332H45.9219V54.3988H54.9887V45.332Z" fill="#052636"/>
<path id="rect12133-5" d="M91.2601 54.4062H82.1934V63.4731H91.2601V54.4062Z" fill="#052636"/>
<path id="rect12135-3" d="M82.1957 54.4062H73.1289V63.4731H82.1957V54.4062Z" fill="#052636"/>
<path id="rect12137-1" d="M73.1312 54.4062H64.0645V63.4731H73.1312V54.4062Z" fill="#052636"/>
<path id="rect12139-8" d="M64.059 54.4062H54.9922V63.4731H64.059V54.4062Z" fill="#052636"/>
<path id="rect12141-4" d="M54.9887 54.4062H45.9219V63.4731H54.9887V54.4062Z" fill="#052636"/>
<path id="rect12143-3" d="M45.9223 54.4062H36.8555V63.4731H45.9223V54.4062Z" fill="#052636"/>
<path id="rect12145-7" d="M36.8578 54.4062H27.791V63.4731H36.8578V54.4062Z" fill="#052636"/>
<path id="rect12147" d="M27.7934 54.4062H18.7266V63.4731H27.7934V54.4062Z" fill="#052636"/>
<path id="rect12149" d="M18.7211 54.4062H9.6543V63.4731H18.7211V54.4062Z" fill="#052636"/>
<path id="rect12151" d="M100.325 63.4727H91.2578V72.5395H100.325V63.4727Z" fill="#052636"/>
<path id="rect12153" d="M91.2601 63.4727H82.1934V72.5395H91.2601V63.4727Z" fill="#052636"/>
<path id="rect12155" d="M82.1957 63.4727H73.1289V72.5395H82.1957V63.4727Z" fill="#052636"/>
<path id="rect12157" d="M73.1312 63.4727H64.0645V72.5395H73.1312V63.4727Z" fill="#052636"/>
<path id="rect12159" d="M64.059 63.4727H54.9922V72.5395H64.059V63.4727Z" fill="#052636"/>
<path id="rect12161" d="M191 72.5352H181.934V81.602H191V72.5352Z" fill="#052636"/>
<path id="rect12163" d="M118.463 72.5352H109.396V81.602H118.463V72.5352Z" fill="#052636"/>
<path id="rect12165" d="M109.399 72.5352H100.332V81.602H109.399V72.5352Z" fill="#052636"/>
<path id="rect12167" d="M100.325 72.5352H91.2578V81.602H100.325V72.5352Z" fill="#052636"/>
<path id="rect12169" d="M91.2601 72.5352H82.1934V81.602H91.2601V72.5352Z" fill="#052636"/>
<path id="rect12171" d="M82.1957 72.5352H73.1289V81.602H82.1957V72.5352Z" fill="#052636"/>
<path id="rect12173" d="M73.1312 72.5352H64.0645V81.602H73.1312V72.5352Z" fill="#052636"/>
<path id="rect12175" d="M64.059 72.5352H54.9922V81.602H64.059V72.5352Z" fill="#052636"/>
<path id="rect12177" d="M191 81.6055H181.934V90.6723H191V81.6055Z" fill="#052636"/>
<path id="rect12179" d="M136.592 81.6055H127.525V90.6723H136.592V81.6055Z" fill="#052636"/>
<path id="rect12181" d="M127.528 81.6055H118.461V90.6723H127.528V81.6055Z" fill="#052636"/>
<path id="rect12183" d="M118.463 81.6055H109.396V90.6723H118.463V81.6055Z" fill="#052636"/>
<path id="rect12185" d="M109.399 81.6055H100.332V90.6723H109.399V81.6055Z" fill="#052636"/>
<path id="rect12187" d="M100.325 81.6055H91.2578V90.6723H100.325V81.6055Z" fill="#052636"/>
<path id="rect12189" d="M91.2601 81.6055H82.1934V90.6723H91.2601V81.6055Z" fill="#052636"/>
<path id="rect12191" d="M82.1957 81.6055H73.1289V90.6723H82.1957V81.6055Z" fill="#052636"/>
<path id="rect12193" d="M73.1312 81.6055H64.0645V90.6723H73.1312V81.6055Z" fill="#052636"/>
<path id="rect12195" d="M64.059 81.6055H54.9922V90.6723H64.059V81.6055Z" fill="#052636"/>
<path id="rect12197" d="M54.9887 81.6055H45.9219V90.6723H54.9887V81.6055Z" fill="#052636"/>
<path id="rect12199" d="M45.9223 81.6055H36.8555V90.6723H45.9223V81.6055Z" fill="#052636"/>
<path id="rect12201" d="M191 90.6758H181.934V99.7426H191V90.6758Z" fill="#052636"/>
<path id="rect12203" d="M181.93 90.6758H172.863V99.7426H181.93V90.6758Z" fill="#052636"/>
<path id="rect12205" d="M145.664 90.6758H136.598V99.7426H145.664V90.6758Z" fill="#052636"/>
<path id="rect12207" d="M136.592 90.6758H127.525V99.7426H136.592V90.6758Z" fill="#052636"/>
<path id="rect12209" d="M127.528 90.6758H118.461V99.7426H127.528V90.6758Z" fill="#052636"/>
<path id="rect12211" d="M118.463 90.6758H109.396V99.7426H118.463V90.6758Z" fill="#052636"/>
<path id="rect12213" d="M109.399 90.6758H100.332V99.7426H109.399V90.6758Z" fill="#052636"/>
<path id="rect12215-0" d="M100.325 90.6758H91.2578V99.7426H100.325V90.6758Z" fill="#052636"/>
<path id="rect12217-7" d="M91.2601 90.6758H82.1934V99.7426H91.2601V90.6758Z" fill="#052636"/>
<path id="rect12219-6" d="M82.1957 90.6758H73.1289V99.7426H82.1957V90.6758Z" fill="#052636"/>
<path id="rect12221-8" d="M73.1312 90.6758H64.0645V99.7426H73.1312V90.6758Z" fill="#052636"/>
<path id="rect12223-7" d="M64.059 90.6758H54.9922V99.7426H64.059V90.6758Z" fill="#052636"/>
<path id="rect12225" d="M45.9223 90.6758H36.8555V99.7426H45.9223V90.6758Z" fill="#052636"/>
<path id="rect12227" d="M191 99.7383H181.934V108.805H191V99.7383Z" fill="#052636"/>
<path id="rect12229-4" d="M181.93 99.7384H172.863V108.805H181.93V99.7384Z" fill="#052636"/>
<path id="rect12231-6" d="M172.864 99.7383H163.797V108.805H172.864V99.7383Z" fill="#052636"/>
<path id="rect12233-4" d="M163.801 99.7383H154.734V108.805H163.801V99.7383Z" fill="#052636"/>
<path id="rect12235" d="M154.735 99.7383H145.668V108.805H154.735V99.7383Z" fill="#052636"/>
<path id="rect12237" d="M145.662 99.7383H136.596V108.805H145.662V99.7383Z" fill="#052636"/>
<path id="rect12239" d="M136.592 99.7383H127.525V108.805H136.592V99.7383Z" fill="#052636"/>
<path id="rect12241" d="M127.528 99.7384H118.461V108.805H127.528V99.7384Z" fill="#052636"/>
<path id="rect12243-5" d="M118.463 99.7384H109.396V108.805H118.463V99.7384Z" fill="#052636"/>
<path id="rect12245-9" d="M109.399 99.7383H100.332V108.805H109.399V99.7383Z" fill="#052636"/>
<path id="rect12247-3" d="M100.325 99.7383H91.2578V108.805H100.325V99.7383Z" fill="#052636"/>
<path id="rect12249-2" d="M91.2601 99.7383H82.1934V108.805H91.2601V99.7383Z" fill="#052636"/>
<path id="rect12251-7" d="M82.1957 99.7384H73.1289V108.805H82.1957V99.7384Z" fill="#052636"/>
<path id="rect12253-1" d="M73.1312 99.7383H64.0645V108.805H73.1312V99.7383Z" fill="#052636"/>
<path id="rect12255-6" d="M64.059 99.7383H54.9922V108.805H64.059V99.7383Z" fill="#052636"/>
<path id="rect12257" d="M191 108.801H181.934V117.868H191V108.801Z" fill="#052636"/>
<path id="rect12259-5" d="M181.93 108.801H172.863V117.867H181.93V108.801Z" fill="#052636"/>
<path id="rect12261-7" d="M172.864 108.801H163.797V117.868H172.864V108.801Z" fill="#052636"/>
<path id="rect12263-1" d="M163.801 108.801H154.734V117.868H163.801V108.801Z" fill="#052636"/>
<path id="rect12265-9" d="M154.735 108.801H145.668V117.868H154.735V108.801Z" fill="#052636"/>
<path id="rect12267-0" d="M145.662 108.801H136.596V117.868H145.662V108.801Z" fill="#052636"/>
<path id="rect12269-7" d="M136.592 108.801H127.525V117.868H136.592V108.801Z" fill="#052636"/>
<path id="rect12271-7" d="M127.528 108.801H118.461V117.867H127.528V108.801Z" fill="#052636"/>
<path id="rect12273-2" d="M118.463 108.801H109.396V117.867H118.463V108.801Z" fill="#052636"/>
<path id="rect12275-8" d="M109.399 108.801H100.332V117.868H109.399V108.801Z" fill="#052636"/>
<path id="rect12277-4" d="M100.325 108.801H91.2578V117.868H100.325V108.801Z" fill="#052636"/>
<path id="rect12279-8" d="M91.2601 108.801H82.1934V117.868H91.2601V108.801Z" fill="#052636"/>
<path id="rect12281-6" d="M82.1957 108.801H73.1289V117.867H82.1957V108.801Z" fill="#052636"/>
<path id="rect12283-8" d="M73.1312 108.801H64.0645V117.868H73.1312V108.801Z" fill="#052636"/>
<path id="rect12285" d="M64.059 108.801H54.9922V117.868H64.059V108.801Z" fill="#052636"/>
<path id="rect12287" d="M191 117.875H181.934V126.942H191V117.875Z" fill="#052636"/>
<path id="rect12289-1" d="M181.93 117.875H172.863V126.942H181.93V117.875Z" fill="#052636"/>
<path id="rect12291-7" d="M172.864 117.875H163.797V126.942H172.864V117.875Z" fill="#052636"/>
<path id="rect12293-1" d="M163.801 117.875H154.734V126.942H163.801V117.875Z" fill="#052636"/>
<path id="rect12295-9" d="M154.735 117.875H145.668V126.942H154.735V117.875Z" fill="#052636"/>
<path id="rect12297-5" d="M145.664 117.875H136.598V126.942H145.664V117.875Z" fill="#052636"/>
<path id="rect12299-7" d="M136.592 117.875H127.525V126.942H136.592V117.875Z" fill="#052636"/>
<path id="rect12301-1" d="M127.528 117.875H118.461V126.942H127.528V117.875Z" fill="#052636"/>
<path id="rect12303-5" d="M118.463 117.875H109.396V126.942H118.463V117.875Z" fill="#052636"/>
<path id="rect12305-8" d="M109.399 117.875H100.332V126.942H109.399V117.875Z" fill="#052636"/>
<path id="rect12307-4" d="M100.325 117.875H91.2578V126.942H100.325V117.875Z" fill="#052636"/>
<path id="rect12309-2" d="M91.2601 117.875H82.1934V126.942H91.2601V117.875Z" fill="#052636"/>
<path id="rect12311-1" d="M82.1957 117.875H73.1289V126.942H82.1957V117.875Z" fill="#052636"/>
<path id="rect12313-8" d="M73.1312 117.875H64.0645V126.942H73.1312V117.875Z" fill="#052636"/>
<path id="rect12315" d="M181.93 126.934H172.863V136H181.93V126.934Z" fill="#052636"/>
<path id="rect12317-5" d="M172.864 126.934H163.797V136H172.864V126.934Z" fill="#052636"/>
<path id="rect12319-9" d="M163.801 126.934H154.734V136H163.801V126.934Z" fill="#052636"/>
<path id="rect12321-9" d="M154.735 126.934H145.668V136H154.735V126.934Z" fill="#052636"/>
<path id="rect12323-4" d="M145.664 126.934H136.598V136H145.664V126.934Z" fill="#052636"/>
<path id="rect12325-5" d="M136.592 126.934H127.525V136H136.592V126.934Z" fill="#052636"/>
<path id="rect12327-8" d="M127.528 126.934H118.461V136H127.528V126.934Z" fill="#052636"/>
<path id="rect12329-4" d="M118.463 126.934H109.396V136H118.463V126.934Z" fill="#052636"/>
<path id="rect12331-2" d="M109.399 126.934H100.332V136H109.399V126.934Z" fill="#052636"/>
<path id="rect12333-2" d="M100.325 126.934H91.2578V136H100.325V126.934Z" fill="#052636"/>
<path id="rect12335-7" d="M91.2601 126.934H82.1934V136H91.2601V126.934Z" fill="#052636"/>
<path id="rect12337-1" d="M82.1957 126.934H73.1289V136H82.1957V126.934Z" fill="#052636"/>
<path id="rect12339" d="M73.1312 126.934H64.0645V136H73.1312V126.934Z" fill="#052636"/>
<path id="rect12341-8" d="M172.864 136.008H163.797V145.075H172.864V136.008Z" fill="#052636"/>
<path id="rect12343-1" d="M163.801 136.008H154.734V145.075H163.801V136.008Z" fill="#052636"/>
<path id="rect12345-8" d="M154.735 136.008H145.668V145.075H154.735V136.008Z" fill="#052636"/>
<path id="rect12347-6" d="M145.664 136.008H136.598V145.075H145.664V136.008Z" fill="#052636"/>
<path id="rect12349-2" d="M136.592 136.008H127.525V145.075H136.592V136.008Z" fill="#052636"/>
<path id="rect12351-2" d="M127.528 136.008H118.461V145.075H127.528V136.008Z" fill="#052636"/>
<path id="rect12353-7" d="M118.463 136.008H109.396V145.075H118.463V136.008Z" fill="#052636"/>
<path id="rect12355-0" d="M109.399 136.008H100.332V145.075H109.399V136.008Z" fill="#052636"/>
<path id="rect12357-8" d="M100.325 136.008H91.2578V145.075H100.325V136.008Z" fill="#052636"/>
<path id="rect12359-3" d="M91.2601 136.008H82.1934V145.075H91.2601V136.008Z" fill="#052636"/>
<path id="rect12361" d="M82.1957 136.008H73.1289V145.075H82.1957V136.008Z" fill="#052636"/>
<path id="rect12363-1" d="M163.801 145.062H154.734V154.129H163.801V145.062Z" fill="#052636"/>
<path id="rect12365-6" d="M154.735 145.062H145.668V154.129H154.735V145.062Z" fill="#052636"/>
<path id="rect12367-8" d="M145.664 145.062H136.598V154.129H145.664V145.062Z" fill="#052636"/>
<path id="rect12369-4" d="M136.592 145.062H127.525V154.129H136.592V145.062Z" fill="#052636"/>
<path id="rect12371-3" d="M127.528 145.062H118.461V154.129H127.528V145.062Z" fill="#052636"/>
<path id="rect12373-6" d="M118.463 145.062H109.396V154.129H118.463V145.062Z" fill="#052636"/>
<path id="rect12375-4" d="M109.399 145.062H100.332V154.129H109.399V145.062Z" fill="#052636"/>
<path id="rect12377-9" d="M100.325 145.062H91.2578V154.129H100.325V145.062Z" fill="#052636"/>
<path id="rect12379" d="M91.2601 145.062H82.1934V154.129H91.2601V145.062Z" fill="#052636"/>
<path id="rect12381-1" d="M145.664 154.133H136.598V163.2H145.664V154.133Z" fill="#052636"/>
<path id="rect12383-2" d="M136.592 154.133H127.525V163.2H136.592V154.133Z" fill="#052636"/>
<path id="rect12385-3" d="M127.528 154.133H118.461V163.2H127.528V154.133Z" fill="#052636"/>
<path id="rect12387-7" d="M118.463 154.133H109.396V163.2H118.463V154.133Z" fill="#052636"/>
<path id="rect12389-1" d="M109.399 154.133H100.332V163.2H109.399V154.133Z" fill="#052636"/>
<path id="rect12391-0" d="M100.325 154.133H91.2578V163.2H100.325V154.133Z" fill="#052636"/>
<path id="rect12393" d="M145.662 163.211H136.596V172.278H145.662V163.211Z" fill="#052636"/>
<path id="rect12395-1" d="M136.592 163.211H127.525V172.278H136.592V163.211Z" fill="#052636"/>
<path id="rect12397-6" d="M127.528 163.211H118.461V172.278H127.528V163.211Z" fill="#052636"/>
<path id="rect12399" d="M109.399 163.211H100.332V172.278H109.399V163.211Z" fill="#052636"/>
<path id="rect12401-8" d="M100.325 163.211H91.2578V172.278H100.325V163.211Z" fill="#052636"/>
<path id="rect12403-1" d="M145.664 172.285H136.598V181.352H145.664V172.285Z" fill="#052636"/>
<path id="rect12405" d="M136.592 172.285H127.525V181.352H136.592V172.285Z" fill="#052636"/>
<path id="rect12407-6" d="M100.325 172.285H91.2578V181.352H100.325V172.285Z" fill="#052636"/>
<path id="rect12409-4" d="M145.664 181.336H136.598V190.403H145.664V181.336Z" fill="#052636"/>
<path id="rect12411-8" d="M100.325 181.336H91.2578V190.403H100.325V181.336Z" fill="#052636"/>
<path id="rect12413-3" d="M145.664 190.41H136.598V199.477H145.664V190.41Z" fill="#052636"/>
<path id="rect12415-1" d="M136.592 190.41H127.525V199.477H136.592V190.41Z" fill="#052636"/>
<path id="rect12417-6" d="M100.325 190.41H91.2578V199.477H100.325V190.41Z" fill="#052636"/>
<path id="rect12419-9" d="M91.2601 190.41H82.1934V199.477H91.2601V190.41Z" fill="#052636"/>
</g>
<g id="g12421_2">
<path id="rect12029_2" d="M91.1957 0H82.1289V9.0668H91.1957V0Z" fill="#E13040"/>
<path id="rect12031_2" d="M82.1312 0H73.0645V9.0668H82.1312V0Z" fill="#E13040"/>
<path id="rect12033_2" d="M73.059 0H63.9922V9.0668H73.059V0Z" fill="#E13040"/>
<path id="rect12035_2" d="M63.9887 0H54.9219V9.0668H63.9887V0Z" fill="#E13040"/>
<path id="rect12037_2" d="M54.9242 0H45.8574V9.0668H54.9242V0Z" fill="#E13040"/>
<path id="rect12039_2" d="M45.8578 0H36.791V9.0668H45.8578V0Z" fill="#E13040"/>
<path id="rect12041_2" d="M36.7934 0H27.7266V9.0668H36.7934V0Z" fill="#E13040"/>
<path id="rect12043_2" d="M27.7211 0H18.6543V9.0668H27.7211V0Z" fill="#E13040"/>
<path id="rect12045_2" d="M100.26 9.07422H91.1934V18.141H100.26V9.07422Z" fill="#E13040"/>
<path id="rect12047-6_2" d="M91.1957 9.07422H82.1289V18.141H91.1957V9.07422Z" fill="#E13040"/>
<path id="rect12049-3_2" d="M82.1312 9.07422H73.0645V18.141H82.1312V9.07422Z" fill="#E13040"/>
<path id="rect12051-2_2" d="M73.059 9.07422H63.9922V18.141H73.059V9.07422Z" fill="#E13040"/>
<path id="rect12053-6_2" d="M63.9887 9.07422H54.9219V18.141H63.9887V9.07422Z" fill="#E13040"/>
<path id="rect12055-9_2" d="M54.9223 9.07422H45.8555V18.141H54.9223V9.07422Z" fill="#E13040"/>
<path id="rect12057-6_2" d="M45.8578 9.07422H36.791V18.141H45.8578V9.07422Z" fill="#E13040"/>
<path id="rect12059_2" d="M36.7934 9.07422H27.7266V18.141H36.7934V9.07422Z" fill="#E13040"/>
<path id="rect12061_2" d="M27.7211 9.07422H18.6543V18.141H27.7211V9.07422Z" fill="#E13040"/>
<path id="rect12063_2" d="M18.6566 9.07422H9.58984V18.141H18.6566V9.07422Z" fill="#E13040"/>
<path id="rect12065-8_2" d="M100.26 18.1328H91.1934V27.1996H100.26V18.1328Z" fill="#E13040"/>
<path id="rect12067-0_2" d="M91.1957 18.1328H82.1289V27.1996H91.1957V18.1328Z" fill="#E13040"/>
<path id="rect12069-6_2" d="M73.059 18.1328H63.9922V27.1996H73.059V18.1328Z" fill="#E13040"/>
<path id="rect12071-2_2" d="M63.9887 18.1328H54.9219V27.1996H63.9887V18.1328Z" fill="#E13040"/>
<path id="rect12073-7_2" d="M54.9223 18.1328H45.8555V27.1996H54.9223V18.1328Z" fill="#E13040"/>
<path id="rect12075-0_2" d="M45.8578 18.1328H36.791V27.1996H45.8578V18.1328Z" fill="#E13040"/>
<path id="rect12077-5_2" d="M36.7934 18.1328H27.7266V27.1996H36.7934V18.1328Z" fill="#E13040"/>
<path id="rect12079_2" d="M27.7211 18.1328H18.6543V27.1996H27.7211V18.1328Z" fill="#E13040"/>
<path id="rect12081_2" d="M18.6566 18.1328H9.58984V27.1996H18.6566V18.1328Z" fill="#E13040"/>
<path id="rect12083-9_2" d="M100.26 27.1992H91.1934V36.266H100.26V27.1992Z" fill="#E13040"/>
<path id="rect12085-5_2" d="M91.1957 27.1992H82.1289V36.266H91.1957V27.1992Z" fill="#E13040"/>
<path id="rect12087-7_2" d="M82.1312 27.1992H73.0645V36.266H82.1312V27.1992Z" fill="#E13040"/>
<path id="rect12089-7_2" d="M73.059 27.1992H63.9922V36.266H73.059V27.1992Z" fill="#E13040"/>
<path id="rect12091-8_2" d="M63.9887 27.1992H54.9219V36.266H63.9887V27.1992Z" fill="#E13040"/>
<path id="rect12093-8_2" d="M54.9223 27.1992H45.8555V36.266H54.9223V27.1992Z" fill="#E13040"/>
<path id="rect12095-9_2" d="M45.8578 27.1992H36.791V36.266H45.8578V27.1992Z" fill="#E13040"/>
<path id="rect12097-3_2" d="M36.7934 27.1992H27.7266V36.266H36.7934V27.1992Z" fill="#E13040"/>
<path id="rect12099_2" d="M27.7211 27.1992H18.6543V36.266H27.7211V27.1992Z" fill="#E13040"/>
<path id="rect12101_2" d="M18.6566 27.1992H9.58984V36.266H18.6566V27.1992Z" fill="#E13040"/>
<path id="rect12103-0_2" d="M100.26 36.2734H91.1934V45.3402H100.26V36.2734Z" fill="#E13040"/>
<path id="rect12105-1_2" d="M91.1957 36.2734H82.1289V45.3402H91.1957V36.2734Z" fill="#E13040"/>
<path id="rect12107-9_2" d="M82.1312 36.2734H73.0645V45.3402H82.1312V36.2734Z" fill="#E13040"/>
<path id="rect12109-8_2" d="M73.059 36.2734H63.9922V45.3402H73.059V36.2734Z" fill="#E13040"/>
<path id="rect12111-7_2" d="M63.9887 36.2734H54.9219V45.3402H63.9887V36.2734Z" fill="#E13040"/>
<path id="rect12113-5_2" d="M54.9223 36.2734H45.8555V45.3402H54.9223V36.2734Z" fill="#E13040"/>
<path id="rect12115-0_2" d="M45.8578 36.2734H36.791V45.3402H45.8578V36.2734Z" fill="#E13040"/>
<path id="rect12117-2_2" d="M36.7934 36.2734H27.7266V45.3402H36.7934V36.2734Z" fill="#E13040"/>
<path id="rect12119_2" d="M27.7211 36.2734H18.6543V45.3402H27.7211V36.2734Z" fill="#E13040"/>
<path id="rect12121_2" d="M18.6566 36.2734H9.58984V45.3402H18.6566V36.2734Z" fill="#E13040"/>
<path id="rect12123-7_2" d="M100.26 45.332H91.1934V54.3988H100.26V45.332Z" fill="#E13040"/>
<path id="rect12125-7_2" d="M91.1957 45.332H82.1289V54.3988H91.1957V45.332Z" fill="#E13040"/>
<path id="rect12127-3_2" d="M82.1312 45.332H73.0645V54.3988H82.1312V45.332Z" fill="#E13040"/>
<path id="rect12129-4_2" d="M73.059 45.332H63.9922V54.3988H73.059V45.332Z" fill="#E13040"/>
<path id="rect12131-7_2" d="M63.9887 45.332H54.9219V54.3988H63.9887V45.332Z" fill="#E13040"/>
<path id="rect12133-5_2" d="M100.26 54.4062H91.1934V63.4731H100.26V54.4062Z" fill="#E13040"/>
<path id="rect12135-3_2" d="M91.1957 54.4062H82.1289V63.4731H91.1957V54.4062Z" fill="#E13040"/>
<path id="rect12137-1_2" d="M82.1312 54.4062H73.0645V63.4731H82.1312V54.4062Z" fill="#E13040"/>
<path id="rect12139-8_2" d="M73.059 54.4062H63.9922V63.4731H73.059V54.4062Z" fill="#E13040"/>
<path id="rect12141-4_2" d="M63.9887 54.4062H54.9219V63.4731H63.9887V54.4062Z" fill="#E13040"/>
<path id="rect12143-3_2" d="M54.9223 54.4062H45.8555V63.4731H54.9223V54.4062Z" fill="#E13040"/>
<path id="rect12145-7_2" d="M45.8578 54.4062H36.791V63.4731H45.8578V54.4062Z" fill="#E13040"/>
<path id="rect12147_2" d="M36.7934 54.4062H27.7266V63.4731H36.7934V54.4062Z" fill="#E13040"/>
<path id="rect12149_2" d="M27.7211 54.4062H18.6543V63.4731H27.7211V54.4062Z" fill="#E13040"/>
<path id="rect12151_2" d="M109.325 63.4727H100.258V72.5395H109.325V63.4727Z" fill="#E13040"/>
<path id="rect12153_2" d="M100.26 63.4727H91.1934V72.5395H100.26V63.4727Z" fill="#E13040"/>
<path id="rect12155_2" d="M91.1957 63.4727H82.1289V72.5395H91.1957V63.4727Z" fill="#E13040"/>
<path id="rect12157_2" d="M82.1312 63.4727H73.0645V72.5395H82.1312V63.4727Z" fill="#E13040"/>
<path id="rect12159_2" d="M73.059 63.4727H63.9922V72.5395H73.059V63.4727Z" fill="#E13040"/>
<path id="rect12161_2" d="M200 72.5352H190.934V81.602H200V72.5352Z" fill="#E13040"/>
<path id="rect12163_2" d="M127.463 72.5352H118.396V81.602H127.463V72.5352Z" fill="#E13040"/>
<path id="rect12165_2" d="M118.399 72.5352H109.332V81.602H118.399V72.5352Z" fill="#E13040"/>
<path id="rect12167_2" d="M109.325 72.5352H100.258V81.602H109.325V72.5352Z" fill="#E13040"/>
<path id="rect12169_2" d="M100.26 72.5352H91.1934V81.602H100.26V72.5352Z" fill="#E13040"/>
<path id="rect12171_2" d="M91.1957 72.5352H82.1289V81.602H91.1957V72.5352Z" fill="#E13040"/>
<path id="rect12173_2" d="M82.1312 72.5352H73.0645V81.602H82.1312V72.5352Z" fill="#E13040"/>
<path id="rect12175_2" d="M73.059 72.5352H63.9922V81.602H73.059V72.5352Z" fill="#E13040"/>
<path id="rect12177_2" d="M200 81.6055H190.934V90.6723H200V81.6055Z" fill="#E13040"/>
<path id="rect12179_2" d="M145.592 81.6055H136.525V90.6723H145.592V81.6055Z" fill="#E13040"/>
<path id="rect12181_2" d="M136.528 81.6055H127.461V90.6723H136.528V81.6055Z" fill="#E13040"/>
<path id="rect12183_2" d="M127.463 81.6055H118.396V90.6723H127.463V81.6055Z" fill="#E13040"/>
<path id="rect12185_2" d="M118.399 81.6055H109.332V90.6723H118.399V81.6055Z" fill="#E13040"/>
<path id="rect12187_2" d="M109.325 81.6055H100.258V90.6723H109.325V81.6055Z" fill="#E13040"/>
<path id="rect12189_2" d="M100.26 81.6055H91.1934V90.6723H100.26V81.6055Z" fill="#E13040"/>
<path id="rect12191_2" d="M91.1957 81.6055H82.1289V90.6723H91.1957V81.6055Z" fill="#E13040"/>
<path id="rect12193_2" d="M82.1312 81.6055H73.0645V90.6723H82.1312V81.6055Z" fill="#E13040"/>
<path id="rect12195_2" d="M73.059 81.6055H63.9922V90.6723H73.059V81.6055Z" fill="#E13040"/>
<path id="rect12197_2" d="M63.9887 81.6055H54.9219V90.6723H63.9887V81.6055Z" fill="#E13040"/>
<path id="rect12199_2" d="M54.9223 81.6055H45.8555V90.6723H54.9223V81.6055Z" fill="#E13040"/>
<path id="rect12201_2" d="M200 90.6758H190.934V99.7426H200V90.6758Z" fill="#E13040"/>
<path id="rect12203_2" d="M190.93 90.6758H181.863V99.7426H190.93V90.6758Z" fill="#E13040"/>
<path id="rect12205_2" d="M154.664 90.6758H145.598V99.7426H154.664V90.6758Z" fill="#E13040"/>
<path id="rect12207_2" d="M145.592 90.6758H136.525V99.7426H145.592V90.6758Z" fill="#E13040"/>
<path id="rect12209_2" d="M136.528 90.6758H127.461V99.7426H136.528V90.6758Z" fill="#E13040"/>
<path id="rect12211_2" d="M127.463 90.6758H118.396V99.7426H127.463V90.6758Z" fill="#E13040"/>
<path id="rect12213_2" d="M118.399 90.6758H109.332V99.7426H118.399V90.6758Z" fill="#E13040"/>
<path id="rect12215-0_2" d="M109.325 90.6758H100.258V99.7426H109.325V90.6758Z" fill="#E13040"/>
<path id="rect12217-7_2" d="M100.26 90.6758H91.1934V99.7426H100.26V90.6758Z" fill="#E13040"/>
<path id="rect12219-6_2" d="M91.1957 90.6758H82.1289V99.7426H91.1957V90.6758Z" fill="#E13040"/>
<path id="rect12221-8_2" d="M82.1312 90.6758H73.0645V99.7426H82.1312V90.6758Z" fill="#E13040"/>
<path id="rect12223-7_2" d="M73.059 90.6758H63.9922V99.7426H73.059V90.6758Z" fill="#E13040"/>
<path id="rect12225_2" d="M54.9223 90.6758H45.8555V99.7426H54.9223V90.6758Z" fill="#E13040"/>
<path id="rect12227_2" d="M200 99.7383H190.934V108.805H200V99.7383Z" fill="#E13040"/>
<path id="rect12229-4_2" d="M190.93 99.7384H181.863V108.805H190.93V99.7384Z" fill="#E13040"/>
<path id="rect12231-6_2" d="M181.864 99.7383H172.797V108.805H181.864V99.7383Z" fill="#E13040"/>
<path id="rect12233-4_2" d="M172.801 99.7383H163.734V108.805H172.801V99.7383Z" fill="#E13040"/>
<path id="rect12235_2" d="M163.735 99.7383H154.668V108.805H163.735V99.7383Z" fill="#E13040"/>
<path id="rect12237_2" d="M154.662 99.7383H145.596V108.805H154.662V99.7383Z" fill="#E13040"/>
<path id="rect12239_2" d="M145.592 99.7383H136.525V108.805H145.592V99.7383Z" fill="#E13040"/>
<path id="rect12241_2" d="M136.528 99.7384H127.461V108.805H136.528V99.7384Z" fill="#E13040"/>
<path id="rect12243-5_2" d="M127.463 99.7384H118.396V108.805H127.463V99.7384Z" fill="#E13040"/>
<path id="rect12245-9_2" d="M118.399 99.7383H109.332V108.805H118.399V99.7383Z" fill="#E13040"/>
<path id="rect12247-3_2" d="M109.325 99.7383H100.258V108.805H109.325V99.7383Z" fill="#E13040"/>
<path id="rect12249-2_2" d="M100.26 99.7383H91.1934V108.805H100.26V99.7383Z" fill="#E13040"/>
<path id="rect12251-7_2" d="M91.1957 99.7384H82.1289V108.805H91.1957V99.7384Z" fill="#E13040"/>
<path id="rect12253-1_2" d="M82.1312 99.7383H73.0645V108.805H82.1312V99.7383Z" fill="#E13040"/>
<path id="rect12255-6_2" d="M73.059 99.7383H63.9922V108.805H73.059V99.7383Z" fill="#E13040"/>
<path id="rect12257_2" d="M200 108.801H190.934V117.868H200V108.801Z" fill="#E13040"/>
<path id="rect12259-5_2" d="M190.93 108.801H181.863V117.867H190.93V108.801Z" fill="#E13040"/>
<path id="rect12261-7_2" d="M181.864 108.801H172.797V117.868H181.864V108.801Z" fill="#E13040"/>
<path id="rect12263-1_2" d="M172.801 108.801H163.734V117.868H172.801V108.801Z" fill="#E13040"/>
<path id="rect12265-9_2" d="M163.735 108.801H154.668V117.868H163.735V108.801Z" fill="#E13040"/>
<path id="rect12267-0_2" d="M154.662 108.801H145.596V117.868H154.662V108.801Z" fill="#E13040"/>
<path id="rect12269-7_2" d="M145.592 108.801H136.525V117.868H145.592V108.801Z" fill="#E13040"/>
<path id="rect12271-7_2" d="M136.528 108.801H127.461V117.867H136.528V108.801Z" fill="#E13040"/>
<path id="rect12273-2_2" d="M127.463 108.801H118.396V117.867H127.463V108.801Z" fill="#E13040"/>
<path id="rect12275-8_2" d="M118.399 108.801H109.332V117.868H118.399V108.801Z" fill="#E13040"/>
<path id="rect12277-4_2" d="M109.325 108.801H100.258V117.868H109.325V108.801Z" fill="#E13040"/>
<path id="rect12279-8_2" d="M100.26 108.801H91.1934V117.868H100.26V108.801Z" fill="#E13040"/>
<path id="rect12281-6_2" d="M91.1957 108.801H82.1289V117.867H91.1957V108.801Z" fill="#E13040"/>
<path id="rect12283-8_2" d="M82.1312 108.801H73.0645V117.868H82.1312V108.801Z" fill="#E13040"/>
<path id="rect12285_2" d="M73.059 108.801H63.9922V117.868H73.059V108.801Z" fill="#E13040"/>
<path id="rect12287_2" d="M200 117.875H190.934V126.942H200V117.875Z" fill="#E13040"/>
<path id="rect12289-1_2" d="M190.93 117.875H181.863V126.942H190.93V117.875Z" fill="#E13040"/>
<path id="rect12291-7_2" d="M181.864 117.875H172.797V126.942H181.864V117.875Z" fill="#E13040"/>
<path id="rect12293-1_2" d="M172.801 117.875H163.734V126.942H172.801V117.875Z" fill="#E13040"/>
<path id="rect12295-9_2" d="M163.735 117.875H154.668V126.942H163.735V117.875Z" fill="#E13040"/>
<path id="rect12297-5_2" d="M154.664 117.875H145.598V126.942H154.664V117.875Z" fill="#E13040"/>
<path id="rect12299-7_2" d="M145.592 117.875H136.525V126.942H145.592V117.875Z" fill="#E13040"/>
<path id="rect12301-1_2" d="M136.528 117.875H127.461V126.942H136.528V117.875Z" fill="#E13040"/>
<path id="rect12303-5_2" d="M127.463 117.875H118.396V126.942H127.463V117.875Z" fill="#E13040"/>
<path id="rect12305-8_2" d="M118.399 117.875H109.332V126.942H118.399V117.875Z" fill="#E13040"/>
<path id="rect12307-4_2" d="M109.325 117.875H100.258V126.942H109.325V117.875Z" fill="#E13040"/>
<path id="rect12309-2_2" d="M100.26 117.875H91.1934V126.942H100.26V117.875Z" fill="#E13040"/>
<path id="rect12311-1_2" d="M91.1957 117.875H82.1289V126.942H91.1957V117.875Z" fill="#E13040"/>
<path id="rect12313-8_2" d="M82.1312 117.875H73.0645V126.942H82.1312V117.875Z" fill="#E13040"/>
<path id="rect12315_2" d="M190.93 126.934H181.863V136H190.93V126.934Z" fill="#E13040"/>
<path id="rect12317-5_2" d="M181.864 126.934H172.797V136H181.864V126.934Z" fill="#E13040"/>
<path id="rect12319-9_2" d="M172.801 126.934H163.734V136H172.801V126.934Z" fill="#E13040"/>
<path id="rect12321-9_2" d="M163.735 126.934H154.668V136H163.735V126.934Z" fill="#E13040"/>
<path id="rect12323-4_2" d="M154.664 126.934H145.598V136H154.664V126.934Z" fill="#E13040"/>
<path id="rect12325-5_2" d="M145.592 126.934H136.525V136H145.592V126.934Z" fill="#E13040"/>
<path id="rect12327-8_2" d="M136.528 126.934H127.461V136H136.528V126.934Z" fill="#E13040"/>
<path id="rect12329-4_2" d="M127.463 126.934H118.396V136H127.463V126.934Z" fill="#E13040"/>
<path id="rect12331-2_2" d="M118.399 126.934H109.332V136H118.399V126.934Z" fill="#E13040"/>
<path id="rect12333-2_2" d="M109.325 126.934H100.258V136H109.325V126.934Z" fill="#E13040"/>
<path id="rect12335-7_2" d="M100.26 126.934H91.1934V136H100.26V126.934Z" fill="#E13040"/>
<path id="rect12337-1_2" d="M91.1957 126.934H82.1289V136H91.1957V126.934Z" fill="#E13040"/>
<path id="rect12339_2" d="M82.1312 126.934H73.0645V136H82.1312V126.934Z" fill="#E13040"/>
<path id="rect12341-8_2" d="M181.864 136.008H172.797V145.075H181.864V136.008Z" fill="#E13040"/>
<path id="rect12343-1_2" d="M172.801 136.008H163.734V145.075H172.801V136.008Z" fill="#E13040"/>
<path id="rect12345-8_2" d="M163.735 136.008H154.668V145.075H163.735V136.008Z" fill="#E13040"/>
<path id="rect12347-6_2" d="M154.664 136.008H145.598V145.075H154.664V136.008Z" fill="#E13040"/>
<path id="rect12349-2_2" d="M145.592 136.008H136.525V145.075H145.592V136.008Z" fill="#E13040"/>
<path id="rect12351-2_2" d="M136.528 136.008H127.461V145.075H136.528V136.008Z" fill="#E13040"/>
<path id="rect12353-7_2" d="M127.463 136.008H118.396V145.075H127.463V136.008Z" fill="#E13040"/>
<path id="rect12355-0_2" d="M118.399 136.008H109.332V145.075H118.399V136.008Z" fill="#E13040"/>
<path id="rect12357-8_2" d="M109.325 136.008H100.258V145.075H109.325V136.008Z" fill="#E13040"/>
<path id="rect12359-3_2" d="M100.26 136.008H91.1934V145.075H100.26V136.008Z" fill="#E13040"/>
<path id="rect12361_2" d="M91.1957 136.008H82.1289V145.075H91.1957V136.008Z" fill="#E13040"/>
<path id="rect12363-1_2" d="M172.801 145.062H163.734V154.129H172.801V145.062Z" fill="#E13040"/>
<path id="rect12365-6_2" d="M163.735 145.062H154.668V154.129H163.735V145.062Z" fill="#E13040"/>
<path id="rect12367-8_2" d="M154.664 145.062H145.598V154.129H154.664V145.062Z" fill="#E13040"/>
<path id="rect12369-4_2" d="M145.592 145.062H136.525V154.129H145.592V145.062Z" fill="#E13040"/>
<path id="rect12371-3_2" d="M136.528 145.062H127.461V154.129H136.528V145.062Z" fill="#E13040"/>
<path id="rect12373-6_2" d="M127.463 145.062H118.396V154.129H127.463V145.062Z" fill="#E13040"/>
<path id="rect12375-4_2" d="M118.399 145.062H109.332V154.129H118.399V145.062Z" fill="#E13040"/>
<path id="rect12377-9_2" d="M109.325 145.062H100.258V154.129H109.325V145.062Z" fill="#E13040"/>
<path id="rect12379_2" d="M100.26 145.062H91.1934V154.129H100.26V145.062Z" fill="#E13040"/>
<path id="rect12381-1_2" d="M154.664 154.133H145.598V163.2H154.664V154.133Z" fill="#E13040"/>
<path id="rect12383-2_2" d="M145.592 154.133H136.525V163.2H145.592V154.133Z" fill="#E13040"/>
<path id="rect12385-3_2" d="M136.528 154.133H127.461V163.2H136.528V154.133Z" fill="#E13040"/>
<path id="rect12387-7_2" d="M127.463 154.133H118.396V163.2H127.463V154.133Z" fill="#E13040"/>
<path id="rect12389-1_2" d="M118.399 154.133H109.332V163.2H118.399V154.133Z" fill="#E13040"/>
<path id="rect12391-0_2" d="M109.325 154.133H100.258V163.2H109.325V154.133Z" fill="#E13040"/>
<path id="rect12393_2" d="M154.662 163.211H145.596V172.278H154.662V163.211Z" fill="#E13040"/>
<path id="rect12395-1_2" d="M145.592 163.211H136.525V172.278H145.592V163.211Z" fill="#E13040"/>
<path id="rect12397-6_2" d="M136.528 163.211H127.461V172.278H136.528V163.211Z" fill="#E13040"/>
<path id="rect12399_2" d="M118.399 163.211H109.332V172.278H118.399V163.211Z" fill="#E13040"/>
<path id="rect12401-8_2" d="M109.325 163.211H100.258V172.278H109.325V163.211Z" fill="#E13040"/>
<path id="rect12403-1_2" d="M154.664 172.285H145.598V181.352H154.664V172.285Z" fill="#E13040"/>
<path id="rect12405_2" d="M145.592 172.285H136.525V181.352H145.592V172.285Z" fill="#E13040"/>
<path id="rect12407-6_2" d="M109.325 172.285H100.258V181.352H109.325V172.285Z" fill="#E13040"/>
<path id="rect12409-4_2" d="M154.664 181.336H145.598V190.403H154.664V181.336Z" fill="#E13040"/>
<path id="rect12411-8_2" d="M109.325 181.336H100.258V190.403H109.325V181.336Z" fill="#E13040"/>
<path id="rect12413-3_2" d="M154.664 190.41H145.598V199.477H154.664V190.41Z" fill="#E13040"/>
<path id="rect12415-1_2" d="M145.592 190.41H136.525V199.477H145.592V190.41Z" fill="#E13040"/>
<path id="rect12417-6_2" d="M109.325 190.41H100.258V199.477H109.325V190.41Z" fill="#E13040"/>
<path id="rect12419-9_2" d="M100.26 190.41H91.1934V199.477H100.26V190.41Z" fill="#E13040"/>
</g>
</g>
</svg>
