<svg width="1782" height="471" viewBox="0 0 1782 471" fill="none" xmlns="http://www.w3.org/2000/svg">
<rect x="1710" y="456" width="1211" height="3.99989" transform="rotate(-180 1710 456)" fill="#E6E9EB"/>
<rect x="72" y="226" width="1638" height="4" fill="#E6E9EB"/>
<path fill-rule="evenodd" clip-rule="evenodd" d="M-2.71011e-06 62C-1.21336e-06 27.7583 27.7583 1.21336e-06 62 2.71011e-06L72 3.14722e-06L72 4L62 4C29.9675 4 4 29.9675 4 62L4 72L-3.14722e-06 72L-2.71011e-06 62Z" fill="#E6E9EB"/>
<path fill-rule="evenodd" clip-rule="evenodd" d="M62 230C27.7583 230 0 202.242 0 168L0 158H4L4 168C4 200.033 29.9675 226 62 226H72V230H62Z" fill="#E6E9EB"/>
<path fill-rule="evenodd" clip-rule="evenodd" d="M1720 226C1754.24 226 1782 253.758 1782 288L1782 298L1778 298L1778 288C1778 255.967 1752.03 230 1720 230L1710 230L1710 226L1720 226Z" fill="#E6E9EB"/>
<path fill-rule="evenodd" clip-rule="evenodd" d="M1782 394C1782 428.242 1754.24 456 1720 456L1710 456L1710 452L1720 452C1752.03 452 1778 426.033 1778 394L1778 384L1782 384L1782 394Z" fill="#E6E9EB"/>
<rect x="4" y="63" width="95" height="4" transform="rotate(90 4 63)" fill="#E6E9EB"/>
<rect x="1478" y="4" width="1406" height="3.99988" transform="rotate(-180 1478 4)" fill="#E6E9EB"/>
<rect x="1782" y="298" width="95" height="4" transform="rotate(90 1782 298)" fill="#E6E9EB"/>
<path d="M513.68 439.32L502.182 450.818C500.425 452.575 500.425 455.425 502.182 457.182L513.68 468.68" stroke="#E6E9EB" stroke-width="4"/>
</svg>
