<svg width="126" height="80" viewBox="0 0 126 80" fill="none" xmlns="http://www.w3.org/2000/svg">
<g clip-path="url(#clip0_137_13763)">
<path d="M6.80156 0.845175C6.13422 0.283439 5.28564 -0.0169113 4.41352 -5.99506e-05C3.53701 -0.0150777 2.6842 0.28483 2.01004 0.845175C1.33782 1.39985 1.00171 2.16648 1.00171 3.14506C1.00171 4.12364 1.33782 4.89505 2.01004 5.45927C2.68798 6.0113 3.53939 6.30564 4.41352 6.29018C5.28329 6.30776 6.13055 6.01296 6.80156 5.45927C7.4848 4.89505 7.82606 4.12364 7.82532 3.14506C7.82459 2.16648 7.48333 1.39985 6.80156 0.845175Z" fill="white"/>
<path d="M24.935 8.69266C23.9961 8.11962 22.7839 7.8331 21.2984 7.8331C20.4856 7.82859 19.68 7.98515 18.928 8.29374C18.1867 8.59643 17.5336 9.0812 17.0293 9.7032V8.27721H11.0928V23.7053H17.0271V15.7543C17.0176 15.2935 17.1138 14.8366 17.3081 14.4187C17.4831 14.0381 17.7673 13.7182 18.1247 13.4996C18.5202 13.2699 18.9722 13.1553 19.4294 13.169C20.231 13.169 20.8187 13.3964 21.1926 13.8511C21.5666 14.3059 21.7594 14.9388 21.7712 15.7499V23.7009H27.7055V13.8853C27.7109 12.8614 27.4769 11.8504 27.0222 10.933C26.5631 9.99647 25.8368 9.21689 24.935 8.69266Z" fill="white"/>
<path d="M40.5978 18.8542C40.3115 18.9226 40.0183 18.9577 39.7239 18.9589C39.2922 18.9682 38.8708 18.8263 38.5327 18.5577C38.2021 18.291 38.0268 17.8315 38.0268 17.178V12.9055H41.2315V8.27713H38.0313V3.9165H32.0981V8.27713H29.3684V12.9055H32.0981V18.1015C32.0981 20.0895 32.6123 21.5956 33.6409 22.6197C34.6694 23.6438 36.102 24.1533 37.9387 24.1482C38.726 24.1542 39.5103 24.0492 40.2683 23.8363C40.903 23.6677 41.5153 23.424 42.0921 23.1101L41.4398 18.5114C41.1743 18.66 40.8915 18.7751 40.5978 18.8542Z" fill="white"/>
<path d="M7.38131 8.27734H1.44702V23.7054H7.38131V8.27734Z" fill="white"/>
<path d="M110.552 10.651C109.827 9.7506 108.896 9.03837 107.838 8.57481C106.75 8.07965 105.504 7.83243 104.1 7.83317C102.921 7.81956 101.75 8.02046 100.644 8.42605C99.6384 8.8019 98.7166 9.37137 97.9306 10.1022C97.1652 10.8301 96.5592 11.7089 96.1509 12.6831C95.7259 13.7232 95.5141 14.8381 95.5282 15.9616C95.5282 17.6035 95.8842 19.0361 96.5961 20.2594C97.3125 21.4822 98.3621 22.4759 99.6222 23.1246C100.918 23.8064 102.431 24.1476 104.161 24.1483C105.009 24.1424 105.853 24.053 106.683 23.8817C107.536 23.7237 108.374 23.4955 109.19 23.1995C109.971 22.9123 110.589 22.5956 111.044 22.2496L109.324 18.3331C108.569 18.7884 107.755 19.1377 106.905 19.3712C106.048 19.5963 105.165 19.7075 104.279 19.7018C103.696 19.7104 103.115 19.6251 102.559 19.4494C102.106 19.3002 101.692 19.0517 101.347 18.7221C101.06 18.4355 100.882 18.0579 100.843 17.6542H111.973C112.261 16.2503 112.277 14.9547 112.019 13.7675C111.785 12.6265 111.282 11.558 110.552 10.651ZM101.222 13.7961C101.272 13.262 101.544 12.8267 102.038 12.4902C102.531 12.1538 103.16 11.9859 103.922 11.9866C104.657 11.9866 105.25 12.1545 105.702 12.4902C105.915 12.6346 106.089 12.8294 106.208 13.0573C106.327 13.2851 106.388 13.539 106.385 13.7961H101.222Z" fill="white"/>
<path d="M125.061 18.5136C124.795 18.6617 124.511 18.7761 124.217 18.8542C123.928 18.923 123.632 18.9581 123.335 18.9589C122.905 18.9668 122.485 18.825 122.148 18.5577C121.813 18.291 121.645 17.8311 121.645 17.178V12.9055H124.848V8.27713H121.645V3.9165H115.71V8.27713H112.981V12.9055H115.71V18.1015C115.71 20.0895 116.225 21.5956 117.253 22.6197C118.282 23.6438 119.714 24.1533 121.551 24.1482C122.338 24.1543 123.122 24.0493 123.88 23.8363C124.515 23.6679 125.127 23.4241 125.704 23.1101L125.061 18.5136Z" fill="white"/>
<path d="M72.7102 7.80325C71.8848 7.79319 71.0679 7.97067 70.3211 8.3223C69.6121 8.64617 69.0285 9.193 68.6593 9.87943V8.27711H62.7261V23.7052H68.6593V16.1994C68.6593 15.309 68.9116 14.6562 69.4163 14.2412C69.9211 13.8261 70.5591 13.6185 71.3305 13.6185C71.7492 13.6188 72.1666 13.6635 72.5758 13.7519C72.9819 13.8251 73.3795 13.9392 73.7626 14.0924L74.4305 8.01043C74.1737 7.96084 73.9103 7.91675 73.6447 7.87708C73.3362 7.82349 73.0234 7.79877 72.7102 7.80325Z" fill="white"/>
<path d="M90.3578 8.69269C89.4181 8.11965 88.2059 7.83313 86.7212 7.83313C85.9073 7.82798 85.1006 7.98416 84.3474 8.29267C83.6062 8.59565 82.9533 9.08037 82.4487 9.70213V8.27724H76.5144V23.7053H82.4487V15.7543C82.4391 15.2934 82.5356 14.8364 82.7308 14.4187C82.9049 14.0375 83.1894 13.7174 83.5474 13.4996C83.9429 13.2698 84.3949 13.1552 84.8522 13.169C85.6529 13.169 86.2407 13.3964 86.6154 13.8512C86.99 14.3059 87.1829 14.9389 87.1939 15.7499V23.7009H93.1271V13.8853C93.1329 12.8615 92.8993 11.8506 92.445 10.9331C91.9853 9.99684 91.2592 9.21738 90.3578 8.69269Z" fill="white"/>
<path d="M58.545 10.651C57.8213 9.75124 56.8914 9.03909 55.8341 8.57481C54.7461 8.07965 53.5001 7.83243 52.0961 7.83317C50.9174 7.81957 49.746 8.02047 48.6391 8.42605C47.6332 8.8014 46.711 9.37092 45.9249 10.1022C45.1588 10.8298 44.5524 11.7087 44.144 12.6831C43.719 13.7232 43.5073 14.8381 43.5214 15.9616C43.5214 17.6035 43.8777 19.0361 44.5904 20.2594C45.3067 21.4819 46.3558 22.4756 47.6154 23.1246C48.9113 23.8064 50.4244 24.1476 52.1545 24.1483C53.0021 24.1424 53.8469 24.053 54.677 23.8817C55.53 23.7234 56.3685 23.4953 57.1841 23.1995C57.965 22.9123 58.5829 22.5956 59.0376 22.2496L57.3174 18.3331C56.5625 18.7884 55.7486 19.1377 54.8985 19.3712C54.0419 19.5963 53.1593 19.7075 52.2735 19.7018C51.6873 19.7107 51.1035 19.6251 50.5445 19.4483C50.0912 19.2994 49.677 19.0509 49.3323 18.721C49.0446 18.4348 48.8661 18.0571 48.8276 17.6531H59.9578C60.2458 16.2492 60.2609 14.9536 60.003 13.7664C59.7716 12.6268 59.2718 11.5588 58.545 10.651ZM49.2144 13.7961C49.2643 13.262 49.5362 12.8267 50.0299 12.4902C50.5357 12.1541 51.1627 11.9866 51.9154 11.9866C52.6456 11.9866 53.2389 12.1545 53.6951 12.4902C53.9078 12.6347 54.0814 12.8295 54.2004 13.0574C54.3194 13.2853 54.3802 13.539 54.3773 13.7961H49.2144Z" fill="white"/>
<path d="M18.128 53.5595C17.6646 53.6691 17.1902 53.7253 16.7141 53.727C16.0199 53.7402 15.3428 53.5115 14.7988 53.0801C14.2559 52.6489 13.9844 51.9065 13.9844 50.853V43.9566H19.1572V36.485H13.9844V29.4443H4.40582V36.485H-0.00219727V43.9566H4.40582V52.3385C4.40582 55.5475 5.236 57.9818 6.89635 59.6415C8.5567 61.2871 10.8709 62.1096 13.839 62.1088C15.1094 62.1181 16.3748 61.9485 17.5979 61.6052C18.7807 61.2702 19.7626 60.8794 20.5436 60.4327L19.4901 53.0085C19.0604 53.2474 18.6029 53.4324 18.128 53.5595Z" fill="#E13040"/>
<path d="M124.282 40.7719C123.723 39.2871 122.749 38.0819 121.36 37.1562C119.972 36.2305 118.039 35.7673 115.563 35.7666C113.599 35.7666 111.795 36.1497 110.15 36.916C108.506 37.6661 107.277 38.7519 106.462 40.1735C106.015 38.7843 105.128 37.7065 103.803 36.9402C102.495 36.1578 101.003 35.7666 99.3268 35.7666C97.4529 35.7842 95.6267 36.3597 94.0813 37.4196C93.3076 37.94 92.6353 38.5973 92.0977 39.3591V36.4851H82.519V61.3904H92.0977V47.3575C92.0945 46.842 92.2354 46.336 92.5043 45.8962C92.803 45.4393 93.2155 45.0679 93.7011 44.8185C94.2698 44.5216 94.9044 44.3734 95.5458 44.3876C96.6633 44.3876 97.525 44.7388 98.1311 45.4411C98.7372 46.1434 99.0407 47.0853 99.0414 48.2666V61.3904H108.62V47.3575C108.616 46.8419 108.757 46.3357 109.027 45.8962C109.326 45.4392 109.739 45.0678 110.225 44.8185C110.793 44.5216 111.426 44.3734 112.067 44.3876C113.186 44.3876 114.048 44.7388 114.655 45.4411C115.261 46.1434 115.564 47.0853 115.565 48.2666V61.3904H125.142V45.5414C125.155 43.9118 124.863 42.2942 124.282 40.7719Z" fill="#E13040"/>
<path d="M47.0985 40.3168C45.9296 38.8638 44.4278 37.714 42.7202 36.9645C40.9636 36.1659 38.9521 35.7666 36.6857 35.7666C34.658 35.7666 32.7981 36.0858 31.1062 36.7242C29.482 37.3304 27.9929 38.25 26.7235 39.4308C25.4876 40.6059 24.5089 42.0247 23.8495 43.5974C23.1795 45.1939 22.8445 46.9571 22.8445 48.8871C22.8445 51.537 23.419 53.8512 24.568 55.8297C25.7256 57.802 27.4198 59.4049 29.4532 60.4515C31.5448 61.5535 33.9876 62.1045 36.7815 62.1045C38.1494 62.0948 39.5129 61.9501 40.8523 61.6725C42.2296 61.4172 43.5834 61.0486 44.9 60.5705C46.1607 60.1077 47.1584 59.5967 47.893 59.0376L45.1149 52.7154C43.8968 53.4505 42.5834 54.0145 41.2116 54.3916C39.8281 54.7527 38.4031 54.9302 36.9733 54.9194C36.0313 54.9336 35.0933 54.7959 34.1951 54.5117C33.3811 54.2237 32.7265 53.8325 32.2314 53.3381C31.7674 52.8759 31.4794 52.2663 31.417 51.6145H49.3796C49.8425 49.3473 49.8664 47.2557 49.4513 45.3397C49.0325 43.4119 48.2482 41.7376 47.0985 40.3168ZM32.0374 45.3937C32.116 44.5319 32.5546 43.8292 33.3532 43.2856C34.1679 42.7434 35.1818 42.4723 36.3947 42.4723C37.5761 42.4723 38.5341 42.7434 39.2688 43.2856C40.0034 43.8278 40.3708 44.5305 40.3708 45.3937H32.0374Z" fill="#E13040"/>
<path d="M70.8026 36.677C68.9336 35.91 66.8101 35.5269 64.4319 35.5276C62.4987 35.536 60.5747 35.7953 58.7081 36.299C56.8109 36.7792 54.9953 37.5379 53.3204 38.5504L55.6666 44.92C56.659 44.1928 57.7691 43.6419 58.9484 43.2912C60.1822 42.9128 61.4652 42.7193 62.7558 42.7171C64.0326 42.7171 65.0303 42.8927 65.7488 43.2438C66.4673 43.5788 66.9783 44.0498 67.2817 44.6566C67.4625 45.0131 67.5892 45.3945 67.6575 45.7883C65.4535 45.6671 63.4699 45.713 61.7067 45.9261C59.6151 46.1818 57.8588 46.6685 56.438 47.3863C55.0171 48.0893 53.9394 48.9996 53.2047 50.117C52.4862 51.2345 52.127 52.5355 52.127 54.0203C52.127 55.7284 52.5262 57.1889 53.3248 58.4019C54.1154 59.5938 55.2172 60.5466 56.5107 61.1569C57.8792 61.8059 59.3778 62.1338 60.8923 62.1156C62.6489 62.1156 64.1976 61.8442 65.5383 61.3013C66.8799 60.7429 67.9337 59.9605 68.7 58.954V61.3971H76.8405V46.5432C76.8405 43.9564 76.2979 41.8571 75.2128 40.2453C74.1517 38.6242 72.6094 37.3764 70.8026 36.677ZM67.1847 53.8473C66.816 54.3756 66.2997 54.7835 65.7003 55.0198C65.0464 55.2844 64.346 55.4148 63.6407 55.4033C62.7944 55.4033 62.1078 55.2439 61.5811 54.9251C61.0543 54.6062 60.7916 54.1191 60.7931 53.4638C60.7828 53.1888 60.8384 52.9154 60.9551 52.6662C61.0718 52.417 61.2464 52.1993 61.4642 52.0312C61.9102 51.6639 62.5166 51.4086 63.2836 51.2653C64.1532 51.116 65.0379 51.0757 65.9174 51.1452C66.5272 51.1759 67.1349 51.2388 67.7379 51.3336V51.7678C67.7365 52.6127 67.5521 53.3059 67.1847 53.8473Z" fill="#E13040"/>
<path d="M4.64599 77.2901C4.07524 77.3032 3.51229 77.1557 3.02129 76.8644C2.5303 76.5732 2.13101 76.1498 1.86894 75.6426C1.63626 75.1795 1.50105 74.6735 1.47167 74.1561C1.44229 73.6386 1.51937 73.1206 1.69813 72.6341C1.84629 72.2397 2.06847 71.8773 2.35272 71.5663C2.63557 71.2584 2.97931 71.0126 3.36215 70.8445C3.77074 70.6664 4.21244 70.577 4.65811 70.5822C5.20073 70.5669 5.73791 70.6938 6.21634 70.9503C6.64464 71.1928 7.01001 71.5325 7.28308 71.9421L7.04505 72.2066V67.814H8.2275V77.1017H7.13762V75.6184L7.31174 75.8895C7.05949 76.2999 6.71356 76.6447 6.3023 76.8956C5.87693 77.1586 5.32482 77.2901 4.64599 77.2901ZM4.85868 76.2201C5.25408 76.2276 5.64447 76.1306 5.99044 75.939C6.31929 75.7534 6.5887 75.4783 6.76735 75.1456C6.96475 74.7727 7.06267 74.3552 7.05166 73.9334C7.06202 73.5121 6.96534 73.095 6.77065 72.7212C6.59404 72.3897 6.3264 72.1156 5.99925 71.9311C5.6493 71.7486 5.26048 71.6534 4.86584 71.6534C4.47119 71.6534 4.08238 71.7486 3.73243 71.9311C3.40535 72.1157 3.13774 72.3898 2.96102 72.7212C2.77685 73.0988 2.68113 73.5133 2.68113 73.9334C2.68113 74.3535 2.77685 74.768 2.96102 75.1456C3.13912 75.4791 3.40914 75.7544 3.73904 75.939C4.08141 76.1286 4.46736 76.2255 4.85868 76.2201Z" fill="#7F8687"/>
<path d="M12.8109 69.5827C12.5955 69.5861 12.3874 69.505 12.2312 69.3567C12.1511 69.2848 12.0876 69.1963 12.0452 69.0973C12.0028 68.9983 11.9824 68.8913 11.9855 68.7837C11.9821 68.6764 12.0024 68.5696 12.0448 68.4709C12.0873 68.3723 12.1509 68.2842 12.2312 68.2129C12.3911 68.0695 12.5983 67.9902 12.8131 67.9902C13.0278 67.9902 13.235 68.0695 13.3949 68.2129C13.474 68.2849 13.5365 68.3733 13.5782 68.4718C13.6199 68.5704 13.6397 68.6768 13.6363 68.7837C13.6394 68.8909 13.6195 68.9976 13.5778 69.0964C13.5362 69.1953 13.4738 69.2841 13.3949 69.3567C13.2376 69.506 13.0277 69.5872 12.8109 69.5827ZM12.218 77.0972V70.7772H13.4071V77.0983L12.218 77.0972Z" fill="#7F8687"/>
<path d="M20.1291 80C19.7154 79.9997 19.3027 79.9584 18.8971 79.8766C18.4879 79.7959 18.0911 79.6618 17.7168 79.4777L18.0331 78.465C18.3634 78.6204 18.7096 78.7394 19.0657 78.8198C19.4023 78.8938 19.7459 78.9307 20.0905 78.93C20.8524 78.93 21.4339 78.743 21.835 78.3691C22.2361 77.9951 22.4374 77.5025 22.4389 76.8913V75.5182L22.6064 75.7695C22.3734 76.1873 22.0382 76.5391 21.6322 76.7921C21.215 77.0566 20.6904 77.1888 20.0586 77.1888C19.4633 77.2022 18.8761 77.0495 18.3626 76.748C17.8834 76.4611 17.4908 76.0499 17.2264 75.5579C16.9536 75.043 16.8149 74.4677 16.8231 73.885C16.8195 73.4446 16.898 73.0074 17.0545 72.5957C17.2043 72.2045 17.4289 71.8463 17.7157 71.5411C18.0036 71.2368 18.3519 70.9962 18.7384 70.8347C19.1576 70.6622 19.6075 70.5764 20.0608 70.5823C20.6926 70.5823 21.2172 70.7138 21.6344 70.9768C22.0405 71.2279 22.3758 71.5784 22.6086 71.9951L22.4411 72.253V70.7697H23.5563V76.6004C23.5563 77.6671 23.2695 78.5002 22.6957 79.0997C22.1219 79.6992 21.2664 79.9993 20.1291 80ZM20.2007 76.1364C20.5936 76.1434 20.9814 76.0477 21.3259 75.8587C21.6519 75.6772 21.9195 75.4065 22.0973 75.0785C22.28 74.7078 22.375 74.3 22.375 73.8867C22.375 73.4734 22.28 73.0656 22.0973 72.6949C21.9202 72.3654 21.6525 72.0935 21.3259 71.9113C20.9779 71.7296 20.5911 71.6347 20.1985 71.6347C19.806 71.6347 19.4192 71.7296 19.0712 71.9113C18.7458 72.0951 18.4785 72.3666 18.2998 72.6949C18.115 73.065 18.0188 73.473 18.0188 73.8867C18.0188 74.3004 18.115 74.7084 18.2998 75.0785C18.4792 75.4054 18.7464 75.6756 19.0712 75.8587C19.4176 76.049 19.8079 76.1447 20.2029 76.1364H20.2007Z" fill="#7F8687"/>
<path d="M28.1353 69.5827C27.9201 69.5858 27.712 69.5048 27.5557 69.3567C27.4756 69.2848 27.4121 69.1963 27.3697 69.0973C27.3272 68.9983 27.3068 68.8913 27.3099 68.7837C27.3066 68.6764 27.3268 68.5696 27.3693 68.4709C27.4118 68.3723 27.4754 68.2842 27.5557 68.2129C27.7156 68.0695 27.9228 67.9902 28.1375 67.9902C28.3523 67.9902 28.5595 68.0695 28.7194 68.2129C28.7988 68.2847 28.8617 68.373 28.9036 68.4715C28.9454 68.5701 28.9653 68.6767 28.9618 68.7837C28.965 68.891 28.9449 68.9978 28.9031 69.0967C28.8613 69.1955 28.7986 69.2842 28.7194 69.3567C28.5621 69.506 28.3522 69.5872 28.1353 69.5827ZM27.5425 77.0972V70.7772H28.7249V77.0983L27.5425 77.0972Z" fill="#7F8687"/>
<path d="M31.9207 71.7824V70.7774H33.5461V71.7835L31.9207 71.7824ZM35.3259 77.2925C34.7381 77.2925 34.2643 77.1205 33.9043 76.7767C33.5443 76.4329 33.365 75.9025 33.3665 75.1854V68.9216H34.5533V70.7774H36.4047V71.7835H34.5533V74.8857C34.5533 75.3673 34.6404 75.7067 34.8145 75.9017C34.9886 76.0968 35.2432 76.1949 35.5793 76.1949C35.7237 76.1957 35.8677 76.1787 36.008 76.1442C36.1323 76.1131 36.2525 76.0676 36.3661 76.0086L36.6108 76.9828C36.4208 77.0807 36.2194 77.1547 36.0113 77.2032C35.7876 77.2603 35.5578 77.2896 35.3269 77.2902L35.3259 77.2925Z" fill="#7F8687"/>
<path d="M42.7963 77.2902C42.2028 77.3029 41.6175 77.1503 41.1058 76.8494C40.6218 76.5592 40.2254 76.1434 39.9586 75.6461C39.6782 75.1217 39.536 74.5347 39.5454 73.9402C39.5416 73.4884 39.6223 73.0399 39.7834 72.6177C39.9355 72.2216 40.1635 71.8588 40.4545 71.5499C40.7453 71.2455 41.0957 71.0043 41.4838 70.8413C41.8993 70.6676 42.3459 70.5806 42.7963 70.5857C43.4318 70.5857 43.9607 70.719 44.3832 70.9857C44.7908 71.2391 45.1296 71.5893 45.3694 72.005L45.1953 72.2629V70.7774H46.2786V77.0985H45.1953V75.6152L45.3694 75.8665C45.1294 76.283 44.7907 76.6342 44.3832 76.8891C43.9615 77.1565 43.4325 77.2902 42.7963 77.2902ZM42.9252 76.2202C43.3174 76.2276 43.7046 76.1306 44.047 75.9392C44.3742 75.7532 44.6418 75.4781 44.8184 75.1458C45.0026 74.7682 45.0983 74.3536 45.0983 73.9335C45.0983 73.5135 45.0026 73.0989 44.8184 72.7213C44.6413 72.3903 44.3738 72.1163 44.047 71.9312C43.701 71.7488 43.3158 71.6535 42.9246 71.6535C42.5335 71.6535 42.1483 71.7488 41.8023 71.9312C41.4763 72.1173 41.209 72.391 41.0309 72.7213C40.8446 73.0983 40.7477 73.5131 40.7477 73.9335C40.7477 74.354 40.8446 74.7688 41.0309 75.1458C41.2089 75.477 41.4761 75.7519 41.8023 75.9392C42.1451 76.1306 42.5326 76.2276 42.9252 76.2202Z" fill="#7F8687"/>
<path d="M50.2646 77.0973V67.8096H51.4515V77.0973H50.2646Z" fill="#7F8687"/>
<path d="M60.3777 73.9886V72.9561H63.7575V73.9886H60.3777Z" fill="#7F8687"/>
<path d="M75.3673 77.2901C74.7742 77.3029 74.1892 77.1502 73.6779 76.8493C73.1939 76.5588 72.7972 76.1431 72.5297 75.6459C72.2493 75.1216 72.1071 74.5345 72.1164 73.94C72.113 73.4882 72.1941 73.0397 72.3555 72.6176C72.5064 72.2207 72.7341 71.8575 73.0256 71.5487C73.3157 71.2441 73.6658 71.0028 74.0537 70.8401C74.4692 70.6664 74.9159 70.5794 75.3662 70.5844C76.0032 70.5844 76.5321 70.7178 76.9531 70.9845C77.3627 71.2373 77.7034 71.5875 77.9449 72.0038L77.7708 72.2617V70.7773H78.8541V77.0984H77.7642V75.6151L77.9383 75.8664C77.6966 76.2834 77.356 76.6346 76.9465 76.889C76.5307 77.1564 76.0043 77.2901 75.3673 77.2901ZM75.4963 76.2201C75.8888 76.2275 76.2763 76.1305 76.6192 75.9391C76.9461 75.7527 77.2135 75.4777 77.3906 75.1456C77.5755 74.7683 77.6716 74.3536 77.6716 73.9334C77.6716 73.5132 77.5755 73.0986 77.3906 72.7212C77.2134 72.3901 76.9459 72.1161 76.6192 71.9311C76.2732 71.7487 75.8879 71.6533 75.4968 71.6533C75.1057 71.6533 74.7204 71.7487 74.3744 71.9311C74.048 72.1165 73.7806 72.3904 73.603 72.7212C73.416 73.098 73.3187 73.5128 73.3187 73.9334C73.3187 74.354 73.416 74.7689 73.603 75.1456C73.7804 75.4774 74.0478 75.7524 74.3744 75.9391C74.7168 76.1305 75.104 76.2275 75.4963 76.2201Z" fill="#7F8687"/>
<path d="M85.5773 79.9999C85.1635 79.9995 84.7508 79.9582 84.3452 79.8765C83.9359 79.7976 83.5387 79.6654 83.1639 79.4831L83.4801 78.4703C83.8105 78.6256 84.1567 78.7446 84.5127 78.8252C84.8493 78.8992 85.193 78.9361 85.5376 78.9354C86.2994 78.9354 86.8809 78.7484 87.2821 78.3745C87.6832 78.0005 87.8845 77.5079 87.886 76.8967V75.5236L88.0535 75.7748C87.8205 76.1926 87.4853 76.5445 87.0793 76.7975C86.6627 77.062 86.1382 77.1942 85.5056 77.1942C84.9104 77.2074 84.3232 77.0548 83.8096 76.7534C83.3306 76.4667 82.9383 76.0554 82.6746 75.5633C82.3994 75.0476 82.2595 74.4705 82.2679 73.886C82.2642 73.4455 82.3431 73.0081 82.5005 72.5967C82.6498 72.2053 82.8744 71.847 83.1617 71.542C83.4495 71.2378 83.7979 70.9971 84.1843 70.8357C84.6036 70.6632 85.0534 70.5773 85.5067 70.5833C86.1393 70.5833 86.6638 70.7148 87.0804 70.9778C87.4864 71.2289 87.8217 71.5793 88.0546 71.9961L87.8871 72.2539V70.7706H89.0045V76.6013C89.0045 77.6681 88.7176 78.5012 88.1438 79.1007C87.57 79.7002 86.7145 79.9999 85.5773 79.9999ZM85.6489 76.1363C86.0417 76.1434 86.4296 76.0477 86.774 75.8586C87.1003 75.6773 87.3679 75.4066 87.5454 75.0784C87.7281 74.7076 87.8231 74.2999 87.8231 73.8866C87.8231 73.4733 87.7281 73.0655 87.5454 72.6947C87.3687 72.3651 87.1009 72.0931 86.774 71.9112C86.426 71.7295 86.0393 71.6346 85.6467 71.6346C85.2541 71.6346 84.8673 71.7295 84.5193 71.9112C84.1939 72.095 83.9266 72.3665 83.7479 72.6947C83.5631 73.0649 83.4669 73.4729 83.4669 73.8866C83.4669 74.3002 83.5631 74.7083 83.7479 75.0784C83.9274 75.4052 84.1945 75.6755 84.5193 75.8586C84.8651 76.0485 85.2546 76.1442 85.6489 76.1363Z" fill="#7F8687"/>
<path d="M95.837 77.2902C95.22 77.3033 94.6098 77.1592 94.0638 76.8715C93.5619 76.6017 93.146 76.1962 92.8637 75.7011C92.5673 75.166 92.4182 74.5617 92.4318 73.95C92.4276 73.4909 92.5117 73.0352 92.6797 72.6078C92.836 72.2094 93.0714 71.8469 93.3718 71.5421C93.6723 71.2373 94.0314 70.9967 94.4275 70.8347C94.8438 70.6641 95.29 70.5783 95.74 70.5823C96.211 70.574 96.6784 70.6664 97.1109 70.8534C97.4993 71.0236 97.8418 71.2834 98.1104 71.6116C98.3803 71.9468 98.575 72.3362 98.6812 72.7533C98.7992 73.218 98.8236 73.7017 98.7529 74.1759H93.6054C93.5844 74.5604 93.6739 74.9428 93.8633 75.2779C94.0522 75.5981 94.3317 75.855 94.6666 76.0163C95.0559 76.2012 95.4833 76.2918 95.9141 76.2808C96.2651 76.2814 96.6139 76.2249 96.9467 76.1133C97.2727 76.0069 97.575 75.8385 97.8371 75.6174L98.3396 76.499C98.1174 76.6763 97.871 76.8211 97.6079 76.9287C97.3237 77.0473 97.0284 77.137 96.7263 77.1965C96.4335 77.2563 96.1357 77.2876 95.837 77.2902ZM93.6704 73.2536H97.566C97.5484 72.7202 97.3827 72.304 97.069 72.005C96.7553 71.706 96.306 71.5565 95.7212 71.5565C95.1533 71.5565 94.6846 71.706 94.3151 72.005C94.1279 72.1583 93.9739 72.348 93.8623 72.5626C93.7508 72.7773 93.684 73.0123 93.666 73.2536H93.6704Z" fill="#7F8687"/>
<path d="M102.212 77.0974V70.7774H103.398V71.6293C103.639 71.2842 103.966 71.0084 104.346 70.8292C104.694 70.6687 105.073 70.5849 105.456 70.5835C106.027 70.5835 106.502 70.6937 106.878 70.9295C107.235 71.14 107.528 71.4451 107.723 71.8111C107.906 72.1497 108.002 72.5283 108.003 72.9131V77.1008H106.816V73.2757C106.826 73.0638 106.792 72.8521 106.716 72.6539C106.64 72.4558 106.524 72.2754 106.375 72.1241C106.078 71.8343 105.674 71.6833 105.163 71.6833C104.849 71.6777 104.539 71.7537 104.264 71.9037C104 72.0516 103.783 72.2693 103.635 72.5329C103.476 72.8189 103.396 73.1417 103.402 73.4685V77.093L102.212 77.0974Z" fill="#7F8687"/>
<path d="M114.791 77.2902C114.172 77.3017 113.56 77.1497 113.017 76.8494C112.512 76.5678 112.094 76.1545 111.805 75.6537C111.551 75.1885 111.403 74.6727 111.372 74.1435C111.342 73.6143 111.429 73.0849 111.628 72.5934C111.797 72.1911 112.048 71.8285 112.366 71.5289C112.689 71.2246 113.069 70.9869 113.484 70.8291C114.302 70.53 115.193 70.4995 116.029 70.7421C116.378 70.8497 116.706 71.0179 116.997 71.2391L116.39 72.1548C116.193 71.984 115.962 71.8553 115.713 71.7768C115.036 71.5698 114.307 71.6204 113.665 71.919C113.326 72.0897 113.047 72.3585 112.863 72.6904C112.664 73.0677 112.567 73.4897 112.579 73.9158C112.579 74.6343 112.786 75.1967 113.201 75.603C113.616 76.0093 114.178 76.2124 114.887 76.2124C115.201 76.2148 115.513 76.1545 115.803 76.035C116.065 75.9316 116.303 75.7743 116.501 75.5732L117.113 76.4769C116.781 76.7266 116.413 76.9253 116.022 77.0665C115.628 77.2131 115.212 77.2888 114.791 77.2902Z" fill="#7F8687"/>
<path d="M120.819 79.9934C120.613 79.9932 120.407 79.968 120.207 79.9185C119.99 79.864 119.783 79.7759 119.594 79.6573L119.872 78.6324C120.004 78.7172 120.149 78.7811 120.301 78.822C120.435 78.862 120.574 78.8839 120.714 78.887C120.981 78.9038 121.245 78.821 121.455 78.6545C121.657 78.4592 121.804 78.2145 121.882 77.9448L122.133 77.223L119.633 70.7773H120.935L122.809 75.873L124.633 70.7773H125.891L123.124 78.1046C122.98 78.5223 122.767 78.9132 122.496 79.2617C122.295 79.513 122.034 79.7094 121.737 79.8325C121.444 79.9435 121.133 79.998 120.819 79.9934Z" fill="#7F8687"/>
</g>
<defs>
<clipPath id="clip0_137_13763">
<rect width="126" height="80" fill="white"/>
</clipPath>
</defs>
</svg>
