<svg width="145" height="145" viewBox="0 0 145 145" fill="none" xmlns="http://www.w3.org/2000/svg">
<path d="M70.0279 133.825C70.6899 133.861 71.2909 133.983 71.8309 134.19C72.3708 134.397 72.8331 134.676 73.2177 135.026L72.5474 135.986C72.2556 135.684 71.8912 135.441 71.4542 135.256C71.0172 135.072 70.5477 134.967 70.0458 134.939C69.5785 134.914 69.1702 134.959 68.8212 135.075C68.4718 135.195 68.1975 135.373 67.9981 135.61C67.7987 135.846 67.6878 136.131 67.6655 136.464C67.6369 136.992 67.7862 137.401 68.1133 137.693C68.4361 137.983 68.9587 138.148 69.6814 138.187L71.4403 138.283L71.3852 139.302L69.7236 139.212C69.3342 139.191 68.9934 139.233 68.7013 139.339C68.4048 139.444 68.1726 139.605 68.0047 139.822C67.8322 140.043 67.7374 140.311 67.7203 140.627C67.7037 140.934 67.7675 141.198 67.9118 141.418C68.0559 141.643 68.2743 141.817 68.567 141.942C68.8552 142.07 69.2069 142.146 69.6223 142.168C70.0637 142.192 70.485 142.145 70.8862 142.028C71.2875 141.911 71.6422 141.731 71.9505 141.487L72.5054 142.422C72.1152 142.735 71.6557 142.966 71.1269 143.115C70.5978 143.269 70.0347 143.33 69.4376 143.297C68.8059 143.263 68.2659 143.136 67.8178 142.917C67.3651 142.701 67.0252 142.405 66.7983 142.028C66.5667 141.656 66.4644 141.221 66.4913 140.723C66.5072 140.429 66.5941 140.147 66.7518 139.878C66.9096 139.609 67.1066 139.376 67.3428 139.181C67.5747 138.985 67.8123 138.846 68.0554 138.764C67.5573 138.585 67.1503 138.287 66.8343 137.871C66.5183 137.454 66.379 136.941 66.4163 136.331C66.4473 135.838 66.6188 135.396 66.9307 135.005C67.2426 134.614 67.6648 134.309 68.1974 134.091C68.7254 133.876 69.3356 133.788 70.0279 133.825Z" fill="white"/>
<path d="M62.6993 133.079C63.3485 133.19 63.9013 133.441 64.3578 133.831C64.8142 134.221 65.1446 134.693 65.3489 135.246C65.5531 135.8 65.6034 136.38 65.4997 136.987C65.423 137.435 65.2671 137.846 65.0318 138.219C64.7966 138.592 64.5011 138.906 64.1452 139.162C63.7886 139.422 63.3903 139.605 62.9503 139.71C62.5104 139.815 62.0469 139.825 61.56 139.742C60.9064 139.63 60.3515 139.38 59.895 138.989C59.4386 138.599 59.1082 138.127 58.904 137.574C58.6997 137.02 58.6494 136.44 58.7531 135.833C58.8298 135.385 58.9858 134.974 59.221 134.601C59.4562 134.228 59.7518 133.914 60.1076 133.658C60.4635 133.402 60.8617 133.22 61.3025 133.11C61.7425 133.005 62.2081 132.995 62.6993 133.079ZM62.5174 134.142C62.0945 134.07 61.7051 134.098 61.3491 134.226C60.988 134.358 60.6847 134.576 60.4391 134.882C60.1927 135.191 60.0301 135.577 59.9512 136.038C59.8716 136.504 59.8969 136.921 60.0272 137.291C60.1524 137.664 60.3638 137.97 60.6613 138.21C60.9588 138.45 61.3189 138.606 61.7418 138.679C62.1647 138.751 62.5562 138.723 62.9165 138.596C63.2726 138.468 63.5738 138.249 63.8201 137.939C64.0615 137.633 64.222 137.248 64.3016 136.782C64.3805 136.321 64.3573 135.903 64.232 135.53C64.1018 135.161 63.8883 134.854 63.5915 134.61C63.294 134.37 62.936 134.214 62.5174 134.142Z" fill="white"/>
<path d="M58.9138 132.551L59.0308 133.729C58.5708 133.712 58.2084 133.794 57.9438 133.974C57.6779 134.159 57.4543 134.461 57.2729 134.882C57.0915 135.303 56.899 135.863 56.6953 136.562L56.1369 138.478L51.3131 137.072L53.0955 130.957L54.2437 131.291L52.7451 136.433L55.3348 137.188L55.6095 136.246C55.8035 135.58 56.0011 135.01 56.2024 134.536C56.3984 134.065 56.6203 133.683 56.8683 133.39C57.1121 133.095 57.4008 132.879 57.7342 132.742C58.0623 132.607 58.4555 132.544 58.9138 132.551Z" fill="white"/>
<path d="M49.3716 129.318C49.9792 129.572 50.4614 129.941 50.8183 130.424C51.1752 130.907 51.3908 131.441 51.4652 132.026C51.5396 132.612 51.458 133.188 51.2204 133.756C51.0447 134.176 50.8003 134.541 50.4871 134.851C50.174 135.162 49.8152 135.401 49.411 135.57C49.005 135.743 48.5759 135.832 48.1235 135.835C47.6712 135.838 47.2172 135.744 46.7615 135.554C46.1499 135.298 45.6657 134.928 45.3088 134.445C44.9519 133.962 44.7363 133.428 44.6619 132.843C44.5875 132.257 44.6691 131.681 44.9067 131.113C45.0823 130.693 45.3268 130.328 45.6399 130.018C45.9531 129.707 46.3118 129.468 46.7161 129.298C47.1204 129.129 47.5495 129.041 48.0035 129.034C48.4559 129.031 48.9119 129.125 49.3716 129.318ZM48.955 130.313C48.5592 130.147 48.1735 130.087 47.7978 130.132C47.4164 130.179 47.0716 130.323 46.7636 130.566C46.4538 130.812 46.2086 131.151 46.0279 131.582C45.8455 132.018 45.7762 132.431 45.8199 132.82C45.8579 133.212 45.9949 133.558 46.2307 133.859C46.4666 134.159 46.7824 134.393 47.1781 134.558C47.5738 134.724 47.9616 134.785 48.3413 134.742C48.717 134.697 49.0598 134.552 49.3695 134.306C49.6736 134.062 49.9168 133.722 50.0992 133.286C50.2799 132.855 50.3512 132.443 50.3132 132.051C50.2695 131.662 50.1305 131.315 49.8963 131.01C49.6605 130.709 49.3467 130.477 48.955 130.313Z" fill="white"/>
<path d="M43.0163 126.493L40.4293 131.183L42.3416 132.238L41.8518 133.126L36.9742 130.435L37.464 129.547L39.382 130.605L41.9691 125.916L43.0163 126.493Z" fill="white"/>
<path d="M37.996 123.175C38.537 123.551 38.9316 124.012 39.1796 124.559C39.4277 125.106 39.5269 125.673 39.4773 126.261C39.4277 126.849 39.2274 127.396 38.8765 127.901C38.6169 128.275 38.3016 128.581 37.9305 128.819C37.5593 129.058 37.1584 129.217 36.7277 129.298C36.2946 129.382 35.8565 129.379 35.4135 129.287C34.9704 129.196 34.546 129.009 34.1403 128.728C33.5957 128.35 33.1994 127.887 32.9513 127.34C32.7032 126.793 32.604 126.226 32.6536 125.638C32.7032 125.05 32.9035 124.503 33.2545 123.998C33.514 123.624 33.8293 123.318 34.2005 123.08C34.5716 122.842 34.9725 122.682 35.4032 122.601C35.8339 122.52 36.272 122.524 36.7175 122.612C37.1605 122.703 37.5867 122.891 37.996 123.175ZM37.3806 124.061C37.0282 123.817 36.6636 123.677 36.2868 123.642C35.904 123.608 35.5367 123.678 35.1848 123.85C34.8305 124.026 34.5198 124.306 34.2529 124.691C33.9835 125.079 33.8294 125.468 33.7908 125.858C33.7461 126.249 33.8077 126.616 33.9755 126.959C34.1433 127.303 34.4033 127.597 34.7557 127.841C35.1081 128.086 35.4744 128.227 35.8548 128.264C36.2316 128.299 36.5971 128.229 36.9515 128.053C37.2998 127.878 37.6087 127.596 37.8781 127.208C38.145 126.824 38.3008 126.436 38.3455 126.045C38.3841 125.655 38.3208 125.287 38.1555 124.94C37.9877 124.596 37.7294 124.304 37.3806 124.061Z" fill="white"/>
<path d="M34.4838 120.95L30.2662 125.723L29.3943 124.953L32.424 121.524L26.6177 122.5L25.848 121.82L30.0656 117.046L30.9376 117.816L27.8734 121.285L33.7385 120.291L34.4838 120.95ZM27.2849 124.651C27.6324 124.958 27.8717 125.302 28.0027 125.684C28.1338 126.066 28.1574 126.448 28.0737 126.831C27.987 127.217 27.7911 127.573 27.4858 127.898L26.7211 127.223C27.0152 126.916 27.1621 126.586 27.1618 126.233C27.1586 125.883 27.0059 125.575 26.7039 125.308C26.4019 125.041 26.0788 124.929 25.7345 124.972C25.3841 125.015 25.0765 125.203 24.8115 125.536L24.0419 124.856C24.328 124.519 24.659 124.285 25.0346 124.154C25.407 124.021 25.7908 123.995 26.1858 124.078C26.5808 124.161 26.9472 124.352 27.2849 124.651Z" fill="white"/>
<path d="M27.1589 114.132L22.2349 118.173L18.5319 113.661L23.4559 109.62L24.2147 110.544L20.0745 113.942L22.26 116.605L26.4002 113.207L27.1589 114.132Z" fill="white"/>
<path d="M21.7033 106.745C21.9508 107.122 22.0974 107.495 22.143 107.864C22.1886 108.233 22.1364 108.576 21.9865 108.892C21.8329 109.211 21.5841 109.483 21.2401 109.709C20.9576 109.895 20.6529 109.991 20.3259 109.999C19.9953 110.009 19.6517 109.908 19.2949 109.696C18.9345 109.487 18.566 109.151 18.1893 108.688C17.809 108.228 17.4242 107.623 17.035 106.872L17.7505 106.363C18.035 106.954 18.3112 107.434 18.5792 107.802C18.8436 108.173 19.0965 108.447 19.3381 108.626C19.5761 108.806 19.8026 108.907 20.0176 108.926C20.2266 108.944 20.418 108.896 20.5918 108.782C20.8707 108.599 21.0243 108.355 21.0528 108.051C21.0753 107.746 20.9711 107.418 20.7403 107.067C20.5428 106.766 20.3124 106.534 20.049 106.37C19.7797 106.205 19.5021 106.117 19.2161 106.108C18.9241 106.098 18.6477 106.178 18.387 106.35L16.8985 107.328C16.6487 107.492 16.4683 107.691 16.3573 107.924C16.244 108.154 16.2069 108.41 16.2459 108.69C16.2848 108.97 16.4067 109.266 16.6113 109.577C16.7945 109.856 17.0182 110.106 17.2824 110.327C17.5465 110.547 17.856 110.722 18.2109 110.852L17.6394 111.663C17.1983 111.481 16.8171 111.244 16.4958 110.952C16.1744 110.66 15.9078 110.353 15.6961 110.031C15.3748 109.542 15.179 109.075 15.1087 108.628C15.0347 108.184 15.0922 107.771 15.281 107.387C15.4699 107.004 15.7943 106.661 16.2542 106.359L19.72 104.082L20.3232 105L19.6713 105.428C20.0571 105.439 20.4276 105.561 20.783 105.794C21.1348 106.03 21.4416 106.347 21.7033 106.745Z" fill="white"/>
<path d="M21.2573 101.286L13.1322 105.384L12.6375 104.403L13.4906 103.973C13.0698 103.889 12.6749 103.717 12.3057 103.457C11.9308 103.194 11.6058 102.79 11.3306 102.245C11.0458 101.68 10.9285 101.116 10.9789 100.551C11.0254 99.9892 11.2164 99.4731 11.552 99.0029C11.8856 98.5289 12.3368 98.1485 12.9056 97.8617C13.3196 97.6529 13.7455 97.5254 14.1833 97.4793C14.6153 97.4313 15.0349 97.4648 15.4423 97.5796C15.8458 97.6965 16.2157 97.8909 16.5519 98.163C16.8822 98.4332 17.1557 98.783 17.3723 99.2125C17.6143 99.6922 17.737 100.157 17.7405 100.606C17.7382 101.054 17.6505 101.472 17.4774 101.86L20.7217 100.224L21.2573 101.286ZM16.4997 99.8782C16.3065 99.4952 16.0526 99.1986 15.7379 98.9885C15.4174 98.7764 15.0624 98.6643 14.6728 98.652C14.2774 98.6379 13.8708 98.7362 13.4529 98.9469C13.0312 99.1596 12.7104 99.4282 12.4906 99.7526C12.265 100.075 12.1441 100.427 12.128 100.809C12.1099 101.187 12.1975 101.568 12.3906 101.951C12.5838 102.334 12.8387 102.632 13.1554 102.846C13.47 103.056 13.8251 103.168 14.2204 103.183C14.612 103.199 15.0186 103.1 15.4403 102.888C15.8582 102.677 16.179 102.408 16.4026 102.082C16.6224 101.758 16.7433 101.405 16.7652 101.026C16.7814 100.644 16.6928 100.261 16.4997 99.8782Z" fill="white"/>
<path d="M14.8869 93.8445L9.84456 95.6505L10.581 97.7066L9.6264 98.0486L7.74801 92.8043L8.70263 92.4624L9.44127 94.5246L14.4836 92.7185L14.8869 93.8445Z" fill="white"/>
<path d="M13.4919 89.8978L7.29024 91.3527L7.01707 90.1883L9.45975 89.6152L8.67142 86.255L6.22874 86.828L5.95557 85.6636L12.1572 84.2087L12.4304 85.3731L9.65862 86.0234L10.4469 89.3836L13.2187 88.7334L13.4919 89.8978Z" fill="white"/>
<path d="M11.741 79.9207C11.8241 80.5916 11.7576 81.2002 11.5415 81.7466C11.3254 82.293 10.9858 82.7412 10.5227 83.0911C10.0553 83.4416 9.48825 83.6582 8.82168 83.7408C8.34004 83.8005 7.88266 83.7742 7.44957 83.662C7.01594 83.5454 6.63022 83.3574 6.29241 83.098C5.95407 82.8343 5.67626 82.5129 5.45897 82.1337C5.24115 81.7503 5.10292 81.322 5.04429 80.849C4.98086 80.3372 5.01467 79.8702 5.14572 79.4479C5.27623 79.0212 5.48865 78.6565 5.78297 78.3537C6.07245 78.0471 6.42932 77.8085 6.85357 77.638C7.27352 77.4681 7.74364 77.3858 8.26392 77.3912L8.90194 82.5388C9.32498 82.4995 9.68416 82.3676 9.97947 82.1432C10.2705 81.9194 10.4826 81.6224 10.6157 81.2522C10.7483 80.8777 10.7848 80.4497 10.7251 79.968C10.6814 79.6154 10.5828 79.2783 10.4294 78.9567C10.276 78.6351 10.0737 78.3589 9.8224 78.1281L10.6438 77.5154C10.8371 77.701 11.0115 77.9283 11.1671 78.1972C11.3179 78.4623 11.4423 78.7438 11.5403 79.0417C11.6384 79.3396 11.7053 79.6326 11.741 79.9207ZM7.97151 82.5886L7.48859 78.6924C6.95747 78.7757 6.563 78.9927 6.30518 79.3434C6.04306 79.6947 5.94825 80.1627 6.02074 80.7476C6.0911 81.3152 6.29971 81.7653 6.64658 82.0979C6.98915 82.4309 7.43079 82.5945 7.97151 82.5886Z" fill="white"/>
<path d="M13.8735 75.7787L4.77416 75.884L4.76144 74.7856L5.71687 74.7746C5.37583 74.5142 5.09685 74.1859 4.87991 73.7897C4.65859 73.3892 4.5444 72.8835 4.53732 72.2725C4.52999 71.6399 4.67304 71.0814 4.96645 70.597C5.25552 70.1126 5.65416 69.7331 6.16234 69.4585C6.67048 69.1796 7.24303 69.0365 7.87999 69.0291C8.34362 69.0238 8.78216 69.0967 9.19561 69.2479C9.60467 69.3948 9.96685 69.6095 10.2821 69.8919C10.5931 70.1743 10.8397 70.5116 11.0219 70.9039C11.1997 71.2918 11.2914 71.7263 11.297 72.2073C11.3032 72.7446 11.209 73.2159 11.0144 73.6211C10.8153 74.0221 10.5527 74.3589 10.2265 74.6313L13.8598 74.5892L13.8735 75.7787ZM10.2204 72.4212C10.2155 71.9923 10.1179 71.6142 9.92777 71.2871C9.73325 70.9556 9.46376 70.6987 9.11929 70.5164C8.77044 70.3297 8.36203 70.2391 7.89406 70.2445C7.42176 70.25 7.01556 70.3501 6.67546 70.5447C6.33097 70.735 6.0675 70.9981 5.88504 71.3339C5.70253 71.6653 5.61376 72.0456 5.61873 72.4745C5.6237 72.9035 5.72128 73.2837 5.91146 73.6152C6.1016 73.9424 6.37109 74.1993 6.71994 74.3859C7.06446 74.5726 7.47287 74.6632 7.94517 74.6577C8.41314 74.6523 8.81934 74.5523 9.16378 74.3576C9.50388 74.163 9.76735 73.8999 9.95419 73.5684C10.1366 73.2326 10.2254 72.8502 10.2204 72.4212Z" fill="white"/>
<path d="M11.7238 63.8418L3.9686 62.6986L4.51152 65.2556L3.53265 65.4333L2.68173 61.4445L2.695 61.3545L11.8906 62.71L11.7238 63.8418Z" fill="white"/>
<path d="M13.465 56.3772C13.2225 57.2857 12.8218 58.0309 12.2628 58.6128C11.7008 59.1893 11.0262 59.5744 10.2389 59.7679C9.44867 59.9561 8.59299 59.9273 7.67191 59.6814C7.00621 59.5037 6.42456 59.2296 5.92695 58.8591C5.42516 58.4875 5.02331 58.0438 4.72141 57.5282C4.41952 57.0125 4.22928 56.4482 4.15071 55.8352C4.07326 55.218 4.12227 54.5808 4.29772 53.9235C4.47094 53.2745 4.70401 52.729 4.99693 52.2869C5.28566 51.8437 5.6256 51.486 6.01673 51.2136L6.81623 52.0998C6.48485 52.3163 6.20607 52.5962 5.97988 52.9395C5.7537 53.2828 5.57971 53.6826 5.45789 54.139C5.32043 54.6539 5.27538 55.142 5.32272 55.6031C5.37006 56.0643 5.50478 56.4837 5.72688 56.8614C5.94591 57.2338 6.24562 57.556 6.62602 57.828C7.00641 58.1 7.46037 58.3064 7.9879 58.4472C8.7164 58.6416 9.37557 58.6673 9.96541 58.5243C10.5564 58.377 11.0572 58.0802 11.4679 57.6336C11.8745 57.186 12.1722 56.6084 12.361 55.9009C12.4828 55.4445 12.5326 54.9891 12.5104 54.5347C12.4851 54.0749 12.3667 53.6195 12.1553 53.1684L13.3076 52.8839C13.5316 53.4057 13.6579 53.9574 13.6865 54.5391C13.7121 55.1156 13.6382 55.7282 13.465 56.3772Z" fill="white"/>
<path d="M11.6718 50.9197L10.7009 50.547L11.9213 47.3672L12.8923 47.7398L11.6718 50.9197Z" fill="white"/>
<path d="M16.5629 47.0769L8.45293 42.949L10.9768 37.9904L11.95 38.4857L9.98043 42.3553L12.4076 43.5907L13.2008 42.0324C13.6371 41.1751 14.1888 40.588 14.8558 40.271C15.5209 39.9483 16.2377 39.9825 17.0062 40.3737C17.5121 40.6312 17.8828 40.9633 18.1183 41.37C18.3518 41.7709 18.4522 42.2329 18.4194 42.7559C18.3847 43.2731 18.213 43.8348 17.9044 44.4411L16.5629 47.0769ZM16.2251 45.5337L17.0035 44.0044C17.2924 43.4367 17.391 42.9375 17.2991 42.5066C17.2072 42.0757 16.9257 41.7403 16.4546 41.5005C16.0027 41.2705 15.5649 41.2422 15.1412 41.4155C14.7156 41.583 14.3662 41.9352 14.093 42.472L13.2939 44.0418L16.2251 45.5337Z" fill="white"/>
<path d="M20.0086 40.5081L14.7632 36.894L15.4233 35.9359L19.1915 38.5322L17.5254 32.885L18.1081 32.0393L23.3535 35.6534L22.6934 36.6115L18.8824 33.9857L20.5729 39.6892L20.0086 40.5081Z" fill="white"/>
<path d="M25.8676 32.5997L21.8026 29.1123L20.3805 30.7699L19.6109 30.1096L23.238 25.8818L24.0076 26.5421L22.5813 28.2046L26.6464 31.692L25.8676 32.5997Z" fill="white"/>
<path d="M30.672 31.2857L24.524 24.5767L25.3339 23.8345L25.9794 24.539C25.9459 24.1112 26.0044 23.6843 26.1549 23.2584C26.3056 22.8264 26.6062 22.404 27.0567 21.9912C27.5231 21.5638 28.0347 21.2978 28.5913 21.1933C29.145 21.0856 29.6936 21.1294 30.2371 21.3249C30.7839 21.5174 31.2724 21.8485 31.7028 22.3182C32.0161 22.66 32.2542 23.0354 32.4174 23.4443C32.5807 23.8471 32.6624 24.2601 32.6623 24.6833C32.6593 25.1034 32.5725 25.5121 32.4018 25.9095C32.2314 26.3008 31.9689 26.6589 31.6142 26.9839C31.2181 27.3469 30.8041 27.5911 30.3723 27.7164C29.9408 27.8356 29.5148 27.8645 29.0942 27.8032L31.549 30.4821L30.672 31.2857ZM30.7367 26.3245C31.053 26.0347 31.2696 25.7098 31.3865 25.3499C31.5037 24.9839 31.5153 24.6118 31.4214 24.2335C31.3278 23.8491 31.1228 23.4844 30.8067 23.1394C30.4875 22.7911 30.1421 22.5552 29.7702 22.4317C29.3986 22.302 29.0269 22.2812 28.655 22.3692C28.2863 22.4543 27.9438 22.6418 27.6275 22.9317C27.3112 23.2215 27.093 23.5478 26.9729 23.9106C26.856 24.2705 26.8444 24.6426 26.938 25.027C27.0287 25.4082 27.2337 25.773 27.5528 26.1212C27.869 26.4662 28.2144 26.7021 28.5892 26.8289C28.9611 26.9525 29.3328 26.9733 29.7044 26.8914C30.0763 26.8033 30.4204 26.6144 30.7367 26.3245Z" fill="white"/>
<path d="M34.5711 24.1189L30.9187 18.9L31.872 18.2328L34.4958 21.9819L34.9075 16.1085L35.7489 15.5196L39.4013 20.7385L38.448 21.4056L35.7945 17.614L35.3859 23.5486L34.5711 24.1189Z" fill="white"/>
<path d="M44.3796 17.885L40.8466 15.9605L41.0891 12.4262L42.2137 11.8004L41.9484 15.2805L45.6405 17.1833L44.3796 17.885ZM40.648 19.9615L37.5506 14.3952L38.5957 13.8137L39.8157 16.0061L41.4799 15.08L41.9729 15.9661L40.3087 16.8921L41.693 19.3799L40.648 19.9615Z" fill="white"/>
<path d="M49.3686 15.8114C48.752 16.0777 48.1465 16.1786 47.5523 16.1142C46.9581 16.0498 46.4253 15.8433 45.9538 15.4947C45.4805 15.142 45.116 14.6693 44.86 14.0766C44.6659 13.627 44.5668 13.1789 44.5627 12.7323C44.5627 12.2839 44.6497 11.8569 44.8238 11.4513C44.998 11.0457 45.2494 10.6823 45.5779 10.361C45.9088 10.0341 46.3089 9.7693 46.7783 9.5666C47.1603 9.40169 47.5338 9.29939 47.899 9.2597C48.2642 9.22002 48.6287 9.24435 48.9925 9.33269L48.7975 10.4223C48.5515 10.3444 48.2928 10.3192 48.0214 10.3467C47.7484 10.3702 47.4786 10.4395 47.212 10.5546C46.7744 10.7436 46.4306 10.9912 46.1805 11.2974C45.9326 11.5979 45.7891 11.9431 45.7497 12.333C45.7104 12.7229 45.7861 13.1386 45.9767 13.5802C46.2636 14.2446 46.6796 14.6833 47.2247 14.8963C47.7721 15.1036 48.374 15.0656 49.0304 14.7822C49.3327 14.6516 49.592 14.4759 49.8082 14.2551C50.0227 14.0304 50.1757 13.7944 50.2672 13.5472L51.1948 14.1379C50.9881 14.5009 50.731 14.829 50.4234 15.1223C50.114 15.4116 49.7625 15.6413 49.3686 15.8114Z" fill="white"/>
<path d="M74.4644 11.2862C73.802 11.2581 73.1996 11.1436 72.6573 10.9427C72.115 10.7419 71.6496 10.4684 71.2609 10.1222L71.92 9.15484C72.2153 9.45364 72.5825 9.6926 73.0216 9.87173C73.4607 10.0509 73.9314 10.1511 74.4336 10.1724C74.9012 10.1923 75.3089 10.1424 75.6566 10.0227C76.0045 9.89868 76.2768 9.71723 76.4734 9.47837C76.6701 9.2395 76.7776 8.95347 76.7961 8.62029C76.8186 8.0921 76.6646 7.68436 76.3341 7.39708C76.008 7.10998 75.4834 6.95108 74.7604 6.92036L73.0005 6.84561L73.0438 5.82603L74.7063 5.89665C75.096 5.9132 75.4362 5.86693 75.7271 5.75784C76.0224 5.64894 76.2527 5.48523 76.4181 5.26672C76.588 5.04407 76.6797 4.77472 76.6931 4.45867C76.7062 4.15128 76.6393 3.8882 76.4925 3.66944C76.3458 3.44635 76.1254 3.27434 75.8313 3.15341C75.5416 3.02834 75.189 2.95698 74.7734 2.93933C74.3318 2.92057 73.9111 2.9721 73.5112 3.0939C73.1113 3.21571 72.7587 3.40024 72.4532 3.6475L71.8876 2.71916C72.2741 2.40161 72.7309 2.16512 73.258 2.00968C73.7852 1.84991 74.3476 1.78272 74.9451 1.80809C75.5772 1.83494 76.1185 1.95553 76.5692 2.16984C77.0243 2.38002 77.3676 2.67218 77.5989 3.04633C77.8347 3.41634 77.9421 3.85029 77.9209 4.34817C77.9084 4.64257 77.8249 4.92528 77.6702 5.1963C77.5156 5.46731 77.3213 5.70194 77.0873 5.90019C76.8577 6.09863 76.6218 6.24041 76.3796 6.32554C76.8797 6.49859 77.2902 6.79144 77.611 7.20409C77.9317 7.61674 78.077 8.1282 78.0467 8.73847C78.0214 9.23184 77.8551 9.67585 77.5478 10.0705C77.2404 10.4651 76.8217 10.7748 76.2917 10.9995C75.7662 11.2201 75.1571 11.3157 74.4644 11.2862Z" fill="white"/>
<path d="M81.5627 11.9104C80.9118 11.8093 80.3552 11.5672 79.8928 11.1841C79.4305 10.801 79.0929 10.3341 78.8802 9.78366C78.6675 9.23317 78.6083 8.6539 78.7027 8.04585C78.7725 7.59624 78.9221 7.18314 79.1516 6.80655C79.3811 6.42997 79.6718 6.11112 80.0237 5.85002C80.3762 5.58463 80.7717 5.39606 81.21 5.28432C81.6484 5.17257 82.1116 5.15459 82.5997 5.23038C83.2549 5.33209 83.8137 5.57452 84.276 5.95765C84.7384 6.34078 85.0759 6.80759 85.2887 7.35808C85.5014 7.90857 85.5606 8.48783 85.4662 9.09588C85.3964 9.5455 85.2467 9.9586 85.0172 10.3352C84.7877 10.7118 84.497 11.0306 84.1452 11.2917C83.7933 11.5528 83.3978 11.7414 82.9588 11.8574C82.5205 11.9692 82.0551 11.9868 81.5627 11.9104ZM81.7282 10.8441C82.1521 10.9099 82.5411 10.876 82.8951 10.7424C83.2541 10.6052 83.554 10.3821 83.795 10.0731C84.0366 9.75976 84.1933 9.37187 84.2651 8.90941C84.3375 8.44267 84.3058 8.02553 84.1699 7.658C84.039 7.28685 83.8229 6.98362 83.5218 6.7483C83.2207 6.51299 82.8581 6.36242 82.4342 6.29661C82.0103 6.23079 81.6192 6.26436 81.2609 6.3973C80.9069 6.5309 80.609 6.75436 80.3675 7.06767C80.1308 7.37736 79.9763 7.76558 79.9038 8.23233C79.832 8.69479 79.8616 9.11159 79.9925 9.48274C80.1284 9.85027 80.3466 10.1538 80.6471 10.3934C80.9482 10.6287 81.3086 10.779 81.7282 10.8441Z" fill="white"/>
<path d="M85.343 12.372L85.2082 11.1956C85.6684 11.2053 86.0294 11.1181 86.2913 10.934C86.5544 10.7457 86.7734 10.4396 86.9484 10.0159C87.1233 9.59211 87.3074 9.02926 87.5005 8.32733L88.0297 6.40329L92.8743 7.73588L91.1848 13.8778L90.0317 13.5606L91.4522 8.39637L88.8513 7.68094L88.591 8.62729C88.4071 9.2958 88.2181 9.86852 88.024 10.3454C87.8352 10.8193 87.619 11.2048 87.3755 11.5019C87.1362 11.8001 86.8509 12.0205 86.5195 12.163C86.1935 12.3026 85.8013 12.3722 85.343 12.372Z" fill="white"/>
<path d="M95.1371 15.5325C94.5267 15.285 94.0403 14.9218 93.678 14.4429C93.3158 13.964 93.0942 13.4323 93.0132 12.8477C92.9323 12.2631 93.0074 11.6857 93.2386 11.1155C93.4096 10.6938 93.6499 10.326 93.9595 10.012C94.2692 9.69803 94.6252 9.45427 95.0276 9.28074C95.4316 9.10319 95.8597 9.01024 96.312 9.0019C96.7642 8.99356 97.2193 9.0822 97.6771 9.26781C98.2915 9.51693 98.7798 9.88092 99.1421 10.3598C99.5044 10.8387 99.726 11.3704 99.807 11.955C99.8879 12.5396 99.8128 13.117 99.5816 13.6872C99.4106 14.1089 99.1703 14.4767 98.8606 14.7907C98.551 15.1047 98.1949 15.3485 97.7926 15.522C97.3902 15.6955 96.9621 15.7885 96.5082 15.8008C96.0559 15.8092 95.5989 15.7197 95.1371 15.5325ZM95.5425 14.5325C95.9401 14.6937 96.3264 14.7499 96.7017 14.7009C97.0825 14.6496 97.4256 14.5011 97.7309 14.2555C98.0379 14.0059 98.2793 13.6642 98.4551 13.2305C98.6326 12.7928 98.6973 12.3795 98.6492 11.9906C98.6068 11.5993 98.466 11.2547 98.2268 10.9566C97.9876 10.6586 97.6692 10.4289 97.2716 10.2677C96.8741 10.1066 96.4857 10.0496 96.1065 10.0969C95.7312 10.1459 95.3902 10.2951 95.0832 10.5448C94.7819 10.792 94.5425 11.1345 94.365 11.5722C94.1892 12.0059 94.1225 12.4184 94.1649 12.8097C94.213 13.1986 94.3558 13.544 94.5934 13.8461C94.8326 14.1442 95.1489 14.373 95.5425 14.5325Z" fill="white"/>
<path d="M101.301 18.1568L103.819 13.4293L101.891 12.4028L102.367 11.5078L107.284 14.1261L106.808 15.0211L104.874 13.9915L102.357 18.719L101.301 18.1568Z" fill="white"/>
<path d="M106.494 21.4674C105.949 21.0977 105.549 20.6408 105.295 20.0967C105.041 19.5526 104.936 18.9863 104.979 18.3977C105.022 17.8091 105.216 17.2602 105.562 16.751C105.817 16.3744 106.129 16.065 106.498 15.8228C106.866 15.5805 107.265 15.4166 107.695 15.3311C108.127 15.242 108.565 15.2407 109.009 15.3272C109.453 15.4137 109.88 15.5956 110.289 15.8728C110.837 16.245 111.239 16.7031 111.493 17.2472C111.747 17.7913 111.852 18.3576 111.809 18.9462C111.766 19.5348 111.572 20.0837 111.226 20.5929C110.971 20.9695 110.659 21.2789 110.291 21.5211C109.922 21.7634 109.523 21.9273 109.093 22.0128C108.663 22.0983 108.225 22.0996 107.779 22.0167C107.335 21.9302 106.907 21.7471 106.494 21.4674ZM107.1 20.5744C107.455 20.8152 107.821 20.951 108.198 20.9816C108.581 21.0111 108.948 20.9377 109.298 20.7614C109.65 20.5816 109.958 20.298 110.22 19.9106C110.486 19.5197 110.635 19.1291 110.67 18.7388C110.71 18.3473 110.644 17.9808 110.473 17.6393C110.301 17.2978 110.038 17.0066 109.683 16.7658C109.328 16.525 108.96 16.3881 108.579 16.355C108.202 16.3243 107.837 16.3989 107.485 16.5788C107.139 16.7575 106.833 17.0423 106.568 17.4332C106.305 17.8206 106.154 18.21 106.113 18.6015C106.079 18.9918 106.146 19.3595 106.315 19.7046C106.487 20.0461 106.748 20.3361 107.1 20.5744Z" fill="white"/>
<path d="M109.937 23.5592L114.085 18.7245L114.968 19.4821L111.988 22.9552L117.78 21.8945L118.559 22.5633L114.412 27.3979L113.528 26.6403L116.542 23.1278L110.692 24.2067L109.937 23.5592ZM117.081 19.7538C116.729 19.4519 116.485 19.111 116.349 18.7312C116.212 18.3513 116.183 17.9694 116.261 17.5855C116.342 17.1982 116.533 16.8394 116.833 16.5092L117.608 17.1736C117.318 17.4847 117.176 17.8167 117.181 18.1696C117.19 18.5193 117.347 18.8254 117.653 19.0878C117.959 19.3502 118.283 19.4575 118.627 19.4097C118.977 19.3615 119.281 19.1691 119.542 18.8327L120.321 19.5014C120.04 19.8425 119.712 20.0811 119.339 20.2173C118.968 20.3562 118.585 20.3871 118.189 20.3098C117.792 20.2326 117.423 20.0472 117.081 19.7538Z" fill="white"/>
<path d="M117.522 30.4136L122.402 26.3189L126.154 30.7902L121.274 34.8849L120.505 33.9687L124.608 30.5258L122.394 27.8869L118.291 31.3297L117.522 30.4136Z" fill="white"/>
<path d="M123.093 37.7695C122.842 37.3956 122.691 37.0243 122.642 36.6555C122.592 36.2867 122.64 35.9434 122.787 35.6255C122.937 35.3051 123.183 35.0301 123.524 34.8002C123.804 34.6115 124.108 34.5117 124.435 34.5006C124.765 34.4872 125.11 34.5842 125.469 34.7918C125.832 34.997 126.204 35.3289 126.586 35.7875C126.971 36.2438 127.363 36.8448 127.76 37.5907L127.05 38.1075C126.759 37.5199 126.478 37.0434 126.206 36.678C125.937 36.3102 125.681 36.0384 125.438 35.8628C125.198 35.6848 124.97 35.5872 124.755 35.5701C124.546 35.5542 124.355 35.6043 124.182 35.7204C123.906 35.9067 123.755 36.1519 123.73 36.4561C123.71 36.7615 123.818 37.0885 124.053 37.4372C124.254 37.7356 124.487 37.9654 124.752 38.1265C125.023 38.2888 125.301 38.3729 125.588 38.3789C125.88 38.386 126.155 38.3025 126.414 38.1283L127.892 37.134C128.14 36.9671 128.318 36.7662 128.426 36.5314C128.537 36.3001 128.571 36.0446 128.529 35.7647C128.487 35.4849 128.362 35.1904 128.154 34.8812C127.968 34.6044 127.741 34.3572 127.475 34.1396C127.208 33.922 126.897 33.7503 126.54 33.6244L127.103 32.8071C127.546 32.9843 127.93 33.217 128.254 33.5052C128.579 33.7935 128.849 34.0976 129.064 34.4175C129.391 34.9029 129.592 35.3683 129.667 35.8139C129.746 36.257 129.693 36.6713 129.508 37.0567C129.324 37.4421 129.003 37.7884 128.546 38.0957L125.106 40.4109L124.493 39.4995L125.14 39.0641C124.754 39.0573 124.382 38.9393 124.024 38.7101C123.67 38.4785 123.36 38.1649 123.093 37.7695Z" fill="white"/>
<path d="M123.414 42.8685L131.477 38.6508L131.986 39.6242L131.14 40.067C131.562 40.1446 131.959 40.3108 132.332 40.5657C132.711 40.8223 133.042 41.2214 133.325 41.7628C133.618 42.3234 133.744 42.8861 133.702 43.4509C133.664 44.0137 133.48 44.5326 133.152 45.0077C132.825 45.4866 132.38 45.8736 131.815 46.1689C131.404 46.3838 130.981 46.5175 130.543 46.5701C130.112 46.6245 129.692 46.5973 129.283 46.4885C128.878 46.3776 128.505 46.1887 128.165 45.9216C127.831 45.6564 127.552 45.3106 127.329 44.8844C127.08 44.4083 126.95 43.9455 126.94 43.496C126.936 43.0483 127.017 42.6291 127.185 42.2384L123.965 43.9225L123.414 42.8685ZM128.192 44.2058C128.391 44.5859 128.649 44.8787 128.967 45.0842C129.29 45.2915 129.647 45.3983 130.037 45.4048C130.432 45.413 130.837 45.3087 131.252 45.0918C131.671 44.8729 131.987 44.5996 132.202 44.272C132.423 43.9462 132.539 43.5923 132.549 43.2103C132.562 42.8321 132.468 42.453 132.27 42.0728C132.071 41.6927 131.812 41.398 131.492 41.1887C131.174 40.9832 130.817 40.8763 130.422 40.868C130.03 40.8578 129.625 40.9621 129.206 41.181C128.792 41.3979 128.475 41.6712 128.256 42.0008C128.041 42.3284 127.926 42.6823 127.909 43.0625C127.899 43.4445 127.993 43.8256 128.192 44.2058Z" fill="white"/>
<path d="M129.931 50.2252L134.946 48.3436L134.179 46.2988L135.128 45.9426L137.085 51.1581L136.136 51.5143L135.366 49.4634L130.352 51.345L129.931 50.2252Z" fill="white"/>
<path d="M131.491 54.4154L137.675 52.8898L137.962 54.051L135.526 54.6519L136.352 58.0029L138.788 57.402L139.075 58.5632L132.89 60.0888L132.604 58.9276L135.368 58.2458L134.541 54.8947L131.777 55.5766L131.491 54.4154Z" fill="white"/>
<path d="M133.385 64.4696C133.295 63.7998 133.354 63.1904 133.564 62.6416C133.774 62.0927 134.108 61.6406 134.567 61.2854C135.03 60.9295 135.595 60.7064 136.261 60.6162C136.741 60.5509 137.199 60.5719 137.633 60.6792C138.068 60.7907 138.456 60.9742 138.797 61.2297C139.138 61.4895 139.42 61.8078 139.642 62.1844C139.864 62.5653 140.007 62.9919 140.071 63.4643C140.14 63.9752 140.112 64.4426 139.986 64.8665C139.86 65.2946 139.652 65.6617 139.361 65.9679C139.075 66.2778 138.721 66.5205 138.299 66.6958C137.881 66.8706 137.412 66.9583 136.891 66.9589L136.194 61.819C135.772 61.8632 135.414 61.9992 135.121 62.2269C134.833 62.4541 134.624 62.7535 134.495 63.1252C134.367 63.5012 134.335 63.9297 134.401 64.4106C134.448 64.7627 134.551 65.0987 134.708 65.4184C134.865 65.7382 135.071 66.0121 135.325 66.24L134.51 66.8621C134.315 66.6787 134.138 66.4535 133.979 66.1864C133.825 65.923 133.698 65.643 133.596 65.3463C133.495 65.0495 133.424 64.7573 133.385 64.4696ZM137.124 61.7585L137.652 65.6488C138.182 65.5594 138.574 65.3379 138.828 64.9842C139.086 64.63 139.175 64.1609 139.096 63.5769C139.019 63.0101 138.805 62.5624 138.454 62.2339C138.108 61.9048 137.665 61.7463 137.124 61.7585Z" fill="white"/>
<path d="M131.301 68.4725L140.399 68.2618L140.424 69.36L139.469 69.3821C139.813 69.6386 140.096 69.9636 140.317 70.3573C140.543 70.7551 140.663 71.2595 140.678 71.8703C140.692 72.5028 140.556 73.063 140.268 73.5508C139.984 74.0385 139.59 74.4225 139.085 74.703C138.58 74.9877 138.01 75.1375 137.373 75.1522C136.909 75.163 136.47 75.0951 136.055 74.9487C135.644 74.8065 135.279 74.5961 134.961 74.3174C134.647 74.0386 134.396 73.7041 134.209 73.314C134.027 72.9281 133.93 72.4947 133.919 72.0139C133.907 71.4767 133.995 71.0043 134.185 70.5968C134.38 70.1935 134.638 69.8538 134.961 69.5776L131.329 69.6617L131.301 68.4725ZM134.993 71.7874C135.003 72.2163 135.105 72.5932 135.299 72.9182C135.497 73.2473 135.77 73.5011 136.116 73.6794C136.467 73.862 136.877 73.9479 137.345 73.9371C137.817 73.9261 138.222 73.8214 138.56 73.6228C138.902 73.4285 139.162 73.1624 139.341 72.8245C139.519 72.491 139.604 72.1098 139.594 71.6809C139.584 71.252 139.482 70.8729 139.288 70.5436C139.094 70.2187 138.822 69.965 138.471 69.7824C138.124 69.5997 137.715 69.5138 137.242 69.5247C136.774 69.5356 136.369 69.6403 136.027 69.839C135.689 70.0375 135.429 70.3036 135.246 70.6373C135.068 70.9752 134.983 71.3585 134.993 71.7874Z" fill="white"/>
<path d="M133.599 80.544L141.367 81.5978L140.794 79.0472L141.771 78.8583L142.668 82.837L142.656 82.9272L133.445 81.6777L133.599 80.544Z" fill="white"/>
<path d="M132.054 87.6206C132.283 86.7085 132.672 85.9573 133.222 85.367C133.775 84.782 134.444 84.3868 135.228 84.1813C136.016 83.9811 136.872 83.9969 137.796 84.2287C138.465 84.3963 139.05 84.6615 139.554 85.0245C140.061 85.3885 140.47 85.8259 140.779 86.3369C141.089 86.8479 141.288 87.4093 141.376 88.021C141.462 88.637 141.423 89.2749 141.258 89.9348C141.094 90.5863 140.87 91.1353 140.583 91.5818C140.301 92.0293 139.967 92.3922 139.58 92.6704L138.767 91.7965C139.095 91.575 139.37 91.2909 139.591 90.9442C139.812 90.5975 139.979 90.1951 140.094 89.7369C140.224 89.2199 140.262 88.7313 140.207 88.2709C140.153 87.8105 140.012 87.3932 139.784 87.0189C139.559 86.6498 139.255 86.3322 138.87 86.0661C138.486 85.7999 138.029 85.6004 137.499 85.4677C136.768 85.2843 136.108 85.2686 135.521 85.4206C134.932 85.5768 134.436 85.8813 134.032 86.334C133.632 86.7877 133.343 87.3698 133.165 88.0801C133.05 88.5383 133.008 88.9944 133.037 89.4484C133.069 89.9077 133.194 90.3613 133.412 90.8092L132.265 91.1111C132.033 90.5928 131.898 90.043 131.861 89.4618C131.826 88.8859 131.891 88.2721 132.054 87.6206Z" fill="white"/>
<path d="M133.829 93.4215L134.804 93.7832L133.62 96.9766L132.645 96.6149L133.829 93.4215Z" fill="white"/>
<path d="M129.08 97.1505L137.235 101.188L134.767 106.174L133.788 105.69L135.715 101.799L133.274 100.59L132.498 102.157C132.071 103.019 131.526 103.613 130.863 103.937C130.201 104.267 129.484 104.241 128.711 103.858C128.203 103.606 127.828 103.278 127.588 102.874C127.35 102.476 127.245 102.015 127.272 101.492C127.301 100.974 127.466 100.411 127.768 99.8009L129.08 97.1505ZM129.435 98.6897L128.674 100.228C128.391 100.798 128.298 101.299 128.395 101.729C128.491 102.158 128.777 102.491 129.25 102.725C129.705 102.95 130.143 102.974 130.565 102.796C130.988 102.623 131.334 102.267 131.601 101.728L132.383 100.149L129.435 98.6897Z" fill="white"/>
<path d="M125.812 103.653L131.11 107.19L130.464 108.157L126.658 105.617L128.407 111.239L127.837 112.093L122.539 108.556L123.185 107.588L127.034 110.158L125.26 104.48L125.812 103.653Z" fill="white"/>
<path d="M120.045 111.716L124.16 115.144L125.558 113.466L126.337 114.115L122.772 118.395L121.993 117.746L123.395 116.063L119.28 112.635L120.045 111.716Z" fill="white"/>
<path d="M115.078 113.315L121.299 119.957L120.498 120.708L119.844 120.01C119.882 120.438 119.829 120.865 119.683 121.293C119.537 121.726 119.241 122.152 118.795 122.57C118.333 123.002 117.825 123.274 117.269 123.384C116.717 123.498 116.168 123.46 115.622 123.271C115.073 123.084 114.581 122.758 114.146 122.293C113.829 121.955 113.586 121.582 113.419 121.175C113.251 120.774 113.165 120.362 113.16 119.939C113.159 119.519 113.241 119.109 113.407 118.71C113.574 118.317 113.832 117.956 114.183 117.627C114.575 117.26 114.987 117.011 115.417 116.881C115.847 116.757 116.273 116.723 116.694 116.78L114.21 114.128L115.078 113.315ZM115.068 118.277C114.755 118.57 114.542 118.897 114.429 119.258C114.316 119.626 114.308 119.998 114.406 120.375C114.504 120.758 114.713 121.121 115.033 121.462C115.356 121.807 115.704 122.039 116.077 122.159C116.45 122.284 116.822 122.301 117.193 122.209C117.56 122.12 117.901 121.929 118.214 121.635C118.527 121.342 118.742 121.013 118.858 120.649C118.971 120.288 118.978 119.916 118.88 119.533C118.786 119.152 118.577 118.79 118.254 118.445C117.934 118.104 117.586 117.872 117.21 117.749C116.837 117.629 116.465 117.613 116.094 117.699C115.723 117.791 115.381 117.983 115.068 118.277Z" fill="white"/>
<path d="M111.44 120.394L115.168 125.559L114.225 126.24L111.546 122.53L111.221 128.409L110.388 129.01L106.66 123.845L107.603 123.164L110.312 126.916L110.633 120.976L111.44 120.394Z" fill="white"/>
<path d="M101.571 126.864L105.125 128.749L104.922 132.286L103.804 132.924L104.031 129.441L100.318 127.579L101.571 126.864ZM105.28 124.746L108.439 130.278L107.4 130.871L106.156 128.692L104.502 129.637L103.999 128.756L105.653 127.812L104.241 125.339L105.28 124.746Z" fill="white"/>
<path d="M96.7875 128.932C97.4001 128.656 98.004 128.546 98.5991 128.602C99.1942 128.657 99.7301 128.856 100.207 129.197C100.685 129.543 101.057 130.01 101.322 130.599C101.522 131.046 101.628 131.492 101.639 131.939C101.646 132.387 101.565 132.815 101.397 133.224C101.229 133.632 100.983 133.999 100.659 134.325C100.333 134.657 99.937 134.927 99.4706 135.137C99.0912 135.308 98.7192 135.416 98.3547 135.461C97.9901 135.506 97.6253 135.487 97.2602 135.404L97.439 134.312C97.6861 134.386 97.9451 134.407 98.216 134.376C98.4887 134.348 98.7574 134.275 99.0222 134.156C99.457 133.96 99.7971 133.708 100.043 133.398C100.286 133.093 100.424 132.746 100.458 132.356C100.491 131.965 100.41 131.551 100.212 131.112C99.9156 130.452 99.4931 130.02 98.9449 129.815C98.3944 129.616 97.7932 129.663 97.1411 129.956C96.8407 130.091 96.5841 130.27 96.3712 130.494C96.1601 130.722 96.0107 130.96 95.9229 131.209L94.9865 130.632C95.1878 130.266 95.44 129.934 95.7432 129.636C96.0481 129.342 96.3963 129.108 96.7875 128.932Z" fill="white"/>
<circle cx="61.2043" cy="7.94385" r="3" transform="rotate(90 61.2043 7.94385)" fill="white"/>
<circle cx="86.2043" cy="135.944" r="3" transform="rotate(90 86.2043 135.944)" fill="white"/>
</svg>
