<svg width="150" height="141" viewBox="0 0 150 141" fill="none" xmlns="http://www.w3.org/2000/svg">
<path d="M13.544 58.2034C13.298 59.111 12.8944 59.8546 12.3333 60.4344C11.769 61.0088 11.093 61.3913 10.305 61.5818C9.51405 61.767 8.65848 61.735 7.73834 61.4856C7.07332 61.3054 6.49272 61.0291 5.99652 60.6567C5.49614 60.2831 5.09598 59.838 4.79604 59.3212C4.4961 58.8044 4.30801 58.2394 4.23177 57.6261C4.15666 57.0086 4.20808 56.3715 4.38602 55.7149C4.56171 55.0666 4.79684 54.522 5.09144 54.081C5.38185 53.6389 5.72314 53.2824 6.1153 53.0116L6.91144 53.9008C6.57924 54.1161 6.29939 54.3949 6.07191 54.7373C5.84443 55.0797 5.66891 55.4789 5.54537 55.9348C5.40596 56.4492 5.35905 56.9371 5.40464 57.3984C5.45023 57.8597 5.58336 58.2797 5.80403 58.6583C6.02164 59.0315 6.32013 59.3548 6.69949 59.6282C7.07885 59.9016 7.53203 60.1098 8.05902 60.2526C8.78677 60.4498 9.44584 60.478 10.0362 60.3372C10.6277 60.1922 11.1297 59.8972 11.5421 59.4522C11.9503 59.0062 12.2502 58.4297 12.4418 57.7229C12.5653 57.267 12.6168 56.8118 12.5963 56.3572C12.5728 55.8974 12.4561 55.4415 12.2464 54.9896L13.3998 54.7095C13.6218 55.2321 13.746 55.7843 13.7724 56.3662C13.7958 56.9427 13.7196 57.5551 13.544 58.2034Z" fill="white"/>
<path d="M16.0675 50.8709C15.8064 51.4945 15.4465 51.9898 14.9875 52.3567C14.5286 52.7236 14.0113 52.9439 13.4355 53.0177C12.8557 53.0897 12.256 52.9961 11.6364 52.7368C11.1887 52.5494 10.8048 52.2994 10.4846 51.9869C10.1661 51.6704 9.92472 51.3157 9.76036 50.9227C9.59767 50.5258 9.51618 50.1088 9.51588 49.6718C9.51726 49.2308 9.60998 48.7905 9.79402 48.3508C9.99313 47.8751 10.2544 47.4865 10.5779 47.1851C10.9031 46.8796 11.2686 46.6685 11.6744 46.5518C12.078 46.4295 12.5062 46.3997 12.9591 46.4624C13.408 46.5235 13.8569 46.6855 14.3058 46.9486L12.3031 51.7333C12.6898 51.9093 13.067 51.9733 13.4347 51.9252C13.7985 51.8754 14.1301 51.723 14.4295 51.4678C14.7306 51.2086 14.9748 50.8552 15.1622 50.4075C15.2994 50.0797 15.3813 49.7382 15.4079 49.3829C15.4344 49.0276 15.396 48.6874 15.2925 48.3622L16.3097 48.2383C16.3853 48.4955 16.4238 48.7793 16.4253 49.09C16.4245 49.395 16.3927 49.7011 16.3298 50.0084C16.267 50.3156 16.1796 50.6031 16.0675 50.8709ZM11.4707 51.3145L12.9866 47.693C12.4842 47.5015 12.0341 47.4939 11.6361 47.6703C11.2342 47.8449 10.9194 48.2041 10.6919 48.7477C10.471 49.2754 10.4286 49.7696 10.5645 50.2305C10.6964 50.6897 10.9985 51.0511 11.4707 51.3145Z" fill="white"/>
<path d="M20.5367 47.1405L12.6343 42.628L13.1791 41.6741L14.0088 42.1479C13.8464 41.7507 13.7718 41.3264 13.7851 40.8749C13.7968 40.4175 13.9541 39.9235 14.2571 39.393C14.5709 38.8436 14.9768 38.4341 15.475 38.1647C15.9694 37.8931 16.5052 37.7675 17.0825 37.7877C17.6619 37.8042 18.2282 37.9704 18.7813 38.2863C19.184 38.5162 19.5254 38.801 19.8055 39.1406C20.084 39.4743 20.2878 39.8427 20.4169 40.2457C20.5423 40.6467 20.5843 41.0624 20.5431 41.4929C20.5002 41.9175 20.3595 42.3387 20.121 42.7564C19.8545 43.223 19.5348 43.5819 19.1619 43.833C18.7873 44.0782 18.3905 44.2358 17.9712 44.3058L21.1265 46.1076L20.5367 47.1405ZM19.0841 42.3963C19.2968 42.0238 19.4039 41.6483 19.4054 41.2699C19.4053 40.8856 19.3028 40.5277 19.0979 40.1961C18.8914 39.8587 18.585 39.5739 18.1786 39.3418C17.7684 39.1076 17.3674 38.9884 16.9756 38.9842C16.5822 38.9741 16.2218 39.0677 15.8945 39.2651C15.5694 39.4587 15.3005 39.7417 15.0877 40.1143C14.875 40.4868 14.7668 40.8642 14.7632 41.2463C14.7617 41.6247 14.8642 41.9826 15.0707 42.3201C15.2734 42.6554 15.5798 42.9402 15.99 43.1744C16.3964 43.4065 16.7974 43.5257 17.193 43.5321C17.5848 43.5362 17.9452 43.4426 18.2741 43.2512C18.6013 43.0538 18.8713 42.7689 19.0841 42.3963Z" fill="white"/>
<path d="M23.3855 37.4814L19.0657 34.315L17.7745 36.0764L16.9567 35.4769L20.25 30.9842L21.0678 31.5837L19.7728 33.3504L24.0925 36.5168L23.3855 37.4814Z" fill="white"/>
<path d="M26.074 33.9664L21.3933 29.6457L22.1825 28.7907L25.5449 31.8946L24.6956 26.0683L25.3922 25.3137L30.0728 29.6344L29.2836 30.4893L25.883 27.3502L26.7485 33.2356L26.074 33.9664Z" fill="white"/>
<path d="M35.3913 28.5543L27.7214 19.2086L28.6459 18.4499L36.3158 27.7955L35.3913 28.5543ZM34.2238 26.1993C33.5573 26.7464 32.888 27.1331 32.216 27.3594C31.5447 27.5796 30.9069 27.6154 30.3027 27.4666C29.7018 27.315 29.1691 26.9562 28.7045 26.3901C28.2372 25.8207 27.9895 25.2251 27.9614 24.6035C27.9333 23.9819 28.0958 23.3636 28.4489 22.7487C28.8019 22.1338 29.3134 21.5515 29.9834 21.0016C30.6567 20.4491 31.3276 20.061 31.9962 19.8374C32.6681 19.6111 33.3046 19.5737 33.9054 19.7253C34.5096 19.8741 35.0454 20.2332 35.5128 20.8026C35.8619 21.228 36.086 21.6719 36.1852 22.1343C36.285 22.5906 36.2718 23.0527 36.1457 23.5206C36.0195 23.9885 35.7925 24.4495 35.4645 24.9037C35.1398 25.3551 34.7263 25.787 34.2238 26.1993ZM33.5956 25.4031C34.1048 24.9853 34.4886 24.5582 34.7471 24.1218C35.0056 23.6854 35.1237 23.2521 35.1014 22.8219C35.0791 22.3918 34.9031 21.9757 34.5732 21.5737C34.2405 21.1684 33.8621 20.9156 33.4378 20.8154C33.0169 20.7123 32.5656 20.7464 32.0838 20.9175C31.602 21.0887 31.1099 21.3805 30.6075 21.7928C30.105 22.2052 29.7245 22.6296 29.466 23.0659C29.2109 23.4996 29.0911 23.9342 29.1067 24.3699C29.1256 24.8028 29.3014 25.2219 29.6341 25.6272C29.9639 26.0292 30.3393 26.2817 30.7602 26.3847C31.1845 26.485 31.6358 26.451 32.1143 26.2825C32.596 26.1114 33.0898 25.8182 33.5956 25.4031Z" fill="white"/>
<path d="M39.2333 22.1481L35.913 16.7119L36.906 16.1054L39.2911 20.0106L40.0679 14.1742L40.9443 13.6389L44.2646 19.0752L43.2716 19.6816L40.8594 15.732L40.082 21.6297L39.2333 22.1481Z" fill="white"/>
<path d="M46.5718 17.8864L43.9814 12.0669L45.074 11.5806L47.2521 16.4737L50.2866 15.123L48.1085 10.2298L49.2011 9.74346L51.7916 15.563L46.5718 17.8864ZM53.0537 17.1356L52.2607 15.3541L51.1977 15.8273L50.7854 14.9009L52.8519 13.9811L54.0573 16.6889L53.0537 17.1356Z" fill="white"/>
<path d="M54.0953 14.7258L52.2898 8.61704L53.4056 8.28727L54.7026 12.6756L56.9587 7.23716L57.9436 6.94608L59.749 13.0549L58.6332 13.3846L57.3215 8.94642L55.049 14.444L54.0953 14.7258Z" fill="white"/>
<path d="M62.8883 15.1776L61.4578 6.19078L62.5427 6.01809L62.6929 6.96172C62.9008 6.58636 63.1849 6.26251 63.5453 5.99014C63.9092 5.71282 64.3928 5.52614 64.9963 5.43009C65.6211 5.33063 66.1945 5.39074 66.7165 5.61041C67.2378 5.8258 67.6714 6.16487 68.0171 6.62761C68.367 7.08967 68.5921 7.63524 68.6922 8.26432C68.7651 8.72222 68.7569 9.16671 68.6676 9.59778C68.5818 10.0239 68.4222 10.4135 68.1888 10.7666C67.9548 11.1154 67.657 11.4085 67.2955 11.6459C66.9376 11.8784 66.5211 12.0325 66.0461 12.1081C65.5154 12.1926 65.0354 12.168 64.6061 12.0345C64.1804 11.8961 63.809 11.6853 63.4919 11.4023L64.0631 14.9907L62.8883 15.1776ZM65.6775 11.0742C66.1011 11.0067 66.4609 10.8551 66.7569 10.6193C67.0564 10.3786 67.2713 10.0745 67.4015 9.70716C67.5353 9.33483 67.5654 8.91758 67.4919 8.4554C67.4176 7.98893 67.2594 7.60165 67.0173 7.29355C66.7788 6.98048 66.4801 6.75817 66.1213 6.6266C65.7668 6.49436 65.3777 6.46195 64.954 6.52939C64.5304 6.59683 64.1684 6.74878 63.8682 6.98525C63.5723 7.22104 63.3574 7.5251 63.2236 7.89743C63.0891 8.26547 63.059 8.68273 63.1332 9.14919C63.2068 9.61137 63.365 9.99866 63.6078 10.311C63.8499 10.6191 64.1485 10.8415 64.5038 10.978C64.8626 11.1095 65.2538 11.1416 65.6775 11.0742Z" fill="white"/>
<path d="M73.3169 11.5168C72.6585 11.5346 72.0674 11.3967 71.5436 11.1031C71.0198 10.8095 70.6037 10.4111 70.2954 9.90786C69.987 9.40468 69.8245 8.84553 69.8079 8.23042C69.7956 7.77559 69.8684 7.3423 70.0263 6.93055C70.1843 6.5188 70.4128 6.15282 70.7119 5.83262C71.0109 5.50809 71.366 5.25141 71.777 5.06257C72.1881 4.87373 72.6405 4.77264 73.1343 4.75929C73.7971 4.74138 74.3903 4.87924 74.9141 5.17286C75.4379 5.46649 75.854 5.86489 76.1624 6.36808C76.4708 6.87126 76.6332 7.43041 76.6499 8.04552C76.6622 8.50035 76.5893 8.93365 76.4314 9.3454C76.2735 9.75715 76.0449 10.1231 75.7458 10.4433C75.4467 10.7635 75.0917 11.0202 74.6807 11.2134C74.2697 11.4022 73.8151 11.5034 73.3169 11.5168ZM73.2878 10.4382C73.7166 10.4266 74.0931 10.3233 74.4173 10.1281C74.7457 9.92848 75.0006 9.655 75.1819 9.30764C75.3632 8.95595 75.4475 8.54619 75.4348 8.07836C75.4221 7.6062 75.3158 7.20159 75.1159 6.86453C74.9203 6.52302 74.6532 6.26364 74.3146 6.08639C73.976 5.90914 73.5923 5.82631 73.1635 5.8379C72.7346 5.84949 72.3559 5.95292 72.0274 6.1482C71.7032 6.34336 71.4505 6.61679 71.2693 6.96848C71.0923 7.31572 71.0102 7.72542 71.0229 8.19759C71.0356 8.66541 71.1397 9.07008 71.3353 9.41159C71.5352 9.74865 71.8045 10.008 72.1431 10.1896C72.4817 10.3668 72.8633 10.4497 73.2878 10.4382Z" fill="white"/>
<path d="M78.249 11.3118L78.8621 4.97135L81.7735 5.25288C82.4809 5.32128 83.0369 5.51436 83.4415 5.83211C83.8505 6.15028 84.0287 6.5811 83.9761 7.12456C83.9527 7.3661 83.8756 7.5785 83.7447 7.76175C83.6138 7.945 83.4381 8.09563 83.2178 8.21363C82.9978 8.32732 82.7445 8.40296 82.4579 8.44055L82.4635 8.17988C82.9943 8.31828 83.3879 8.54789 83.6442 8.86872C83.9052 9.18565 84.0147 9.56193 83.9726 9.99756C83.9354 10.3814 83.8022 10.7016 83.5728 10.958C83.3477 11.2149 83.0423 11.4009 82.6568 11.516C82.2717 11.6268 81.8225 11.6573 81.3092 11.6077L78.249 11.3118ZM79.4966 10.4986L81.2369 10.6669C81.7028 10.7119 82.0704 10.6691 82.3399 10.5384C82.6137 10.4082 82.7657 10.1878 82.7957 9.87723C82.8257 9.56668 82.7208 9.32362 82.4809 9.14805C82.2414 8.96816 81.8866 8.85549 81.4165 8.81003L79.495 8.62422L79.5819 7.72491L81.3547 7.89633C81.7946 7.93888 82.1418 7.90497 82.3963 7.79462C82.6507 7.68426 82.793 7.47381 82.823 7.16326C82.8526 6.85702 82.7531 6.62537 82.5245 6.4683C82.3006 6.30734 81.9666 6.20538 81.5223 6.16242L79.9307 6.00852L79.4966 10.4986Z" fill="white"/>
<path d="M87.2764 12.6723C86.835 12.5811 86.4677 12.4211 86.1742 12.1923C85.8808 11.9636 85.6752 11.6844 85.5574 11.3547C85.4406 11.0208 85.4238 10.6523 85.5071 10.2492C85.5755 9.91815 85.7226 9.63438 85.9485 9.39786C86.1752 9.15709 86.4895 8.98529 86.8913 8.88247C87.2939 8.77539 87.7921 8.75222 88.3858 8.81293C88.9803 8.8694 89.6804 9.02512 90.4862 9.2801L90.3405 10.146C89.7214 9.92963 89.1869 9.786 88.737 9.71516C88.2879 9.64006 87.9149 9.62495 87.618 9.6698C87.322 9.71041 87.0911 9.79988 86.9254 9.9382C86.7647 10.0732 86.6634 10.2425 86.6213 10.4462C86.5538 10.7729 86.6174 11.0538 86.8122 11.2887C87.0122 11.5203 87.318 11.6786 87.7296 11.7637C88.0818 11.8365 88.409 11.8377 88.7112 11.7674C89.0184 11.6937 89.2764 11.5589 89.485 11.3631C89.6987 11.1639 89.8371 10.9115 89.9003 10.606L90.2607 8.86182C90.3212 8.569 90.308 8.30079 90.2212 8.05718C90.1386 7.81444 89.9843 7.6078 89.7585 7.43724C89.5327 7.26669 89.2373 7.1437 88.8723 7.0683C88.5456 7.00078 88.2109 6.98251 87.8682 7.01347C87.5255 7.04444 87.1828 7.13957 86.8402 7.29886L86.6704 6.3213C87.111 6.13798 87.548 6.03581 87.9816 6.01477C88.4152 5.99373 88.8208 6.02222 89.1985 6.10026C89.7714 6.21863 90.2405 6.41071 90.606 6.67649C90.9723 6.93802 91.2243 7.27106 91.362 7.67562C91.4996 8.08018 91.5128 8.55193 91.4014 9.09088L90.5623 13.1521L89.4865 12.9298L89.6443 12.166C89.3639 12.431 89.0156 12.6069 88.5995 12.6934C88.1842 12.7758 87.7432 12.7687 87.2764 12.6723Z" fill="white"/>
<path d="M92.2844 13.5978L94.2736 7.54634L95.4098 7.91982L94.6263 10.3033L97.9052 11.3812L98.6887 8.99764L99.8249 9.37112L97.8357 15.4226L96.6995 15.0491L97.5886 12.3445L94.3097 11.2666L93.4206 13.9713L92.2844 13.5978Z" fill="white"/>
<path d="M99.1896 15.9354L101.909 10.1752L102.991 10.6859L101.92 12.9547L105.041 14.4283L106.112 12.1595L107.193 12.6702L104.474 18.4304L103.392 17.9197L104.608 15.3453L101.487 13.8716L100.271 16.4461L99.1896 15.9354Z" fill="white"/>
<path d="M109.016 21.3189C108.459 20.9673 108.045 20.5239 107.773 19.9885C107.501 19.4531 107.377 18.8905 107.401 18.3008C107.424 17.7112 107.6 17.1561 107.929 16.6358C108.172 16.251 108.473 15.9315 108.834 15.6772C109.194 15.4229 109.587 15.246 110.014 15.1463C110.443 15.043 110.881 15.0273 111.328 15.0991C111.774 15.1708 112.206 15.3385 112.624 15.6022C113.185 15.9561 113.601 16.4007 113.873 16.9361C114.145 17.4715 114.269 18.034 114.245 18.6237C114.221 19.2134 114.045 19.7684 113.717 20.2888C113.474 20.6736 113.173 20.9931 112.812 21.2474C112.452 21.5016 112.058 21.6786 111.632 21.7782C111.205 21.8779 110.767 21.8936 110.318 21.8255C109.872 21.7537 109.438 21.5849 109.016 21.3189ZM109.592 20.4064C109.955 20.6354 110.325 20.759 110.703 20.7772C111.087 20.794 111.451 20.7086 111.795 20.5208C112.141 20.3294 112.439 20.0358 112.689 19.6401C112.941 19.2406 113.078 18.8453 113.099 18.454C113.127 18.0614 113.049 17.6973 112.867 17.3616C112.684 17.026 112.411 16.7436 112.048 16.5147C111.685 16.2857 111.313 16.161 110.932 16.1405C110.554 16.1223 110.192 16.2089 109.845 16.4003C109.505 16.5903 109.209 16.8851 108.957 17.2845C108.707 17.6803 108.568 18.0745 108.541 18.4671C108.519 18.8583 108.599 19.2236 108.779 19.5629C108.962 19.8986 109.233 20.1798 109.592 20.4064Z" fill="white"/>
<path d="M115.083 25.6687C114.558 25.2418 114.185 24.7563 113.964 24.2122C113.742 23.6682 113.677 23.1096 113.769 22.5365C113.864 21.96 114.124 21.4114 114.548 20.8907C114.855 20.5144 115.203 20.217 115.594 19.9985C115.987 19.7827 116.396 19.6516 116.819 19.6053C117.246 19.5617 117.669 19.6016 118.088 19.7251C118.511 19.8514 118.907 20.065 119.276 20.3661C119.676 20.6918 119.975 21.0524 120.172 21.448C120.373 21.8464 120.472 22.2567 120.469 22.679C120.472 23.1007 120.379 23.5198 120.191 23.9364C120.005 24.3496 119.723 24.7342 119.343 25.0902L115.322 21.8142C115.043 22.1353 114.875 22.4789 114.817 22.8452C114.762 23.2082 114.814 23.5694 114.974 23.9288C115.137 24.291 115.407 24.6253 115.783 24.9318C116.059 25.1563 116.363 25.3315 116.697 25.4577C117.03 25.5838 117.367 25.6433 117.708 25.6361L117.539 26.6468C117.271 26.6464 116.988 26.603 116.689 26.5164C116.397 26.4292 116.112 26.312 115.835 26.1647C115.559 26.0174 115.308 25.8521 115.083 25.6687ZM115.959 21.1346L119.003 23.6142C119.329 23.1867 119.464 22.7571 119.407 22.3255C119.354 21.8905 119.098 21.4869 118.641 21.1147C118.198 20.7535 117.736 20.5727 117.255 20.5725C116.778 20.569 116.346 20.7563 115.959 21.1346Z" fill="white"/>
<path d="M121.909 32.0596C121.609 31.723 121.41 31.3753 121.311 31.0166C121.212 30.6579 121.214 30.3111 121.317 29.9764C121.422 29.6388 121.629 29.3331 121.936 29.0594C122.189 28.8347 122.476 28.6949 122.799 28.64C123.124 28.5823 123.479 28.6321 123.863 28.7895C124.25 28.944 124.663 29.2228 125.103 29.6259C125.546 30.0262 126.015 30.5691 126.509 31.2547L125.875 31.8624C125.508 31.3192 125.165 30.8849 124.846 30.5594C124.531 30.231 124.24 29.9962 123.975 29.8549C123.714 29.7108 123.475 29.6447 123.26 29.6567C123.05 29.6691 122.868 29.7444 122.712 29.8827C122.463 30.1045 122.347 30.3678 122.363 30.6726C122.385 30.9778 122.535 31.2874 122.815 31.6013C123.054 31.87 123.316 32.0663 123.6 32.1903C123.891 32.3147 124.178 32.3605 124.462 32.328C124.753 32.2958 125.014 32.176 125.247 31.9685L126.578 30.7845C126.801 30.5857 126.951 30.3627 127.027 30.1154C127.105 29.8714 127.105 29.6135 127.026 29.3419C126.946 29.0702 126.783 28.7952 126.535 28.5168C126.313 28.2676 126.055 28.0531 125.762 27.8733C125.469 27.6936 125.137 27.5653 124.767 27.4885L125.214 26.603C125.677 26.7189 126.089 26.8979 126.449 27.1399C126.81 27.3818 127.118 27.6469 127.374 27.935C127.763 28.372 128.025 28.8062 128.16 29.2376C128.297 29.6661 128.301 30.0837 128.17 30.4904C128.038 30.8971 127.767 31.2834 127.356 31.6493L124.258 34.4063L123.528 33.5857L124.111 33.0672C123.728 33.1124 123.343 33.0455 122.958 32.8665C122.575 32.6847 122.226 32.4157 121.909 32.0596Z" fill="white"/>
<path d="M125.483 35.9315L130.635 32.1843L133.063 35.5221L132.243 36.1186L130.518 33.748L126.187 36.8986L125.483 35.9315Z" fill="white"/>
<path d="M129.915 42.8411C129.574 42.2578 129.394 41.6725 129.376 41.0852C129.359 40.4979 129.493 39.9519 129.78 39.4474C130.071 38.9406 130.506 38.5174 131.086 38.1779C131.505 37.9326 131.935 37.7759 132.377 37.7077C132.822 37.6433 133.25 37.6634 133.663 37.768C134.078 37.8765 134.46 38.0618 134.81 38.3241C135.162 38.5902 135.458 38.9289 135.699 39.3402C135.959 39.7851 136.113 40.2274 136.16 40.6672C136.209 41.1106 136.158 41.5296 136.007 41.9242C135.863 42.3203 135.629 42.6805 135.307 43.0048C134.988 43.327 134.589 43.5885 134.109 43.7893L131.487 39.3137C131.114 39.5171 130.837 39.7803 130.654 40.1031C130.475 40.4238 130.398 40.7805 130.422 41.1731C130.448 41.5695 130.584 41.9771 130.83 42.3959C131.009 42.7025 131.233 42.9731 131.501 43.2078C131.769 43.4425 132.064 43.6162 132.386 43.7288L131.874 44.6164C131.623 44.5224 131.373 44.3826 131.124 44.1972C130.881 44.0133 130.655 43.8039 130.447 43.5691C130.239 43.3343 130.062 43.0916 129.915 42.8411ZM132.322 38.9L134.307 42.2875C134.762 42.001 135.038 41.6457 135.136 41.2216C135.238 40.7953 135.14 40.3279 134.842 39.8194C134.553 39.3259 134.183 38.995 133.733 38.8267C133.287 38.6563 132.817 38.6807 132.322 38.9Z" fill="white"/>
<path d="M132.589 47.2603L138.437 44.7351L138.911 45.8331L136.608 46.8277L137.976 49.9964L140.279 49.0018L140.753 50.0998L134.905 52.625L134.431 51.527L137.045 50.3984L135.677 47.2297L133.063 48.3583L132.589 47.2603Z" fill="white"/>
<path d="M136.19 56.6051L141.314 55.0482L140.68 52.9585L141.65 52.6638L143.269 57.9937L142.299 58.2885L141.662 56.1926L136.537 57.7494L136.19 56.6051Z" fill="white"/>
<path d="M137.758 63.8945C137.627 63.2357 137.656 62.6226 137.843 62.0552C138.031 61.4877 138.345 61.0101 138.785 60.6223C139.229 60.2336 139.767 59.9764 140.401 59.8506C140.881 59.7551 141.34 59.7523 141.777 59.8421C142.216 59.9362 142.615 60.1109 142.975 60.3663C143.335 60.6217 143.638 60.9438 143.883 61.3325C144.133 61.7246 144.308 62.1714 144.407 62.6729C144.489 63.0809 144.51 63.4676 144.472 63.833C144.434 64.1984 144.334 64.5497 144.171 64.8868L143.147 64.4674C143.275 64.2432 143.354 63.9956 143.384 63.7245C143.418 63.4526 143.407 63.1743 143.35 62.8895C143.258 62.422 143.088 62.0338 142.841 61.725C142.599 61.4196 142.292 61.2068 141.919 61.0865C141.546 60.9662 141.123 60.9529 140.652 61.0466C139.942 61.1876 139.426 61.5022 139.103 61.9905C138.785 62.4821 138.696 63.0786 138.835 63.7799C138.9 64.1029 139.017 64.3933 139.187 64.651C139.362 64.9079 139.561 65.107 139.783 65.2484L139.011 66.0313C138.699 65.753 138.433 65.4327 138.21 65.0704C137.992 64.7073 137.842 64.3153 137.758 63.8945Z" fill="white"/>
<path d="M138.643 68.9391L143.975 68.4236L143.764 66.2498L144.774 66.1522L145.31 71.6968L144.301 71.7944L144.09 69.6141L138.759 70.1296L138.643 68.9391Z" fill="white"/>
<path d="M138.983 72.8884L145.353 72.9622L145.319 75.887C145.31 76.5976 145.165 77.1679 144.883 77.598C144.6 78.0325 144.186 78.2465 143.64 78.2402C143.398 78.2374 143.18 78.1785 142.986 78.0636C142.792 77.9487 142.627 77.7864 142.491 77.5768C142.359 77.3673 142.262 77.1213 142.2 76.8389L142.461 76.8224C142.368 77.3631 142.172 77.7746 141.874 78.0572C141.581 78.3442 141.215 78.4851 140.777 78.48C140.392 78.4756 140.061 78.3699 139.786 78.163C139.511 77.9605 139.3 77.672 139.153 77.2977C139.01 76.9233 138.941 76.4783 138.947 75.9627L138.983 72.8884ZM139.899 74.0626L139.879 75.811C139.873 76.2789 139.947 76.6416 140.1 76.8991C140.253 77.1609 140.486 77.2936 140.798 77.2972C141.11 77.3008 141.343 77.1757 141.497 76.9218C141.656 76.6679 141.739 76.3049 141.744 75.8326L141.766 73.9022L142.67 73.9127L142.649 75.6935C142.644 76.1355 142.707 76.4786 142.839 76.7228C142.97 76.967 143.192 77.0909 143.504 77.0945C143.812 77.0981 144.034 76.9793 144.171 76.7382C144.313 76.5015 144.386 76.16 144.391 75.7137L144.41 74.1148L139.899 74.0626Z" fill="white"/>
<path d="M138.209 83.6425C138.295 82.9895 138.524 82.4274 138.897 81.9564C139.269 81.4853 139.728 81.1371 140.274 80.9118C140.819 80.6864 141.397 80.6139 142.007 80.6943C142.458 80.7537 142.874 80.8938 143.256 81.1146C143.638 81.3354 143.963 81.6186 144.232 81.9644C144.506 82.3108 144.704 82.7018 144.825 83.1374C144.947 83.5731 144.976 84.0358 144.911 84.5255C144.825 85.1828 144.595 85.747 144.223 86.2181C143.85 86.6892 143.391 87.0374 142.846 87.2627C142.301 87.4881 141.723 87.5605 141.113 87.4802C140.662 87.4207 140.245 87.2806 139.863 87.0599C139.482 86.8391 139.156 86.5558 138.887 86.2101C138.618 85.8643 138.42 85.4733 138.294 85.0371C138.172 84.6014 138.144 84.1366 138.209 83.6425ZM139.279 83.7835C139.223 84.2088 139.266 84.5969 139.407 84.9477C139.553 85.3034 139.783 85.5982 140.097 85.8319C140.416 86.0662 140.808 86.214 141.272 86.2751C141.74 86.3368 142.156 86.2955 142.52 86.1512C142.888 86.0117 143.187 85.7887 143.415 85.4823C143.643 85.1758 143.785 84.8099 143.842 84.3846C143.898 83.9593 143.855 83.569 143.714 83.2139C143.572 82.863 143.342 82.5704 143.023 82.3361C142.708 82.1067 142.316 81.9611 141.848 81.8994C141.384 81.8383 140.968 81.8774 140.6 82.0169C140.236 82.1612 139.937 82.3863 139.705 82.6922C139.476 82.9987 139.334 83.3624 139.279 83.7835Z" fill="white"/>
<path d="M136.911 91.6732L139.744 95.6115C140.081 94.9004 140.526 94.4059 141.08 94.1281C141.631 93.8544 142.256 93.8293 142.953 94.0527C143.449 94.2114 143.843 94.4719 144.136 94.8344C144.434 95.1982 144.616 95.6366 144.684 96.1498C144.752 96.6629 144.688 97.2248 144.492 97.8356L143.509 100.906L134.842 98.1294L135.215 96.9657L138.812 98.1179L139.23 96.8118L136.471 93.0474L136.911 91.6732ZM140.423 96.5183L139.808 98.4372L142.872 99.4188L143.453 97.6052C143.644 97.0109 143.663 96.5029 143.512 96.0813C143.36 95.6596 143.047 95.3727 142.572 95.2207C142.085 95.0647 141.654 95.0903 141.278 95.2975C140.902 95.5047 140.617 95.9116 140.423 96.5183Z" fill="white"/>
<path d="M134.138 99.822L139.898 102.542L139.387 103.623L137.119 102.552L135.645 105.673L137.914 106.744L137.403 107.826L131.643 105.106L132.154 104.025L134.728 105.24L136.202 102.119L133.627 100.903L134.138 99.822Z" fill="white"/>
<path d="M128.232 111.403L132.73 114.311L134.265 111.937L133.441 111.404C132.928 111.072 132.489 110.75 132.124 110.436C131.763 110.125 131.481 109.806 131.279 109.48C131.081 109.156 130.971 108.808 130.947 108.437C130.922 108.07 130.991 107.663 131.156 107.217L132 107.36C131.862 107.772 131.85 108.138 131.963 108.459C132.077 108.785 132.308 109.105 132.658 109.419C133.011 109.735 133.476 110.08 134.055 110.454L135.731 111.538L132.932 115.866L127.583 112.407L128.232 111.403ZM129.549 105.776L132 107.36L131.488 107.997L131.498 108.22L127.735 114.039L125.246 112.429L125.843 111.507L127.48 112.566L130.59 107.757L128.952 106.698L129.549 105.776Z" fill="white"/>
<path d="M124.225 115.777C124.657 115.258 125.147 114.89 125.693 114.674C126.24 114.458 126.799 114.399 127.371 114.498C127.947 114.6 128.492 114.865 129.008 115.295C129.381 115.606 129.675 115.957 129.889 116.35C130.101 116.746 130.227 117.156 130.269 117.58C130.308 118.007 130.263 118.43 130.135 118.848C130.004 119.269 129.786 119.662 129.481 120.029C129.151 120.425 128.787 120.72 128.39 120.913C127.989 121.109 127.578 121.204 127.156 121.196C126.734 121.194 126.316 121.097 125.901 120.904C125.49 120.714 125.109 120.427 124.757 120.044L128.077 116.058C127.759 115.777 127.417 115.605 127.051 115.543C126.689 115.483 126.327 115.532 125.966 115.688C125.602 115.847 125.265 116.113 124.954 116.486C124.727 116.759 124.548 117.061 124.418 117.393C124.289 117.725 124.225 118.062 124.229 118.403L123.22 118.222C123.223 117.955 123.27 117.672 123.36 117.374C123.45 117.083 123.57 116.8 123.721 116.525C123.871 116.249 124.039 116 124.225 115.777ZM128.749 116.703L126.236 119.72C126.66 120.05 127.088 120.19 127.521 120.138C127.956 120.089 128.363 119.838 128.74 119.386C129.106 118.946 129.292 118.486 129.297 118.006C129.306 117.528 129.123 117.094 128.749 116.703Z" fill="white"/>
<path d="M118.303 122.347L122.215 123.286L122.9 126.762L121.977 127.659L121.328 124.229L117.268 123.352L118.303 122.347ZM121.366 119.371L125.804 123.94L124.947 124.774L123.198 122.974L121.832 124.301L121.126 123.574L122.492 122.247L120.508 120.204L121.366 119.371Z" fill="white"/>
<path d="M113.857 125.809C114.385 125.394 114.945 125.142 115.536 125.053C116.127 124.964 116.695 125.028 117.24 125.245C117.787 125.465 118.26 125.829 118.659 126.337C118.961 126.722 119.171 127.13 119.289 127.561C119.403 127.995 119.428 128.43 119.363 128.866C119.298 129.303 119.148 129.718 118.912 130.113C118.675 130.513 118.356 130.871 117.953 131.187C117.626 131.444 117.291 131.638 116.948 131.769C116.605 131.901 116.246 131.97 115.872 131.978L115.783 130.874C116.041 130.887 116.297 130.845 116.553 130.75C116.811 130.657 117.054 130.521 117.282 130.342C117.657 130.048 117.927 129.721 118.09 129.361C118.253 129.007 118.304 128.637 118.243 128.25C118.182 127.863 118.002 127.48 117.705 127.102C117.259 126.532 116.745 126.214 116.163 126.147C115.581 126.086 115.009 126.276 114.446 126.718C114.187 126.921 113.981 127.157 113.828 127.426C113.678 127.698 113.591 127.965 113.565 128.227L112.518 127.893C112.625 127.489 112.79 127.106 113.013 126.744C113.238 126.385 113.519 126.074 113.857 125.809Z" fill="white"/>
<path d="M109.469 128.914C109.853 128.678 110.23 128.542 110.6 128.507C110.971 128.473 111.312 128.535 111.624 128.694C111.938 128.857 112.203 129.114 112.419 129.464C112.596 129.752 112.683 130.059 112.681 130.386C112.681 130.717 112.57 131.058 112.348 131.408C112.129 131.762 111.782 132.121 111.309 132.484C110.837 132.85 110.221 133.217 109.459 133.584L108.972 132.854C109.571 132.587 110.058 132.325 110.434 132.068C110.812 131.815 111.094 131.57 111.28 131.333C111.467 131.101 111.574 130.877 111.6 130.663C111.624 130.455 111.582 130.262 111.473 130.085C111.298 129.801 111.059 129.64 110.756 129.603C110.451 129.571 110.12 129.666 109.762 129.886C109.456 130.075 109.217 130.298 109.045 130.557C108.872 130.821 108.777 131.096 108.76 131.382C108.741 131.673 108.813 131.952 108.977 132.217L109.91 133.734C110.067 133.988 110.261 134.175 110.491 134.292C110.718 134.412 110.972 134.457 111.253 134.426C111.534 134.396 111.834 134.282 112.151 134.087C112.435 133.912 112.691 133.696 112.919 133.438C113.147 133.181 113.332 132.876 113.472 132.526L114.266 133.121C114.071 133.556 113.823 133.93 113.522 134.243C113.221 134.556 112.906 134.813 112.577 135.015C112.079 135.322 111.606 135.504 111.158 135.561C110.712 135.622 110.3 135.552 109.923 135.352C109.545 135.152 109.212 134.818 108.923 134.349L106.749 130.818L107.684 130.242L108.093 130.907C108.115 130.521 108.248 130.154 108.492 129.806C108.737 129.461 109.063 129.164 109.469 128.914Z" fill="white"/>
</svg>
