<svg width="328" height="960" viewBox="0 0 328 960" fill="none" xmlns="http://www.w3.org/2000/svg">
<g style="mix-blend-mode:multiply" opacity="0.2">
<path d="M164 960C70.9116 960 -2 891.729 -2.00001 789.551C-2.00001 691.955 61.7403 619.102 164 619.102C261.216 619.102 330 691.955 330 789.551C330 887.147 266.26 960 164 960ZM164 882.107C219.028 882.107 261.215 840.869 261.215 789.551C261.215 728.611 218.111 696.995 164 696.995C105.304 696.995 66.7845 737.775 66.7845 789.551C66.7845 842.702 105.304 882.107 164 882.107Z" fill="#E2DBD0"/>
<path d="M236.453 448.552C188.304 448.552 194.265 582.346 90.6298 582.346C41.105 582.346 -2.00002 542.941 -2.00002 478.793C-2.00002 437.555 11.7569 404.565 33.3094 384.405L88.337 423.809C75.0387 438.014 66.7845 448.552 66.7845 472.378C66.7845 492.539 75.9558 504.452 90.6298 504.452C143.823 504.452 130.983 370.659 235.536 370.659C291.481 370.659 330 418.769 330 480.626C330 523.696 311.657 573.64 277.265 589.218L227.282 547.523C250.669 529.195 261.215 501.245 261.215 478.793C261.215 459.549 251.586 448.552 236.453 448.552Z" fill="#E2DBD0"/>
<path d="M164 341.04C70.9116 341.04 -2.00003 272.769 -2.00003 170.591C-2.00004 72.9954 61.7403 0.142026 164 0.142022C207.564 0.14202 245.624 14.8043 274.055 40.0052L330 -8.99995L330 75.7664L313.033 91.3232C324.039 114.691 330 141.725 330 170.591C330 268.187 266.26 341.04 164 341.04ZM164 263.147C219.028 263.147 261.215 221.909 261.215 170.591C261.215 159.136 259.84 149.056 257.088 139.434L227.74 164.635L184.635 116.524L215.818 89.9486C201.144 82.1592 183.26 78.0355 164 78.0355C105.304 78.0355 66.7845 118.815 66.7845 170.591C66.7845 223.742 105.304 263.147 164 263.147Z" fill="#E2DBD0"/>
</g>
</svg>
