<svg width="177" height="162" viewBox="0 0 177 162" fill="none" xmlns="http://www.w3.org/2000/svg">
<path d="M28.7843 67.7407C28.4955 68.3568 28.12 68.8771 27.6577 69.3017C27.1934 69.7205 26.6751 70.0351 26.1027 70.2454C25.5322 70.4517 24.9354 70.5405 24.3124 70.5117C23.6894 70.4829 23.0738 70.3259 22.4656 70.0408C21.8536 69.7539 21.3372 69.3802 20.9165 68.9198C20.4958 68.4594 20.1823 67.9439 19.9759 67.3734C19.7714 66.7989 19.6836 66.2002 19.7124 65.5772C19.743 64.9503 19.9027 64.3288 20.1915 63.7128C20.4784 63.1007 20.8541 62.5853 21.3184 62.1664C21.7827 61.7476 22.3031 61.4339 22.8793 61.2255C23.4556 61.017 24.0553 60.9272 24.6783 60.956C25.2992 60.9791 25.9098 61.1313 26.5101 61.4127C27.1183 61.6978 27.6318 62.0725 28.0506 62.5369C28.4713 62.9973 28.7839 63.5147 28.9885 64.0892C29.193 64.6636 29.2828 65.2633 29.2579 65.8881C29.2291 66.5111 29.0712 67.1287 28.7843 67.7407ZM27.7308 67.2469C27.9386 66.8035 28.0552 66.3557 28.0806 65.9034C28.1078 65.4471 28.0473 65.0096 27.8991 64.5907C27.7469 64.17 27.5084 63.7854 27.1836 63.437C26.8607 63.0846 26.4559 62.7943 25.9694 62.5663C25.3141 62.2591 24.677 62.1328 24.0581 62.1872C23.441 62.2377 22.8868 62.4398 22.3956 62.7934C21.9005 63.1452 21.515 63.6153 21.2391 64.2039C21.0313 64.6473 20.9157 65.098 20.8924 65.5561C20.867 66.0084 20.9295 66.4469 21.0798 66.8715C21.2281 67.2903 21.4646 67.674 21.7894 68.0225C22.1103 68.3691 22.5159 68.6574 23.0064 68.8873C23.6577 69.1926 24.2919 69.32 24.909 69.2695C25.528 69.215 26.085 69.0119 26.5802 68.6602C27.0714 68.3065 27.4549 67.8355 27.7308 67.2469Z" fill="#052636"/>
<path d="M35.774 60.6022L25.8679 53.6714L26.5535 52.6915L36.4597 59.6223L35.774 60.6022ZM34.0147 58.6495C33.5204 59.356 32.9802 59.9089 32.3942 60.308C31.8071 60.7012 31.2026 60.9076 30.5806 60.9272C29.9612 60.9434 29.3514 60.7415 28.7513 60.3217C28.1477 59.8994 27.7486 59.3927 27.5539 58.8017C27.3592 58.2107 27.349 57.5715 27.5231 56.8842C27.6973 56.1968 28.0327 55.4981 28.5296 54.788C29.0289 54.0743 29.5703 53.5197 30.1538 53.1241C30.7398 52.7249 31.3426 52.5173 31.9621 52.5012C32.584 52.4815 33.1968 52.6828 33.8004 53.1051C34.2513 53.4206 34.5869 53.7876 34.8071 54.2061C35.0262 54.6185 35.1382 55.067 35.1429 55.5516C35.1476 56.0362 35.0533 56.5414 34.86 57.0672C34.6691 57.5894 34.3873 58.1169 34.0147 58.6495ZM33.1951 58.0522C33.5726 57.5125 33.8271 56.9977 33.9583 56.5077C34.0895 56.0178 34.0864 55.5687 33.9489 55.1605C33.8114 54.7523 33.5297 54.3991 33.1036 54.101C32.674 53.8005 32.2414 53.6591 31.8058 53.677C31.3727 53.6913 30.9473 53.8458 30.5295 54.1405C30.1117 54.4353 29.7165 54.849 29.3439 55.3815C28.9713 55.9141 28.7194 56.4254 28.5881 56.9153C28.4594 57.4017 28.4613 57.8526 28.5938 58.2679C28.7288 58.6796 29.0111 59.0358 29.4407 59.3364C29.8668 59.6345 30.2964 59.7764 30.7295 59.7621C31.165 59.7442 31.5905 59.5897 32.0057 59.2985C32.4235 59.0038 32.82 58.5883 33.1951 58.0522Z" fill="#052636"/>
<path d="M37.6491 53.6029L33.0362 49.2099L33.8386 48.3674L37.1523 51.5232L36.3937 45.6844L37.1019 44.9407L41.7148 49.3336L40.9124 50.1762L37.561 46.9846L38.3349 52.8827L37.6491 53.6029Z" fill="#052636"/>
<path d="M43.4576 47.725L39.506 42.7288L40.4441 41.9869L43.7667 46.1877L46.3718 44.1273L43.0493 39.9264L43.9873 39.1845L47.9389 44.1806L43.4576 47.725ZM49.5513 45.3915L48.3417 43.8621L47.4291 44.5839L46.8001 43.7886L48.5742 42.3853L50.4129 44.7101L49.5513 45.3915Z" fill="#052636"/>
<path d="M50.6602 42.2895L47.4584 36.7827L48.4643 36.1979L50.7643 40.1538L51.6672 34.3356L52.5551 33.8194L55.7568 39.3263L54.751 39.9111L52.4248 35.9102L51.5199 41.7897L50.6602 42.2895Z" fill="#052636"/>
<path d="M59.8393 37.6793C59.4235 37.853 59.0299 37.9283 58.6585 37.905C58.2872 37.8817 57.9599 37.7672 57.6767 37.5614C57.3918 37.3517 57.17 37.0569 57.0113 36.6771C56.881 36.3652 56.8423 36.0479 56.8953 35.7252C56.9467 35.3985 57.1092 35.0793 57.3829 34.7677C57.6549 34.4521 58.0531 34.1519 58.5775 33.867C59.1002 33.5782 59.7661 33.3117 60.5752 33.0676L60.9435 33.8647C60.3103 34.0353 59.788 34.2183 59.3765 34.4138C58.9634 34.6052 58.6469 34.8031 58.4271 35.0077C58.2057 35.2082 58.0655 35.4124 58.0067 35.6201C57.9503 35.8222 57.9621 36.0192 58.0423 36.2111C58.171 36.519 58.382 36.7149 58.6754 36.7989C58.9712 36.8773 59.313 36.8355 59.7008 36.6734C60.0327 36.5348 60.3035 36.3512 60.5132 36.1226C60.7253 35.8884 60.8623 35.6316 60.924 35.3522C60.988 35.0672 60.9599 34.7807 60.8396 34.4928L60.153 32.8495C60.0377 32.5736 59.8755 32.3596 59.6664 32.2075C59.4612 32.0537 59.2173 31.9701 58.9346 31.9567C58.6519 31.9433 58.3387 32.0084 57.9948 32.1521C57.6869 32.2808 57.4003 32.4545 57.1348 32.6735C56.8694 32.8924 56.6401 33.1643 56.4471 33.4892L55.7554 32.7778C56.0157 32.3779 56.3189 32.047 56.6649 31.7849C57.011 31.5229 57.362 31.3176 57.7178 31.1689C58.2576 30.9434 58.7533 30.8372 59.205 30.8504C59.655 30.8596 60.051 30.9924 60.3929 31.2487C60.7348 31.5051 61.0119 31.8871 61.224 32.3949L62.8228 36.2213L61.8093 36.6448L61.5085 35.9251C61.4266 36.3022 61.2383 36.6439 60.9436 36.9502C60.6472 37.2525 60.2791 37.4955 59.8393 37.6793Z" fill="#052636"/>
<path d="M65.0576 35.5235L64.3437 34.5789C64.745 34.3534 65.0116 34.0948 65.1436 33.8031C65.2745 33.5073 65.3076 33.1324 65.2429 32.6785C65.1783 32.2246 65.0508 31.6463 64.8604 30.9437L64.3384 29.0177L69.188 27.7035L70.8541 33.8517L69.6997 34.1645L68.2989 28.995L65.6953 29.7005L65.952 30.6479C66.1333 31.3171 66.2616 31.9064 66.3368 32.4158C66.415 32.9199 66.4247 33.3617 66.366 33.7413C66.3114 34.1197 66.1776 34.4545 65.9647 34.7457C65.7548 35.0315 65.4525 35.2908 65.0576 35.5235Z" fill="#052636"/>
<path d="M73.142 33.4152L72.2552 27.1073L73.4395 26.9408L74.1942 32.309L75.5202 32.1225C76.0308 32.0508 76.3995 31.9027 76.6261 31.6783C76.8564 31.449 76.9444 31.1412 76.8901 30.755C76.837 30.3774 76.6762 30.1046 76.4075 29.9367C76.1431 29.7682 75.7771 29.7168 75.3094 29.7826L73.6809 30.0116L73.5497 29.0782L75.2618 28.8375C76.06 28.7253 76.7121 28.8196 77.2183 29.1204C77.7281 29.4163 78.0307 29.9033 78.126 30.5813C78.1881 31.0232 78.1296 31.4165 77.9505 31.7612C77.7708 32.1015 77.4932 32.3834 77.1177 32.6069C76.7415 32.826 76.2874 32.973 75.7553 33.0478L73.142 33.4152Z" fill="#052636"/>
<path d="M80.163 32.5433L80.0558 26.1742L81.2517 26.1541L81.2939 28.6627L84.7449 28.6046L84.7027 26.096L85.8985 26.0759L86.0057 32.445L84.8098 32.4651L84.7619 29.6185L81.3109 29.6766L81.3588 32.5232L80.163 32.5433Z" fill="#052636"/>
<path d="M88.4339 32.5342L89.2878 26.2217L90.473 26.382L89.7463 31.7541L91.0089 31.9248C91.5199 31.994 91.9148 31.9512 92.1937 31.7965C92.4775 31.6381 92.6456 31.3657 92.6978 30.9792C92.749 30.6013 92.6679 30.2952 92.4548 30.0608C92.2459 29.8271 91.9074 29.6785 91.4393 29.6152L89.8741 29.4035L90.0004 28.4695L91.6494 28.6925C92.4481 28.8006 93.0504 29.0679 93.4562 29.4945C93.8669 29.9173 94.0264 30.468 93.9346 31.1465C93.8748 31.5888 93.712 31.9516 93.4463 32.2349C93.1812 32.5138 92.8376 32.7101 92.4156 32.8235C91.9942 32.9327 91.5172 32.9512 90.9847 32.8792L88.4339 32.5342ZM94.7207 33.3846L95.5745 27.072L96.7597 27.2324L95.9059 33.5449L94.7207 33.3846Z" fill="#052636"/>
<path d="M98.235 34.1162L99.9966 27.9946L101.115 28.3164L99.8493 32.7139L104.675 29.341L105.662 29.625L103.901 35.7466L102.782 35.4248L104.062 30.9773L99.1907 34.3912L98.235 34.1162ZM103.15 27.6846C102.704 27.5563 102.34 27.3479 102.058 27.0593C101.776 26.7706 101.591 26.4355 101.502 26.0538C101.415 25.6679 101.439 25.2623 101.575 24.837L102.556 25.1192C102.422 25.5225 102.43 25.8835 102.582 26.2022C102.735 26.5168 103.005 26.7298 103.393 26.8413C103.78 26.9527 104.12 26.9153 104.412 26.7289C104.71 26.5396 104.908 26.2379 105.004 25.8238L105.991 26.1078C105.877 26.535 105.679 26.8882 105.395 27.1674C105.116 27.4478 104.781 27.6353 104.388 27.7298C103.996 27.8243 103.583 27.8092 103.15 27.6846Z" fill="#052636"/>
<path d="M109.936 38.2037L112.881 32.5555L118.057 35.2542L115.112 40.9025L114.051 40.3495L116.528 35.6004L113.473 34.0076L110.997 38.7567L109.936 38.2037Z" fill="#052636"/>
<path d="M118.706 43.5163C118.337 43.2566 118.064 42.9633 117.887 42.6364C117.709 42.3095 117.632 41.9714 117.655 41.6222C117.682 41.2694 117.813 40.9248 118.05 40.5884C118.245 40.3122 118.493 40.1107 118.795 39.984C119.099 39.8537 119.456 39.8216 119.865 39.8877C120.277 39.9502 120.743 40.1278 121.263 40.4204C121.786 40.7095 122.366 41.1317 123.003 41.687L122.523 42.4228C122.042 41.9774 121.609 41.6324 121.225 41.3878C120.843 41.1397 120.507 40.977 120.217 40.8997C119.93 40.8188 119.682 40.8086 119.475 40.8693C119.274 40.929 119.113 41.0438 118.993 41.2137C118.801 41.4864 118.747 41.7693 118.832 42.0625C118.923 42.3547 119.14 42.6219 119.484 42.8641C119.778 43.0714 120.077 43.2031 120.382 43.2592C120.694 43.3143 120.984 43.2937 121.253 43.1974C121.529 43.1 121.756 42.9239 121.936 42.6689L122.963 41.2135C123.135 40.9691 123.23 40.718 123.248 40.4599C123.269 40.2044 123.21 39.9534 123.071 39.7069C122.932 39.4604 122.71 39.2297 122.406 39.0149C122.133 38.8226 121.833 38.6723 121.507 38.5639C121.18 38.4555 120.828 38.406 120.45 38.4153L120.685 37.4512C121.162 37.459 121.603 37.5397 122.009 37.6934C122.415 37.8472 122.776 38.0352 123.091 38.2575C123.569 38.5946 123.923 38.958 124.152 39.3476C124.383 39.7336 124.481 40.1395 124.446 40.5654C124.411 40.9912 124.234 41.429 123.917 41.8788L121.527 45.2677L120.629 44.6345L121.079 43.9971C120.716 44.1282 120.327 44.1505 119.91 44.0638C119.497 43.9736 119.095 43.7911 118.706 43.5163Z" fill="#052636"/>
<path d="M121.914 49.0702L128.166 42.457L128.964 43.2116L128.307 43.906C128.732 43.8419 129.162 43.8697 129.597 43.9892C130.039 44.1086 130.482 44.3782 130.926 44.7979C131.386 45.2325 131.688 45.7236 131.832 46.2713C131.979 46.8159 131.974 47.3662 131.818 47.9224C131.666 48.4815 131.37 48.9925 130.933 49.4555C130.614 49.7924 130.257 50.0569 129.861 50.2489C129.471 50.4407 129.065 50.5518 128.643 50.5821C128.223 50.6092 127.809 50.5519 127.401 50.4101C126.998 50.2682 126.622 50.032 126.273 49.7016C125.882 49.3325 125.609 48.9371 125.453 48.5154C125.303 48.0935 125.244 47.6707 125.275 47.2468L122.779 49.8873L121.914 49.0702ZM126.868 48.779C127.179 49.0737 127.519 49.2665 127.886 49.3573C128.26 49.448 128.632 49.4329 129.002 49.3121C129.379 49.1911 129.728 48.9606 130.05 48.6205C130.374 48.2772 130.584 47.9157 130.681 47.536C130.784 47.1561 130.778 46.7838 130.663 46.4192C130.552 46.0575 130.341 45.7294 130.029 45.4347C129.717 45.14 129.376 44.9457 129.005 44.8519C128.638 44.7611 128.266 44.7762 127.889 44.8971C127.516 45.015 127.167 45.2455 126.842 45.5887C126.521 45.9288 126.31 46.2904 126.211 46.6733C126.114 47.053 126.12 47.4253 126.228 47.7901C126.343 48.1547 126.556 48.4844 126.868 48.779Z" fill="#052636"/>
<path d="M131.174 54.7046L135.338 51.3359L133.964 49.638L134.753 49.0003L138.256 53.331L137.468 53.9688L136.09 52.2658L131.926 55.6345L131.174 54.7046Z" fill="#052636"/>
<path d="M134.374 58.8411L139.773 55.4606L140.408 56.4742L138.281 57.8058L140.113 60.7311L142.24 59.3996L142.874 60.4133L137.475 63.7938L136.841 62.7801L139.254 61.2692L137.422 58.3439L135.009 59.8548L134.374 58.8411Z" fill="#052636"/>
<path d="M139.671 68.7698C139.392 68.1539 139.275 67.553 139.319 66.9671C139.363 66.3811 139.554 65.8523 139.892 65.3806C140.235 64.9071 140.712 64.5319 141.324 64.2551C141.766 64.055 142.21 63.9443 142.657 63.9228C143.106 63.9053 143.53 63.9703 143.93 64.1177C144.331 64.269 144.692 64.4934 145.012 64.7909C145.334 65.0924 145.593 65.4603 145.789 65.8946C146.002 66.3644 146.108 66.8204 146.109 67.2626C146.111 67.7087 146.016 68.1201 145.825 68.4967C145.64 68.8754 145.37 69.2092 145.015 69.498C144.665 69.785 144.24 70.0031 143.742 70.1525L141.604 65.4267C141.212 65.5899 140.908 65.8224 140.692 66.1244C140.481 66.4245 140.367 66.7711 140.35 67.1642C140.334 67.5611 140.426 67.9807 140.627 68.4229C140.773 68.7466 140.967 69.0393 141.209 69.3008C141.451 69.5623 141.726 69.7659 142.035 69.9117L141.433 70.7407C141.193 70.6209 140.959 70.4557 140.73 70.2451C140.508 70.0367 140.305 69.8048 140.123 69.5495C139.941 69.2942 139.79 69.0343 139.671 68.7698ZM142.478 65.1028L144.096 68.6797C144.578 68.4425 144.89 68.1181 145.033 67.7066C145.178 67.2934 145.13 66.8183 144.887 66.2814C144.651 65.7602 144.318 65.3924 143.888 65.1779C143.462 64.9616 142.992 64.9365 142.478 65.1028Z" fill="#052636"/>
<path d="M139.229 74.2789L147.958 71.7068L148.268 72.7605L147.352 73.0305C147.751 73.1886 148.108 73.4288 148.425 73.7512C148.746 74.0765 148.993 74.5322 149.166 75.1183C149.345 75.7252 149.359 76.3015 149.208 76.8474C149.061 77.3921 148.781 77.8656 148.366 78.2678C147.953 78.6742 147.441 78.9674 146.83 79.1475C146.385 79.2785 145.943 79.3274 145.504 79.2941C145.071 79.2638 144.664 79.1555 144.284 78.9694C143.908 78.782 143.579 78.5243 143.297 78.1962C143.02 77.8711 142.814 77.4779 142.678 77.0165C142.526 76.5011 142.489 76.0219 142.566 75.579C142.649 75.139 142.81 74.7437 143.05 74.3929L139.565 75.4199L139.229 74.2789ZM143.656 76.5183C143.777 76.9298 143.974 77.2671 144.246 77.5304C144.523 77.7965 144.852 77.9706 145.233 78.0526C145.62 78.1375 146.037 78.1138 146.486 77.9815C146.939 77.848 147.303 77.6415 147.578 77.3618C147.857 77.0851 148.04 76.7604 148.124 76.3876C148.21 76.0191 148.192 75.629 148.071 75.2175C147.949 74.806 147.752 74.4666 147.479 74.1992C147.207 73.9359 146.878 73.7618 146.492 73.6769C146.109 73.5908 145.692 73.6145 145.239 73.748C144.79 73.8803 144.426 74.0869 144.147 74.3677C143.873 74.6474 143.691 74.9721 143.601 75.3419C143.517 75.7146 143.535 76.1067 143.656 76.5183Z" fill="#052636"/>
<path d="M144.846 86.5145L153.922 85.8519L154.327 91.4012L153.238 91.4807L152.922 87.1502L150.205 87.3485L150.333 89.0924C150.403 90.0518 150.234 90.8397 149.827 91.4559C149.425 92.0762 148.794 92.4177 147.934 92.4805C147.368 92.5219 146.879 92.4294 146.467 92.2031C146.06 91.9808 145.735 91.6374 145.492 91.1728C145.254 90.7123 145.111 90.1427 145.061 89.4642L144.846 86.5145ZM145.933 87.6604L146.058 89.3719C146.105 90.0072 146.278 90.4854 146.58 90.8067C146.882 91.1279 147.296 91.2693 147.823 91.2308C148.329 91.1939 148.718 90.9916 148.991 90.6241C149.269 90.2606 149.386 89.7785 149.342 89.1778L149.213 87.4209L145.933 87.6604Z" fill="#052636"/>
<path d="M145.265 95.0362L151.619 95.4807L151.538 96.6414L146.973 96.322L151.28 100.337L151.208 101.362L144.853 100.917L144.935 99.7566L149.551 100.08L145.195 96.0282L145.265 95.0362Z" fill="#052636"/>
<path d="M144.164 104.944L149.418 105.985L149.843 103.843L150.837 104.04L149.755 109.504L148.76 109.307L149.186 107.158L143.932 106.117L144.164 104.944Z" fill="#052636"/>
<path d="M140.385 109.473L149.004 112.391L148.652 113.432L147.747 113.125C147.982 113.484 148.137 113.886 148.21 114.332C148.286 114.783 148.226 115.298 148.03 115.877C147.827 116.476 147.507 116.956 147.069 117.315C146.636 117.676 146.134 117.902 145.563 117.993C144.992 118.087 144.404 118.032 143.801 117.828C143.361 117.679 142.972 117.465 142.632 117.185C142.295 116.911 142.024 116.588 141.821 116.217C141.621 115.848 141.5 115.448 141.458 115.017C141.419 114.592 141.477 114.152 141.631 113.696C141.803 113.188 142.049 112.774 142.367 112.456C142.687 112.144 143.047 111.914 143.445 111.765L140.003 110.599L140.385 109.473ZM142.718 113.852C142.58 114.258 142.547 114.647 142.618 115.019C142.691 115.396 142.86 115.728 143.125 116.014C143.392 116.306 143.747 116.527 144.19 116.677C144.638 116.828 145.054 116.869 145.44 116.798C145.828 116.732 146.164 116.572 146.447 116.315C146.729 116.063 146.939 115.734 147.077 115.328C147.214 114.921 147.248 114.53 147.179 114.154C147.108 113.783 146.939 113.451 146.672 113.159C146.409 112.869 146.053 112.648 145.606 112.496C145.163 112.346 144.746 112.306 144.357 112.375C143.971 112.446 143.636 112.607 143.349 112.858C143.066 113.114 142.855 113.445 142.718 113.852Z" fill="#052636"/>
<path d="M139.889 118.806L145.571 121.685L145.045 122.723L140.963 120.654L143.37 126.028L142.906 126.944L137.224 124.064L137.75 123.026L141.878 125.119L139.439 119.693L139.889 118.806Z" fill="#052636"/>
<path d="M133.388 129.906L137.408 130.062L138.76 133.336L138.031 134.396L136.723 131.16L132.57 131.095L133.388 129.906ZM135.81 126.389L141.056 130.001L140.378 130.986L138.312 129.563L137.232 131.132L136.397 130.557L137.476 128.988L135.131 127.374L135.81 126.389Z" fill="#052636"/>
<path d="M129.188 134.708C129.635 134.206 130.141 133.859 130.707 133.666C131.272 133.474 131.843 133.436 132.417 133.553C132.995 133.673 133.525 133.948 134.007 134.377C134.373 134.703 134.652 135.067 134.844 135.47C135.034 135.877 135.135 136.3 135.149 136.742C135.162 137.183 135.087 137.618 134.925 138.048C134.763 138.484 134.512 138.893 134.172 139.275C133.896 139.586 133.6 139.836 133.286 140.026C132.972 140.217 132.631 140.348 132.264 140.422L131.981 139.352C132.237 139.319 132.482 139.232 132.716 139.093C132.954 138.956 133.169 138.779 133.362 138.563C133.679 138.207 133.886 137.837 133.984 137.454C134.081 137.077 134.066 136.703 133.937 136.333C133.808 135.963 133.564 135.618 133.205 135.298C132.664 134.817 132.102 134.595 131.518 134.632C130.934 134.675 130.404 134.964 129.929 135.498C129.71 135.744 129.549 136.013 129.446 136.304C129.347 136.598 129.308 136.877 129.329 137.14L128.239 136.996C128.273 136.579 128.368 136.173 128.523 135.778C128.681 135.385 128.903 135.028 129.188 134.708Z" fill="#052636"/>
<path d="M126.747 137.621L127.352 138.31L127.068 140.99C126.976 141.844 126.923 142.562 126.91 143.145C126.9 143.731 126.942 144.219 127.037 144.608C127.134 145.002 127.303 145.335 127.543 145.608C127.892 146.006 128.305 146.197 128.782 146.181C129.255 146.169 129.735 145.95 130.22 145.524C130.519 145.261 130.765 144.956 130.956 144.609C131.148 144.262 131.253 143.91 131.273 143.552L132.212 143.921C132.151 144.39 132.001 144.836 131.761 145.26C131.522 145.689 131.207 146.076 130.816 146.419C130.357 146.822 129.88 147.094 129.386 147.234C128.895 147.377 128.42 147.382 127.962 147.248C127.504 147.12 127.096 146.852 126.738 146.445C126.489 146.162 126.296 145.827 126.158 145.441C126.021 145.054 125.941 144.553 125.919 143.937C125.897 143.328 125.935 142.54 126.031 141.573L126.255 139.464L122.895 142.415L122.196 141.619L126.747 137.621Z" fill="#052636"/>
<path d="M117.311 145.05L118.38 146.651L122.202 144.099L122.725 144.883L123.369 151.948L122.31 152.655L121.698 145.686L118.957 147.516L120.123 149.262L119.225 149.861L118.06 148.115L116.843 148.927L116.266 148.062L117.482 147.25L116.414 145.649L117.311 145.05Z" fill="#052636"/>
</svg>
