<svg width="163" height="152" viewBox="0 0 163 152" fill="none" xmlns="http://www.w3.org/2000/svg">
<path d="M15.2796 61.6634C14.8384 62.1582 14.3683 62.5519 13.8694 62.8444C13.3705 63.1368 12.864 63.3238 12.35 63.4054L12.0188 62.2826C12.437 62.2434 12.8545 62.1105 13.2712 61.8842C13.688 61.6578 14.0636 61.357 14.3982 60.9818C14.7097 60.6326 14.9292 60.2855 15.0568 59.9406C15.1812 59.5928 15.2132 59.2672 15.1529 58.9637C15.0926 58.6602 14.9393 58.3958 14.6932 58.1705C14.2987 57.8187 13.8856 57.6796 13.454 57.7534C13.0253 57.8239 12.5701 58.1293 12.0884 58.6693L10.916 59.984L10.1544 59.3048L11.2619 58.0629C11.5215 57.7718 11.7012 57.4792 11.801 57.185C11.9037 56.8875 11.9228 56.6056 11.8585 56.3392C11.7938 56.0667 11.6434 55.8252 11.4073 55.6146C11.1777 55.4098 10.9318 55.295 10.6695 55.2701C10.4039 55.2423 10.1312 55.3039 9.85137 55.455C9.57116 55.5999 9.29261 55.8276 9.01573 56.1381C8.72154 56.4679 8.49495 56.8262 8.33598 57.2128C8.17701 57.5994 8.09648 57.9891 8.09439 58.3821L7.01775 58.2319C7.01677 57.7317 7.12303 57.2284 7.33654 56.7221C7.54682 56.2129 7.85097 55.7351 8.24899 55.2888C8.67008 54.8166 9.10626 54.474 9.55752 54.261C10.0084 54.0419 10.4519 53.9613 10.888 54.0192C11.3237 54.071 11.7275 54.2628 12.0994 54.5944C12.3193 54.7906 12.4852 55.0343 12.597 55.3256C12.7088 55.6169 12.7673 55.9159 12.7726 56.2225C12.7807 56.5259 12.741 56.7982 12.6536 57.0396C13.1042 56.7621 13.5908 56.6299 14.1133 56.643C14.6358 56.6561 15.1236 56.8676 15.5767 57.2775C15.9425 57.6096 16.1808 58.0195 16.2915 58.5073C16.4023 58.9951 16.3768 59.5152 16.215 60.0677C16.0529 60.6141 15.7411 61.146 15.2796 61.6634Z" fill="#052636"/>
<path d="M21.1552 55.8607C20.6566 56.291 20.1115 56.5582 19.5201 56.6621C18.9287 56.7661 18.3544 56.7207 17.7973 56.5261C17.2401 56.3315 16.7606 56.0013 16.3586 55.5354C16.0613 55.1909 15.8436 54.8093 15.7054 54.3905C15.5673 53.9717 15.5127 53.5437 15.5418 53.1065C15.5681 52.666 15.6806 52.2426 15.8795 51.8363C16.0784 51.43 16.3648 51.0655 16.7388 50.7428C17.2408 50.3096 17.7875 50.0411 18.3789 49.9371C18.9703 49.8332 19.5446 49.8785 20.1017 50.0731C20.6589 50.2677 21.1384 50.598 21.5404 51.0638C21.8377 51.4083 22.0554 51.7899 22.1936 52.2087C22.3318 52.6275 22.3863 53.0555 22.3572 53.4927C22.3281 53.93 22.2155 54.3533 22.0195 54.7629C21.8206 55.1692 21.5325 55.5351 21.1552 55.8607ZM20.4503 55.0438C20.7751 54.7635 21.0013 54.4453 21.1289 54.0891C21.257 53.7267 21.2813 53.3537 21.202 52.9699C21.1199 52.5829 20.926 52.2122 20.6202 51.8579C20.3116 51.5003 19.9733 51.2542 19.6053 51.1196C19.2378 50.9789 18.8668 50.947 18.4925 51.0239C18.1181 51.1008 17.7686 51.2794 17.4438 51.5597C17.119 51.84 16.8911 52.1596 16.7603 52.5187C16.6327 52.8749 16.6099 53.2465 16.6921 53.6336C16.7746 54.0145 16.9702 54.3837 17.2788 54.7413C17.5845 55.0956 17.9212 55.3432 18.2888 55.4839C18.6568 55.6185 19.0293 55.649 19.4065 55.5753C19.7809 55.4984 20.1288 55.3212 20.4503 55.0438Z" fill="#052636"/>
<path d="M24.7295 52.7898L23.7558 52.116C24.0664 51.7762 24.2388 51.4472 24.2729 51.1289C24.3046 50.8069 24.2187 50.4405 24.0153 50.0296C23.8119 49.6188 23.5098 49.1094 23.1091 48.5016L22.0107 46.8356L26.2055 44.07L29.7118 49.3881L28.7133 50.0464L25.7651 45.5749L23.5131 47.0597L24.0533 47.8791C24.435 48.4579 24.7412 48.9775 24.972 49.4378C25.204 49.8921 25.3515 50.3087 25.4145 50.6876C25.4811 51.0641 25.4588 51.424 25.3477 51.7671C25.2378 52.1043 25.0317 52.4452 24.7295 52.7898Z" fill="#052636"/>
<path d="M34.3417 47.2079C33.7491 47.4956 33.1537 47.6137 32.5555 47.5621C31.9572 47.5106 31.4139 47.3191 30.9255 46.9878C30.4371 46.6565 30.0585 46.2141 29.7898 45.6606C29.5911 45.2513 29.4788 44.8265 29.4529 44.3862C29.427 43.946 29.4843 43.5184 29.6249 43.1033C29.7635 42.6844 29.9811 42.3042 30.2777 41.9626C30.5744 41.6211 30.9449 41.3425 31.3893 41.1267C31.9857 40.8372 32.583 40.7182 33.1813 40.7697C33.7796 40.8213 34.3229 41.0127 34.8113 41.344C35.2997 41.6753 35.6783 42.1177 35.947 42.6713C36.1457 43.0806 36.258 43.5054 36.2839 43.9456C36.3098 44.3858 36.2524 44.8135 36.1119 45.2285C35.9714 45.6436 35.7538 46.0238 35.4591 46.3692C35.1624 46.7107 34.79 46.9903 34.3417 47.2079ZM33.8704 46.2373C34.2563 46.0499 34.5567 45.8005 34.7716 45.4891C34.9885 45.1718 35.108 44.8176 35.13 44.4263C35.1501 44.0312 35.0579 43.6231 34.8535 43.2021C34.6473 42.7772 34.3836 42.4524 34.0626 42.2278C33.7435 41.9973 33.3933 41.8711 33.0117 41.8492C32.6302 41.8273 32.2464 41.91 31.8605 42.0974C31.4746 42.2848 31.1722 42.5351 30.9535 42.8485C30.7386 43.1599 30.6211 43.5132 30.601 43.9083C30.5828 44.2977 30.6769 44.7048 30.8832 45.1297C31.0876 45.5507 31.3493 45.8765 31.6684 46.1069C31.9894 46.3316 32.3416 46.4569 32.7251 46.4827C33.1066 46.5045 33.4884 46.4228 33.8704 46.2373Z" fill="#052636"/>
<path d="M40.693 44.3616L38.9748 39.2887L36.9062 39.9893L36.5809 39.0289L41.857 37.2419L42.1823 38.2023L40.1076 38.905L41.8258 43.9779L40.693 44.3616Z" fill="#052636"/>
<path d="M48.4728 42.41C47.828 42.5448 47.2218 42.5143 46.6541 42.3187C46.0864 42.1231 45.606 41.8052 45.2129 41.3649C44.8199 40.9247 44.5604 40.4035 44.4344 39.8012C44.3413 39.3558 44.3358 38.9164 44.4179 38.4832C44.4999 38.0499 44.6596 37.649 44.8969 37.2807C45.1334 36.9081 45.437 36.5923 45.8078 36.3332C46.1787 36.0742 46.6059 35.8941 47.0894 35.793C47.7384 35.6573 48.3467 35.6873 48.9144 35.883C49.4821 36.0786 49.9625 36.3965 50.3556 36.8367C50.7487 37.2769 51.0082 37.7982 51.1341 38.4005C51.2272 38.8459 51.2327 39.2852 51.1507 39.7185C51.0686 40.1518 50.9089 40.5526 50.6716 40.921C50.4343 41.2893 50.1307 41.6052 49.7607 41.8684C49.3899 42.1275 48.9606 42.308 48.4728 42.41ZM48.252 41.3538C48.6719 41.266 49.024 41.0972 49.3082 40.8474C49.5958 40.5925 49.7979 40.278 49.9144 39.9039C50.0301 39.5256 50.0401 39.1073 49.9443 38.6492C49.8477 38.1869 49.671 37.8077 49.4143 37.5116C49.161 37.2104 48.8519 37.0028 48.4872 36.8887C48.1225 36.7746 47.7301 36.7614 47.3102 36.8492C46.8903 36.937 46.5361 37.1062 46.2476 37.3569C45.9634 37.6067 45.7634 37.9207 45.6477 38.2991C45.5354 38.6723 45.5276 39.0901 45.6242 39.5524C45.72 40.0105 45.8945 40.3902 46.1479 40.6914C46.4046 40.9874 46.7157 41.1946 47.0813 41.313C47.4461 41.4271 47.8363 41.4407 48.252 41.3538Z" fill="#052636"/>
<path d="M53.3447 41.3417L52.8428 34.9915L54.0027 34.8998L54.3633 39.4616L57.6962 34.6079L58.72 34.527L59.2219 40.8772L58.062 40.9688L57.6974 36.3552L54.3362 41.2633L53.3447 41.3417ZM55.686 33.5931C55.2237 33.6297 54.8098 33.5624 54.4442 33.3914C54.0786 33.2203 53.7873 32.9716 53.5702 32.6454C53.3528 32.3148 53.233 31.9266 53.2108 31.4806L54.2281 31.4002C54.2443 31.8249 54.3795 32.1598 54.6336 32.4049C54.8873 32.6456 55.2151 32.7501 55.6168 32.7184C56.0186 32.6866 56.3237 32.5321 56.5321 32.2548C56.7446 31.9728 56.8233 31.6211 56.7682 31.1994L57.792 31.1185C57.8355 31.5584 57.7737 31.9589 57.6066 32.3198C57.4438 32.6804 57.1954 32.9739 56.8612 33.2003C56.527 33.4267 56.1352 33.5576 55.686 33.5931Z" fill="#052636"/>
<path d="M65.341 41.0227L66.0925 34.6972L71.8888 35.3858L71.1373 41.7113L69.9496 41.5702L70.5815 36.2516L67.1605 35.8452L66.5287 41.1638L65.341 41.0227Z" fill="#052636"/>
<path d="M75.294 42.8335C74.8571 42.723 74.4971 42.547 74.214 42.3055C73.9309 42.0641 73.7378 41.7761 73.6346 41.4416C73.5326 41.1029 73.532 40.734 73.633 40.3349C73.7159 40.0072 73.8753 39.7302 74.1114 39.5038C74.3485 39.2733 74.67 39.1155 75.0759 39.0304C75.4829 38.9412 75.9816 38.9399 76.572 39.0267C77.1635 39.1093 77.8561 39.2956 78.6499 39.5858L78.4662 40.4445C77.8573 40.2011 77.3296 40.0341 76.8832 39.9435C76.4379 39.8487 76.0659 39.8172 75.7673 39.849C75.4698 39.8765 75.2352 39.9557 75.0636 40.0866C74.8971 40.2144 74.7884 40.3791 74.7374 40.5807C74.6556 40.9042 74.7068 41.1876 74.8911 41.4309C75.0807 41.671 75.3792 41.8427 75.7867 41.9457C76.1354 42.0339 76.4622 42.0496 76.7672 41.9926C77.0774 41.9325 77.341 41.8092 77.558 41.6227C77.7803 41.4331 77.9297 41.1871 78.0062 40.8846L78.443 39.158C78.5163 38.8681 78.5149 38.5996 78.4389 38.3524C78.3671 38.1063 78.2221 37.893 78.004 37.7127C77.7859 37.5324 77.4962 37.3965 77.1349 37.3051C76.8114 37.2233 76.4778 37.1903 76.1341 37.2062C75.7904 37.2221 75.4439 37.302 75.0945 37.4461L74.968 36.462C75.4162 36.2983 75.8573 36.2154 76.2913 36.2135C76.7254 36.2115 77.1294 36.2578 77.5033 36.3524C78.0704 36.4958 78.5307 36.7084 78.8841 36.99C79.2386 37.2674 79.4756 37.6112 79.5954 38.0214C79.7151 38.4316 79.7075 38.9035 79.5725 39.437L78.5556 43.4574L77.4906 43.188L77.6819 42.4318C77.3901 42.6843 77.0344 42.8446 76.6149 42.9128C76.1964 42.9768 75.7561 42.9504 75.294 42.8335Z" fill="#052636"/>
<path d="M80.155 46.8277L83.5874 38.3998L84.6048 38.8142L84.2444 39.6991C84.6167 39.4858 85.0275 39.356 85.4768 39.3097C85.9317 39.261 86.4421 39.3519 87.008 39.5824C87.5939 39.821 88.0533 40.1695 88.386 40.6278C88.7203 41.0822 88.9154 41.5968 88.9714 42.1717C89.0314 42.7482 88.9412 43.3315 88.701 43.9214C88.5261 44.3508 88.2887 44.7267 87.989 45.0492C87.6949 45.3692 87.3566 45.6198 86.974 45.8009C86.5931 45.9779 86.1865 46.0744 85.7543 46.0902C85.3277 46.1036 84.8917 46.0196 84.4462 45.8382C83.9486 45.6355 83.5507 45.3659 83.2527 45.0292C82.9603 44.6903 82.7518 44.3176 82.6272 43.9112L81.2567 47.2764L80.155 46.8277ZM84.6666 44.7629C85.0639 44.9247 85.4502 44.9814 85.8255 44.9331C86.2064 44.8823 86.5477 44.7336 86.8494 44.4868C87.1568 44.2377 87.3987 43.8964 87.5752 43.4629C87.7534 43.0255 87.8187 42.6123 87.7713 42.2233C87.7295 41.832 87.5892 41.4871 87.3504 41.1887C87.1157 40.8919 86.7997 40.6626 86.4024 40.5008C86.0051 40.339 85.6168 40.2814 85.2374 40.3281C84.8622 40.3765 84.5208 40.5252 84.2135 40.7744C83.9078 41.0195 83.6659 41.3608 83.4877 41.7983C83.3112 42.2317 83.2458 42.6449 83.2917 43.0379C83.3391 43.4268 83.4794 43.7717 83.7125 44.0725C83.9512 44.3709 84.2693 44.6011 84.6666 44.7629Z" fill="#052636"/>
<path d="M90.695 48.6694L93.3394 44.0117L91.4401 42.9334L91.9408 42.0516L96.785 44.8019L96.2844 45.6837L94.3795 44.6022L91.7351 49.2599L90.695 48.6694Z" fill="#052636"/>
<path d="M95.1093 51.3134L98.911 46.2022L99.8707 46.916L98.3732 48.9292L101.143 50.9891L102.64 48.976L103.6 49.6898L99.798 54.8009L98.8383 54.0871L100.537 51.8027L97.7681 49.7428L96.0689 52.0272L95.1093 51.3134Z" fill="#052636"/>
<path d="M103.705 58.6723C103.22 58.2014 102.89 57.6853 102.716 57.124C102.543 56.5627 102.527 56.0006 102.669 55.4377C102.813 54.8717 103.12 54.3478 103.588 53.8659C103.926 53.5177 104.299 53.2517 104.707 53.0679C105.118 52.8872 105.536 52.7921 105.962 52.7828C106.391 52.7765 106.809 52.853 107.216 53.0125C107.626 53.175 108.002 53.4223 108.344 53.7543C108.714 54.1135 108.98 54.4988 109.142 54.9101C109.308 55.3244 109.37 55.7418 109.331 56.1622C109.297 56.5826 109.168 56.992 108.944 57.3906C108.723 57.7862 108.408 58.1448 107.999 58.4664L104.278 54.8532C103.973 55.1488 103.775 55.4766 103.686 55.8364C103.599 56.1932 103.62 56.5575 103.748 56.9295C103.879 57.3045 104.119 57.661 104.467 57.9991C104.722 58.2467 105.01 58.4477 105.331 58.6023C105.652 58.757 105.983 58.8455 106.323 58.8681L106.066 59.8602C105.799 59.8365 105.521 59.7686 105.231 59.6564C104.948 59.5442 104.675 59.4027 104.412 59.2319C104.149 59.0611 103.913 58.8745 103.705 58.6723ZM104.972 54.2316L107.789 56.9664C108.151 56.5688 108.322 56.1526 108.304 55.7177C108.288 55.2797 108.069 54.8555 107.646 54.4449C107.236 54.0465 106.791 53.8263 106.312 53.7843C105.837 53.7392 105.39 53.8883 104.972 54.2316Z" fill="#052636"/>
<path d="M105.224 63.8918L112.4 58.2952L113.075 59.1614L112.322 59.7491C112.751 59.7496 113.172 59.8418 113.584 60.0256C114.003 60.2101 114.4 60.5432 114.776 61.025C115.165 61.5239 115.39 62.0549 115.45 62.6181C115.513 63.1786 115.426 63.722 115.188 64.2483C114.953 64.7781 114.584 65.2388 114.082 65.6306C113.716 65.9157 113.323 66.1234 112.902 66.2536C112.488 66.3845 112.07 66.4331 111.648 66.3995C111.229 66.3632 110.829 66.2442 110.446 66.0425C110.07 65.8416 109.733 65.5515 109.438 65.1722C109.107 64.7485 108.897 64.3165 108.806 63.8761C108.721 63.4365 108.726 63.0095 108.821 62.5951L105.956 64.8298L105.224 63.8918ZM110.165 64.3498C110.428 64.688 110.735 64.9297 111.084 65.0748C111.44 65.2206 111.81 65.2618 112.195 65.1981C112.585 65.1353 112.965 64.9599 113.334 64.6721C113.707 64.3816 113.969 64.0559 114.122 63.6951C114.281 63.3349 114.331 62.966 114.272 62.5883C114.217 62.214 114.057 61.8578 113.793 61.5195C113.529 61.1812 113.221 60.9378 112.869 60.7893C112.52 60.6442 112.15 60.6031 111.759 60.666C111.372 60.7262 110.992 60.9015 110.62 61.192C110.251 61.4798 109.988 61.8055 109.832 62.169C109.679 62.5299 109.629 62.8988 109.681 63.2758C109.74 63.6535 109.901 64.0115 110.165 64.3498Z" fill="#052636"/>
<path d="M115.458 74.4199L122.432 70.8399L120.503 69.0754L121.196 68.3617L124.208 71.1117L124.249 71.1926L115.98 75.4376L115.458 74.4199Z" fill="#052636"/>
<path d="M118.629 82.4559C118.314 81.5698 118.222 80.7286 118.353 79.9325C118.49 79.139 118.828 78.4396 119.367 77.8342C119.912 77.2315 120.633 76.7706 121.532 76.4516C122.181 76.221 122.815 76.1175 123.435 76.141C124.059 76.1631 124.642 76.3011 125.183 76.5551C125.724 76.8091 126.2 77.1664 126.612 77.6271C127.025 78.0919 127.346 78.6449 127.574 79.286C127.798 79.9189 127.915 80.5005 127.924 81.0307C127.937 81.5595 127.86 82.0469 127.692 82.4929L126.531 82.2154C126.681 81.8492 126.753 81.4606 126.745 81.0496C126.737 80.6386 126.653 80.2105 126.495 79.7654C126.317 79.2632 126.078 78.8354 125.778 78.4822C125.477 78.129 125.129 77.8596 124.732 77.6741C124.34 77.4912 123.911 77.3954 123.443 77.3867C122.976 77.378 122.485 77.465 121.97 77.6478C121.26 77.9001 120.702 78.2523 120.297 78.7042C119.893 79.1603 119.649 79.6886 119.563 80.2892C119.481 80.8884 119.563 81.533 119.808 82.2231C119.966 82.6682 120.183 83.0718 120.459 83.4337C120.74 83.7983 121.096 84.1066 121.525 84.3586L120.737 85.2457C120.257 84.9425 119.84 84.5594 119.487 84.0961C119.14 83.6356 118.853 83.0888 118.629 82.4559Z" fill="#052636"/>
<path d="M123.395 86.9121L124.411 86.6919L125.133 90.0207L124.116 90.2409L123.395 86.9121Z" fill="#052636"/>
<path d="M121.559 93.8103L130.622 92.9943L131.121 98.5359L130.033 98.6338L129.644 94.3093L126.932 94.5535L127.088 96.295C127.175 97.2531 127.019 98.0437 126.623 98.6667C126.231 99.2937 125.606 99.6459 124.747 99.7232C124.182 99.7741 123.691 99.6899 123.276 99.4706C122.865 99.2553 122.534 98.9174 122.284 98.457C122.038 98.0005 121.885 97.4334 121.824 96.7558L121.559 93.8103ZM122.665 94.9376L122.819 96.6467C122.876 97.2811 123.058 97.7564 123.365 98.0725C123.672 98.3885 124.089 98.5229 124.615 98.4755C125.12 98.43 125.506 98.2213 125.773 97.8492C126.044 97.481 126.153 96.997 126.099 96.3971L125.941 94.6427L122.665 94.9376Z" fill="#052636"/>
<path d="M122.123 102.07L128.487 102.356L128.434 103.518L123.863 103.313L128.268 107.219L128.222 108.245L121.858 107.959L121.91 106.797L126.534 107.005L122.078 103.063L122.123 102.07Z" fill="#052636"/>
<path d="M121.277 111.902L126.556 112.807L126.925 110.654L127.924 110.826L126.983 116.316L125.984 116.145L126.354 113.986L121.075 113.08L121.277 111.902Z" fill="#052636"/>
<path d="M117.641 116.418L126.334 119.108L126.01 120.157L125.097 119.875C125.342 120.227 125.506 120.625 125.591 121.069C125.679 121.518 125.633 122.034 125.452 122.618C125.265 123.222 124.958 123.71 124.53 124.081C124.106 124.453 123.611 124.692 123.043 124.798C122.473 124.908 121.885 124.868 121.276 124.68C120.833 124.543 120.438 124.339 120.091 124.068C119.747 123.803 119.468 123.488 119.254 123.122C119.045 122.758 118.914 122.361 118.86 121.932C118.81 121.508 118.856 121.067 118.998 120.607C119.157 120.094 119.391 119.674 119.701 119.348C120.013 119.027 120.366 118.787 120.76 118.628L117.289 117.554L117.641 116.418ZM120.089 120.734C119.962 121.143 119.939 121.533 120.019 121.903C120.103 122.278 120.281 122.605 120.553 122.884C120.827 123.169 121.188 123.38 121.635 123.519C122.087 123.658 122.504 123.688 122.887 123.607C123.274 123.531 123.605 123.362 123.882 123.098C124.157 122.838 124.358 122.504 124.485 122.094C124.612 121.684 124.635 121.292 124.556 120.918C124.475 120.549 124.298 120.222 124.023 119.937C123.752 119.654 123.391 119.442 122.94 119.302C122.493 119.164 122.076 119.135 121.688 119.214C121.305 119.295 120.973 119.465 120.694 119.723C120.417 119.987 120.215 120.324 120.089 120.734Z" fill="#052636"/>
<path d="M117.516 125.434L123.279 128.146L122.784 129.199L118.643 127.25L121.206 132.551L120.768 133.48L115.005 130.768L115.5 129.715L119.688 131.686L117.092 126.333L117.516 125.434Z" fill="#052636"/>
<path d="M111.458 136.541L115.481 136.565L116.939 139.794L116.245 140.877L114.832 137.686L110.679 137.756L111.458 136.541ZM113.763 132.946L119.125 136.385L118.48 137.392L116.368 136.037L115.34 137.641L114.486 137.093L115.514 135.49L113.117 133.953L113.763 132.946Z" fill="#052636"/>
<path d="M107.358 141.558C107.787 141.041 108.282 140.677 108.841 140.466C109.4 140.254 109.968 140.197 110.547 140.295C111.128 140.395 111.667 140.652 112.164 141.064C112.54 141.377 112.831 141.732 113.037 142.129C113.24 142.528 113.356 142.948 113.384 143.389C113.412 143.829 113.353 144.267 113.205 144.702C113.058 145.144 112.821 145.561 112.494 145.954C112.228 146.274 111.941 146.534 111.634 146.735C111.326 146.936 110.99 147.079 110.625 147.165L110.306 146.105C110.561 146.063 110.803 145.968 111.032 145.821C111.265 145.677 111.475 145.493 111.66 145.269C111.965 144.903 112.159 144.526 112.244 144.14C112.329 143.76 112.301 143.387 112.159 143.022C112.018 142.656 111.762 142.32 111.393 142.012C110.836 141.55 110.267 141.347 109.684 141.403C109.102 141.466 108.583 141.773 108.125 142.322C107.915 142.576 107.763 142.85 107.67 143.144C107.581 143.442 107.551 143.722 107.581 143.983L106.487 143.876C106.507 143.459 106.588 143.05 106.729 142.649C106.874 142.251 107.084 141.888 107.358 141.558Z" fill="#052636"/>
</svg>
