<svg width="126" height="80" viewBox="0 0 126 80" fill="none" xmlns="http://www.w3.org/2000/svg">
<g id="logo" clip-path="url(#clip0_265_6444)">
<path id="Vector" d="M6.8018 0.845908C6.13447 0.284171 5.28589 -0.0161789 4.41376 0.000672471C3.53726 -0.0143453 2.68445 0.285563 2.01029 0.845908C1.33806 1.40058 1.00195 2.16722 1.00195 3.1458C1.00195 4.12438 1.33806 4.89578 2.01029 5.46001C2.68823 6.01204 3.53963 6.30638 4.41376 6.29092C5.28354 6.3085 6.1308 6.0137 6.8018 5.46001C7.48504 4.89578 7.8263 4.12438 7.82556 3.1458C7.82483 2.16722 7.48358 1.40058 6.8018 0.845908Z" fill="#052636"/>
<path id="Vector_2" d="M24.936 8.69169C23.9971 8.11865 22.7849 7.83213 21.2994 7.83213C20.4866 7.82761 19.681 7.98417 18.929 8.29276C18.1876 8.59546 17.5346 9.08022 17.0302 9.70222V8.27623H11.0938V23.7043H17.028V15.7533C17.0186 15.2925 17.1147 14.8357 17.3091 14.4177C17.4841 14.0371 17.7683 13.7172 18.1256 13.4986C18.5212 13.2689 18.9732 13.1544 19.4304 13.168C20.2319 13.168 20.8197 13.3954 21.1936 13.8502C21.5676 14.3049 21.7604 14.9378 21.7722 15.7489V23.6999H27.7065V13.8843C27.7119 12.8604 27.4779 11.8495 27.0232 10.9321C26.5641 9.99549 25.8378 9.21591 24.936 8.69169Z" fill="#052636"/>
<path id="Vector_3" d="M40.5986 18.8537C40.3123 18.9221 40.019 18.9572 39.7247 18.9584C39.293 18.9677 38.8716 18.8258 38.5334 18.5572C38.2028 18.2906 38.0276 17.831 38.0276 17.1775V12.9051H41.2322V8.27664H38.032V3.91602H32.0988V8.27664H29.3691V12.9051H32.0988V18.101C32.0988 20.089 32.6131 21.5951 33.6416 22.6192C34.6701 23.6434 36.1027 24.1529 37.9394 24.1477C38.7268 24.1537 39.511 24.0487 40.2691 23.8358C40.9038 23.6673 41.516 23.4235 42.0929 23.1096L41.4405 18.511C41.1751 18.6595 40.8923 18.7746 40.5986 18.8537Z" fill="#052636"/>
<path id="Vector_4" d="M7.38156 8.27734H1.44727V23.7054H7.38156V8.27734Z" fill="#052636"/>
<path id="Vector_5" d="M110.552 10.6505C109.827 9.75011 108.896 9.03788 107.837 8.57433C106.749 8.07916 105.503 7.83194 104.099 7.83268C102.921 7.81907 101.75 8.01997 100.644 8.42556C99.6382 8.80141 98.7164 9.37088 97.9304 10.1017C97.165 10.8296 96.559 11.7085 96.1506 12.6826C95.7256 13.7227 95.5139 14.8376 95.528 15.9611C95.528 17.6031 95.884 19.0357 96.5959 20.2589C97.3123 21.4817 98.3619 22.4754 99.622 23.1241C100.918 23.8059 102.431 24.1471 104.161 24.1479C105.008 24.1419 105.853 24.0525 106.683 23.8812C107.536 23.7232 108.374 23.495 109.19 23.199C109.971 22.9118 110.589 22.5951 111.044 22.2491L109.324 18.3326C108.569 18.7879 107.755 19.1372 106.905 19.3707C106.048 19.5958 105.165 19.707 104.279 19.7013C103.696 19.7099 103.115 19.6247 102.559 19.4489C102.106 19.2997 101.691 19.0512 101.347 18.7216C101.06 18.435 100.882 18.0574 100.843 17.6537H111.973C112.261 16.2498 112.276 14.9542 112.018 13.767C111.785 12.626 111.282 11.5575 110.552 10.6505ZM101.222 13.7956C101.272 13.2615 101.544 12.8262 102.038 12.4898C102.531 12.1533 103.159 11.9854 103.922 11.9861C104.657 11.9861 105.25 12.154 105.702 12.4898C105.915 12.6341 106.088 12.8289 106.207 13.0568C106.327 13.2847 106.388 13.5385 106.385 13.7956H101.222Z" fill="#052636"/>
<path id="Vector_6" d="M125.061 18.5132C124.794 18.6612 124.511 18.7756 124.217 18.8537C123.928 18.9225 123.632 18.9576 123.335 18.9584C122.905 18.9663 122.485 18.8245 122.148 18.5572C121.812 18.2906 121.644 17.8307 121.644 17.1775V12.9051H124.848V8.27664H121.644V3.91602H115.71V8.27664H112.98V12.9051H115.71V18.101C115.71 20.089 116.224 21.5951 117.253 22.6192C118.281 23.6434 119.714 24.1529 121.551 24.1477C122.338 24.1538 123.122 24.0488 123.879 23.8358C124.514 23.6674 125.127 23.4236 125.704 23.1096L125.061 18.5132Z" fill="#052636"/>
<path id="Vector_7" d="M72.7107 7.80325C71.8853 7.79319 71.0684 7.97067 70.3216 8.3223C69.6126 8.64617 69.029 9.193 68.6598 9.87943V8.27711H62.7266V23.7052H68.6598V16.1994C68.6598 15.309 68.9121 14.6562 69.4168 14.2412C69.9216 13.8261 70.5596 13.6185 71.331 13.6185C71.7497 13.6188 72.1671 13.6635 72.5763 13.7519C72.9824 13.8251 73.38 13.9392 73.7631 14.0924L74.431 8.01043C74.1742 7.96084 73.9108 7.91675 73.6452 7.87708C73.3367 7.82349 73.0238 7.79877 72.7107 7.80325Z" fill="#052636"/>
<path id="Vector_8" d="M90.357 8.69172C89.4174 8.11867 88.2052 7.83215 86.7204 7.83215C85.9066 7.827 85.0998 7.98319 84.3467 8.29169C83.6055 8.59467 82.9525 9.0794 82.448 9.70116V8.27626H76.5137V23.7043H82.448V15.7534C82.4383 15.2924 82.5349 14.8354 82.7301 14.4177C82.9042 14.0366 83.1886 13.7164 83.5467 13.4987C83.9422 13.2688 84.3942 13.1543 84.8514 13.1681C85.6522 13.1681 86.24 13.3954 86.6146 13.8502C86.9893 14.305 87.1822 14.9379 87.1932 15.749V23.6999H93.1264V13.8844C93.1322 12.8606 92.8986 11.8496 92.4442 10.9321C91.9846 9.99586 91.2584 9.21641 90.357 8.69172Z" fill="#052636"/>
<path id="Vector_9" d="M58.5458 10.6505C57.822 9.75075 56.8921 9.0386 55.8348 8.57432C54.7468 8.07916 53.5008 7.83194 52.0968 7.83268C50.9181 7.81908 49.7467 8.01998 48.6399 8.42556C47.634 8.80092 46.7117 9.37044 45.9256 10.1017C45.1595 10.8293 44.5531 11.7082 44.1448 12.6826C43.7198 13.7227 43.508 14.8376 43.5221 15.9611C43.5221 17.603 43.8785 19.0357 44.5911 20.2589C45.3074 21.4814 46.3565 22.4751 47.6161 23.1241C48.912 23.8059 50.4251 24.1471 52.1552 24.1479C53.0028 24.1419 53.8477 24.0526 54.6777 23.8812C55.5307 23.7229 56.3692 23.4948 57.1848 23.199C57.9657 22.9118 58.5836 22.5951 59.0384 22.2491L57.3181 18.3326C56.5633 18.7879 55.7493 19.1372 54.8992 19.3707C54.0426 19.5958 53.16 19.707 52.2743 19.7013C51.688 19.7102 51.1042 19.6247 50.5452 19.4478C50.0919 19.2989 49.6777 19.0504 49.333 18.7205C49.0453 18.4343 48.8668 18.0566 48.8283 17.6526H59.9585C60.2465 16.2487 60.2616 14.9531 60.0037 13.7659C59.7723 12.6263 59.2725 11.5583 58.5458 10.6505ZM49.2151 13.7956C49.2651 13.2615 49.5369 12.8262 50.0306 12.4897C50.5364 12.1536 51.1634 11.9861 51.9161 11.9861C52.6464 11.9861 53.2396 12.154 53.6959 12.4897C53.9085 12.6342 54.0821 12.829 54.2011 13.0569C54.3202 13.2848 54.3809 13.5386 54.378 13.7956H49.2151Z" fill="#052636"/>
<path id="Vector_10" d="M18.1282 53.5605C17.6649 53.6701 17.1905 53.7263 16.7144 53.728C16.0202 53.7412 15.3431 53.5125 14.7991 53.0811C14.2561 52.6499 13.9847 51.9075 13.9847 50.8539V43.9576H19.1575V36.486H13.9847V29.4453H4.40606V36.486H-0.00195312V43.9576H4.40606V52.3395C4.40606 55.5485 5.23624 57.9828 6.8966 59.6424C8.55695 61.2881 10.8712 62.1106 13.8392 62.1098C15.1096 62.119 16.375 61.9495 17.5982 61.6062C18.781 61.2712 19.7629 60.8804 20.5438 60.4337L19.4903 53.0095C19.0606 53.2483 18.6031 53.4334 18.1282 53.5605Z" fill="#E13040"/>
<path id="Vector_11" d="M124.282 40.7729C123.723 39.2881 122.749 38.0829 121.361 37.1572C119.972 36.2315 118.04 35.7683 115.563 35.7676C113.599 35.7676 111.795 36.1507 110.15 36.917C108.507 37.6671 107.278 38.7529 106.463 40.1745C106.015 38.7852 105.129 37.7075 103.804 36.9412C102.496 36.1588 101.004 35.7676 99.3273 35.7676C97.4534 35.7852 95.6272 36.3607 94.0818 37.4206C93.308 37.941 92.6358 38.5983 92.0981 39.3601V36.4861H82.5195V61.3914H92.0981V47.3585C92.095 46.843 92.2358 46.3369 92.5048 45.8972C92.8035 45.4403 93.2159 45.0689 93.7016 44.8194C94.2703 44.5226 94.9049 44.3744 95.5463 44.3886C96.6638 44.3886 97.5255 44.7397 98.1316 45.4421C98.7377 46.1444 99.0411 47.0863 99.0419 48.2676V61.3914H108.621V47.3585C108.617 46.8429 108.758 46.3366 109.027 45.8972C109.326 45.4402 109.739 45.0688 110.225 44.8194C110.793 44.5226 111.427 44.3744 112.068 44.3886C113.186 44.3886 114.049 44.7397 114.655 45.4421C115.261 46.1444 115.565 47.0863 115.565 48.2676V61.3914H125.143V45.5424C125.156 43.9128 124.864 42.2952 124.282 40.7729Z" fill="#E13040"/>
<path id="Vector_12" d="M47.0978 40.3178C45.9288 38.8648 44.427 37.7149 42.7195 36.9655C40.9629 36.1669 38.9514 35.7676 36.6849 35.7676C34.6572 35.7676 32.7974 36.0868 31.1055 36.7252C29.4813 37.3314 27.9922 38.251 26.7228 39.4317C25.4868 40.6068 24.5082 42.0256 23.8488 43.5984C23.1788 45.1949 22.8438 46.9581 22.8438 48.888C22.8438 51.538 23.4183 53.8522 24.5673 55.8307C25.7249 57.803 27.4191 59.4058 29.4525 60.4525C31.5441 61.5545 33.9868 62.1055 36.7808 62.1055C38.1486 62.0958 39.5122 61.9511 40.8516 61.6735C42.2288 61.4181 43.5827 61.0496 44.8993 60.5715C46.16 60.1087 47.1576 59.5977 47.8923 59.0386L45.1142 52.7164C43.8961 53.4514 42.5827 54.0155 41.2109 54.3926C39.8274 54.7537 38.4024 54.9312 36.9725 54.9204C36.0306 54.9346 35.0925 54.7969 34.1944 54.5127C33.3804 54.2247 32.7258 53.8335 32.2306 53.339C31.7667 52.8769 31.4787 52.2673 31.4162 51.6155H49.3789C49.8418 49.3483 49.8656 47.2567 49.4505 45.3407C49.0318 43.4129 48.2475 41.7386 47.0978 40.3178ZM32.0367 45.3947C32.1153 44.5329 32.5539 43.8302 33.3525 43.2866C34.1672 42.7444 35.1811 42.4733 36.394 42.4733C37.5753 42.4733 38.5333 42.7444 39.268 43.2866C40.0027 43.8287 40.37 44.5315 40.37 45.3947H32.0367Z" fill="#E13040"/>
<path id="Vector_13" d="M70.8026 36.6767C68.9336 35.9097 66.8101 35.5266 64.4319 35.5273C62.4987 35.5358 60.5747 35.7951 58.7081 36.2987C56.8109 36.779 54.9953 37.5377 53.3204 38.5501L55.6666 44.9197C56.659 44.1926 57.7691 43.6416 58.9484 43.291C60.1822 42.9125 61.4652 42.719 62.7558 42.7168C64.0326 42.7168 65.0303 42.8924 65.7488 43.2436C66.4673 43.5786 66.9783 44.0495 67.2817 44.6563C67.4625 45.0128 67.5892 45.3943 67.6575 45.7881C65.4535 45.6669 63.4699 45.7128 61.7067 45.9259C59.6151 46.1815 57.8588 46.6682 56.438 47.386C55.0171 48.0891 53.9394 48.9993 53.2047 50.1168C52.4862 51.2342 52.127 52.5353 52.127 54.0201C52.127 55.7282 52.5262 57.1887 53.3248 58.4016C54.1154 59.5936 55.2172 60.5464 56.5107 61.1567C57.8792 61.8056 59.3778 62.1335 60.8923 62.1154C62.6489 62.1154 64.1976 61.8439 65.5383 61.301C66.8799 60.7427 67.9337 59.9602 68.7 58.9537V61.3969H76.8405V46.543C76.8405 43.9562 76.2979 41.8569 75.2128 40.245C74.1517 38.624 72.6094 37.3761 70.8026 36.6767ZM67.1847 53.8471C66.816 54.3754 66.2997 54.7833 65.7003 55.0196C65.0464 55.2842 64.346 55.4146 63.6407 55.4031C62.7944 55.4031 62.1078 55.2437 61.5811 54.9248C61.0543 54.606 60.7916 54.1189 60.7931 53.4636C60.7828 53.1886 60.8384 52.9151 60.9551 52.6659C61.0718 52.4168 61.2464 52.1991 61.4642 52.031C61.9102 51.6636 62.5166 51.4083 63.2836 51.2651C64.1532 51.1158 65.0379 51.0754 65.9174 51.1449C66.5272 51.1757 67.1349 51.2386 67.7379 51.3334V51.7676C67.7365 52.6125 67.5521 53.3056 67.1847 53.8471Z" fill="#E13040"/>
<path id="Vector_14" d="M4.64526 77.2906C4.07451 77.3037 3.51156 77.1562 3.02056 76.8649C2.52956 76.5736 2.13027 76.1503 1.8682 75.6431C1.63553 75.18 1.50032 74.674 1.47094 74.1566C1.44156 73.6391 1.51863 73.1211 1.6974 72.6346C1.84556 72.2402 2.06774 71.8778 2.35199 71.5668C2.63484 71.2589 2.97858 71.0131 3.36142 70.845C3.77 70.6669 4.21171 70.5775 4.65738 70.5827C5.19999 70.5674 5.73717 70.6943 6.21561 70.9508C6.6439 71.1933 7.00928 71.533 7.28235 71.9426L7.04432 72.207V67.8145H8.22677V77.1021H7.13689V75.6189L7.31101 75.8899C7.05876 76.3004 6.71283 76.6452 6.30157 76.8961C5.87619 77.1591 5.32409 77.2906 4.64526 77.2906ZM4.85794 76.2205C5.25335 76.2281 5.64373 76.1311 5.9897 75.9395C6.31856 75.7539 6.58797 75.4788 6.76661 75.1461C6.96402 74.7732 7.06194 74.3557 7.05093 73.9339C7.06129 73.5126 6.96461 73.0955 6.76992 72.7217C6.5933 72.3902 6.32567 72.1161 5.99852 71.9315C5.64857 71.7491 5.25975 71.6539 4.86511 71.6539C4.47046 71.6539 4.08165 71.7491 3.73169 71.9315C3.40462 72.1162 3.13701 72.3903 2.96029 72.7217C2.77612 73.0992 2.6804 73.5138 2.6804 73.9339C2.6804 74.354 2.77612 74.7685 2.96029 75.1461C3.13839 75.4796 3.4084 75.7549 3.73831 75.9395C4.08068 76.1291 4.46663 76.226 4.85794 76.2205Z" fill="#7F8687"/>
<path id="Vector_15" d="M12.8101 69.5827C12.5948 69.5861 12.3867 69.505 12.2305 69.3567C12.1504 69.2848 12.0869 69.1963 12.0445 69.0973C12.002 68.9983 11.9816 68.8913 11.9847 68.7837C11.9814 68.6764 12.0016 68.5696 12.0441 68.4709C12.0866 68.3723 12.1502 68.2842 12.2305 68.2129C12.3904 68.0695 12.5976 67.9902 12.8123 67.9902C13.0271 67.9902 13.2343 68.0695 13.3942 68.2129C13.4733 68.2849 13.5358 68.3733 13.5775 68.4718C13.6191 68.5704 13.6389 68.6768 13.6355 68.7837C13.6387 68.8909 13.6187 68.9976 13.5771 69.0964C13.5355 69.1953 13.4731 69.2841 13.3942 69.3567C13.2369 69.506 13.027 69.5872 12.8101 69.5827ZM12.2173 77.0972V70.7772H13.4063V77.0983L12.2173 77.0972Z" fill="#7F8687"/>
<path id="Vector_16" d="M20.1286 80C19.7149 79.9997 19.3022 79.9584 18.8966 79.8766C18.4874 79.7959 18.0906 79.6618 17.7163 79.4777L18.0326 78.465C18.3629 78.6204 18.7091 78.7394 19.0652 78.8198C19.4018 78.8938 19.7454 78.9307 20.0901 78.93C20.8519 78.93 21.4334 78.743 21.8345 78.3691C22.2357 77.9951 22.437 77.5025 22.4384 76.8913V75.5182L22.6059 75.7695C22.3729 76.1873 22.0378 76.5391 21.6318 76.7921C21.2145 77.0566 20.6899 77.1888 20.0581 77.1888C19.4628 77.2022 18.8756 77.0495 18.3621 76.748C17.8829 76.4611 17.4903 76.0499 17.2259 75.5579C16.9531 75.043 16.8144 74.4677 16.8226 73.885C16.819 73.4446 16.8975 73.0074 17.054 72.5957C17.2038 72.2045 17.4284 71.8463 17.7152 71.5411C18.0031 71.2368 18.3514 70.9962 18.7379 70.8347C19.1572 70.6622 19.607 70.5764 20.0603 70.5823C20.6921 70.5823 21.2167 70.7138 21.634 70.9768C22.04 71.2279 22.3753 71.5784 22.6081 71.9951L22.4406 72.253V70.7697H23.5559V76.6004C23.5559 77.6671 23.269 78.5002 22.6952 79.0997C22.1214 79.6992 21.2659 79.9993 20.1286 80ZM20.2003 76.1364C20.5931 76.1434 20.9809 76.0477 21.3254 75.8587C21.6514 75.6772 21.919 75.4065 22.0968 75.0785C22.2795 74.7078 22.3745 74.3 22.3745 73.8867C22.3745 73.4734 22.2795 73.0656 22.0968 72.6949C21.9197 72.3654 21.652 72.0935 21.3254 71.9113C20.9774 71.7296 20.5906 71.6347 20.1981 71.6347C19.8055 71.6347 19.4187 71.7296 19.0707 71.9113C18.7453 72.0951 18.478 72.3666 18.2993 72.6949C18.1145 73.065 18.0183 73.473 18.0183 73.8867C18.0183 74.3004 18.1145 74.7084 18.2993 75.0785C18.4787 75.4054 18.7459 75.6756 19.0707 75.8587C19.4171 76.049 19.8074 76.1447 20.2025 76.1364H20.2003Z" fill="#7F8687"/>
<path id="Vector_17" d="M28.1344 69.5827C27.9191 69.5858 27.7111 69.5048 27.5547 69.3567C27.4746 69.2848 27.4111 69.1963 27.3687 69.0973C27.3262 68.9983 27.3059 68.8913 27.309 68.7837C27.3056 68.6764 27.3259 68.5696 27.3683 68.4709C27.4108 68.3723 27.4744 68.2842 27.5547 68.2129C27.7146 68.0695 27.9218 67.9902 28.1366 67.9902C28.3513 67.9902 28.5585 68.0695 28.7184 68.2129C28.7979 68.2847 28.8607 68.373 28.9026 68.4715C28.9445 68.5701 28.9643 68.6767 28.9609 68.7837C28.964 68.891 28.944 68.9978 28.9021 69.0967C28.8603 69.1955 28.7976 69.2842 28.7184 69.3567C28.5611 69.506 28.3512 69.5872 28.1344 69.5827ZM27.5415 77.0972V70.7772H28.7239V77.0983L27.5415 77.0972Z" fill="#7F8687"/>
<path id="Vector_18" d="M31.9199 71.7827V70.7776H33.5454V71.7838L31.9199 71.7827ZM35.3251 77.2927C34.7374 77.2927 34.2635 77.1208 33.9035 76.777C33.5435 76.4331 33.3643 75.9027 33.3658 75.1857V68.9219H34.5526V70.7776H36.404V71.7838H34.5526V74.8859C34.5526 75.3675 34.6397 75.7069 34.8138 75.902C34.9879 76.097 35.2425 76.1951 35.5786 76.1951C35.723 76.196 35.867 76.1789 36.0073 76.1444C36.1315 76.1134 36.2517 76.0679 36.3654 76.0089L36.6101 76.983C36.4201 77.0809 36.2187 77.1549 36.0106 77.2034C35.7869 77.2606 35.557 77.2898 35.3262 77.2905L35.3251 77.2927Z" fill="#7F8687"/>
<path id="Vector_19" d="M42.7963 77.2907C42.2028 77.3034 41.6175 77.1508 41.1058 76.8499C40.6218 76.5597 40.2254 76.1438 39.9586 75.6466C39.6782 75.1222 39.536 74.5351 39.5454 73.9406C39.5416 73.4889 39.6223 73.0403 39.7834 72.6182C39.9355 72.222 40.1635 71.8593 40.4545 71.5504C40.7453 71.246 41.0957 71.0048 41.4838 70.8418C41.8993 70.6681 42.3459 70.5811 42.7963 70.5861C43.4318 70.5861 43.9607 70.7195 44.3832 70.9862C44.7908 71.2396 45.1296 71.5898 45.3694 72.0055L45.1953 72.2634V70.7779H46.2786V77.099H45.1953V75.6157L45.3694 75.867C45.1294 76.2835 44.7907 76.6347 44.3832 76.8896C43.9615 77.157 43.4325 77.2907 42.7963 77.2907ZM42.9252 76.2207C43.3174 76.2281 43.7046 76.1311 44.047 75.9397C44.3742 75.7537 44.6418 75.4785 44.8184 75.1462C45.0026 74.7687 45.0983 74.3541 45.0983 73.934C45.0983 73.514 45.0026 73.0994 44.8184 72.7218C44.6413 72.3907 44.3738 72.1167 44.047 71.9317C43.701 71.7493 43.3158 71.654 42.9246 71.654C42.5335 71.654 42.1483 71.7493 41.8023 71.9317C41.4763 72.1177 41.209 72.3915 41.0309 72.7218C40.8446 73.0988 40.7477 73.5136 40.7477 73.934C40.7477 74.3545 40.8446 74.7693 41.0309 75.1462C41.2089 75.4775 41.4761 75.7523 41.8023 75.9397C42.1451 76.1311 42.5326 76.2281 42.9252 76.2207Z" fill="#7F8687"/>
<path id="Vector_20" d="M50.2637 77.0982V67.8105H51.4505V77.0982H50.2637Z" fill="#7F8687"/>
<path id="Vector_21" d="M60.377 73.9877V72.9551H63.7568V73.9877H60.377Z" fill="#7F8687"/>
<path id="Vector_22" d="M75.3666 77.2899C74.7735 77.3026 74.1885 77.15 73.6772 76.8491C73.1932 76.5586 72.7964 76.1428 72.5289 75.6457C72.2485 75.1214 72.1063 74.5343 72.1157 73.9398C72.1122 73.4879 72.1933 73.0394 72.3548 72.6174C72.5057 72.2205 72.7334 71.8572 73.0248 71.5484C73.315 71.2438 73.665 71.0026 74.053 70.8399C74.4685 70.6661 74.9151 70.5791 75.3655 70.5842C76.0024 70.5842 76.5314 70.7175 76.9524 70.9842C77.3619 71.237 77.7027 71.5872 77.9442 72.0036L77.7701 72.2614V70.777H78.8533V77.0981H77.7634V75.6148L77.9376 75.8661C77.6959 76.2832 77.3552 76.6344 76.9457 76.8888C76.5299 77.1562 76.0035 77.2899 75.3666 77.2899ZM75.4955 76.2198C75.8881 76.2272 76.2756 76.1302 76.6185 75.9388C76.9454 75.7525 77.2128 75.4774 77.3899 75.1454C77.5747 74.768 77.6709 74.3534 77.6709 73.9332C77.6709 73.513 77.5747 73.0983 77.3899 72.721C77.2127 72.3899 76.9452 72.1159 76.6185 71.9308C76.2724 71.7484 75.8872 71.6531 75.4961 71.6531C75.1049 71.6531 74.7197 71.7484 74.3737 71.9308C74.0472 72.1163 73.7798 72.3902 73.6023 72.721C73.4153 73.0977 73.318 73.5126 73.318 73.9332C73.318 74.3538 73.4153 74.7687 73.6023 75.1454C73.7797 75.4772 74.047 75.7522 74.3737 75.9388C74.7161 76.1302 75.1033 76.2272 75.4955 76.2198Z" fill="#7F8687"/>
<path id="Vector_23" d="M85.5773 80.0009C85.1635 80.0005 84.7508 79.9592 84.3452 79.8775C83.9359 79.7986 83.5387 79.6663 83.1639 79.4841L83.4801 78.4713C83.8105 78.6266 84.1567 78.7456 84.5127 78.8262C84.8493 78.9001 85.193 78.9371 85.5376 78.9364C86.2994 78.9364 86.8809 78.7494 87.2821 78.3754C87.6832 78.0015 87.8845 77.5089 87.886 76.8977V75.5246L88.0535 75.7758C87.8205 76.1936 87.4853 76.5455 87.0793 76.7985C86.6627 77.063 86.1382 77.1952 85.5056 77.1952C84.9104 77.2084 84.3232 77.0558 83.8096 76.7544C83.3306 76.4677 82.9383 76.0563 82.6746 75.5642C82.3994 75.0485 82.2595 74.4715 82.2679 73.887C82.2642 73.4464 82.3431 73.0091 82.5005 72.5976C82.6498 72.2062 82.8744 71.8479 83.1617 71.543C83.4495 71.2387 83.7979 70.9981 84.1843 70.8366C84.6036 70.6642 85.0534 70.5783 85.5067 70.5843C86.1393 70.5843 86.6638 70.7158 87.0804 70.9788C87.4864 71.2298 87.8217 71.5803 88.0546 71.9971L87.8871 72.2549V70.7716H89.0045V76.6023C89.0045 77.6691 88.7176 78.5022 88.1438 79.1017C87.57 79.7012 86.7145 80.0009 85.5773 80.0009ZM85.6489 76.1373C86.0417 76.1444 86.4296 76.0486 86.774 75.8596C87.1003 75.6783 87.3679 75.4076 87.5454 75.0794C87.7281 74.7086 87.8231 74.3008 87.8231 73.8875C87.8231 73.4742 87.7281 73.0665 87.5454 72.6957C87.3687 72.366 87.1009 72.0941 86.774 71.9122C86.426 71.7305 86.0393 71.6356 85.6467 71.6356C85.2541 71.6356 84.8673 71.7305 84.5193 71.9122C84.1939 72.096 83.9266 72.3675 83.7479 72.6957C83.5631 73.0658 83.4669 73.4738 83.4669 73.8875C83.4669 74.3012 83.5631 74.7092 83.7479 75.0794C83.9274 75.4062 84.1945 75.6764 84.5193 75.8596C84.8651 76.0494 85.2546 76.1452 85.6489 76.1373Z" fill="#7F8687"/>
<path id="Vector_24" d="M95.8377 77.2905C95.2207 77.3036 94.6105 77.1595 94.0646 76.8717C93.5626 76.602 93.1467 76.1964 92.8645 75.7014C92.568 75.1662 92.4189 74.5619 92.4325 73.9503C92.4283 73.4911 92.5125 73.0354 92.6804 72.608C92.8367 72.2096 93.0722 71.8471 93.3726 71.5423C93.673 71.2376 94.0321 70.9969 94.4282 70.8349C94.8446 70.6643 95.2908 70.5785 95.7407 70.5826C96.2118 70.5742 96.6792 70.6666 97.1116 70.8536C97.5 71.0238 97.8426 71.2836 98.1111 71.6118C98.381 71.9471 98.5757 72.3364 98.682 72.7535C98.8 73.2183 98.8243 73.7019 98.7536 74.1762H93.6061C93.5851 74.5606 93.6746 74.943 93.864 75.2782C94.0529 75.5983 94.3325 75.8553 94.6674 76.0165C95.0566 76.2014 95.484 76.292 95.9148 76.281C96.2658 76.2817 96.6146 76.2251 96.9474 76.1135C97.2734 76.0071 97.5758 75.8388 97.8378 75.6176L98.3403 76.4992C98.1181 76.6766 97.8717 76.8213 97.6086 76.929C97.3244 77.0475 97.0291 77.1373 96.727 77.1968C96.4343 77.2565 96.1364 77.2879 95.8377 77.2905ZM93.6711 73.2538H97.5667C97.5491 72.7204 97.3834 72.3043 97.0697 72.0052C96.756 71.7062 96.3068 71.5567 95.722 71.5567C95.1541 71.5567 94.6853 71.7062 94.3158 72.0052C94.1287 72.1585 93.9746 72.3482 93.8631 72.5629C93.7515 72.7775 93.6847 73.0126 93.6667 73.2538H93.6711Z" fill="#7F8687"/>
<path id="Vector_25" d="M102.213 77.0979V70.7779H103.399V71.6298C103.64 71.2847 103.967 71.0089 104.347 70.8297C104.695 70.6692 105.074 70.5853 105.457 70.584C106.028 70.584 106.503 70.6942 106.879 70.93C107.236 71.1405 107.529 71.4456 107.724 71.8116C107.907 72.1502 108.003 72.5288 108.004 72.9136V77.1012H106.817V73.2762C106.827 73.0642 106.793 72.8526 106.717 72.6544C106.641 72.4563 106.525 72.2759 106.376 72.1246C106.079 71.8348 105.675 71.6838 105.164 71.6838C104.85 71.6782 104.54 71.7542 104.265 71.9042C104.001 72.0521 103.784 72.2698 103.636 72.5334C103.477 72.8194 103.397 73.1421 103.403 73.469V77.0935L102.213 77.0979Z" fill="#7F8687"/>
<path id="Vector_26" d="M114.792 77.2902C114.172 77.3017 113.56 77.1497 113.018 76.8494C112.513 76.5678 112.094 76.1545 111.806 75.6537C111.552 75.1885 111.404 74.6727 111.373 74.1435C111.343 73.6143 111.43 73.0849 111.628 72.5934C111.798 72.1911 112.049 71.8285 112.367 71.5289C112.69 71.2246 113.07 70.9869 113.485 70.8291C114.302 70.53 115.194 70.4995 116.03 70.7421C116.379 70.8497 116.706 71.0179 116.997 71.2391L116.391 72.1548C116.193 71.984 115.963 71.8553 115.713 71.7768C115.037 71.5698 114.307 71.6204 113.666 71.919C113.327 72.0897 113.047 72.3585 112.864 72.6904C112.665 73.0677 112.567 73.4897 112.579 73.9158C112.579 74.6343 112.787 75.1967 113.202 75.603C113.617 76.0093 114.179 76.2124 114.888 76.2124C115.202 76.2148 115.513 76.1545 115.804 76.035C116.066 75.9316 116.304 75.7743 116.501 75.5732L117.114 76.4769C116.782 76.7266 116.414 76.9253 116.023 77.0665C115.629 77.2131 115.212 77.2888 114.792 77.2902Z" fill="#7F8687"/>
<path id="Vector_27" d="M120.819 79.9934C120.613 79.9932 120.407 79.968 120.206 79.9185C119.99 79.864 119.783 79.7759 119.594 79.6573L119.871 78.6324C120.004 78.7172 120.149 78.7811 120.301 78.822C120.435 78.862 120.574 78.8839 120.713 78.887C120.981 78.9038 121.245 78.821 121.455 78.6545C121.657 78.4592 121.804 78.2145 121.882 77.9448L122.133 77.223L119.632 70.7773H120.935L122.808 75.873L124.633 70.7773H125.891L123.123 78.1046C122.979 78.5223 122.767 78.9132 122.495 79.2617C122.295 79.513 122.034 79.7094 121.737 79.8325C121.444 79.9435 121.133 79.998 120.819 79.9934Z" fill="#7F8687"/>
</g>
<defs>
<clipPath id="clip0_265_6444">
<rect width="125.89" height="80" fill="white"/>
</clipPath>
</defs>
</svg>
