<?xml version="1.0" standalone="no"?>
<!DOCTYPE svg PUBLIC "-//W3C//DTD SVG 20010904//EN"
 "http://www.w3.org/TR/2001/REC-SVG-20010904/DTD/svg10.dtd">
<svg version="1.0" xmlns="http://www.w3.org/2000/svg"
 width="1008.000000pt" height="1008.000000pt" viewBox="0 0 1008.000000 1008.000000"
 preserveAspectRatio="xMidYMid meet">
<metadata>
Created by potrace 1.14, written by Peter Selinger 2001-2017
</metadata>
<g transform="translate(0.000000,1008.000000) scale(0.100000,-0.100000)"
fill="#000000" stroke="none">
<path d="M262 8225 c-117 -36 -175 -111 -178 -231 -3 -106 41 -180 132 -224
53 -26 76 -31 143 -31 105 0 206 60 245 144 19 40 29 164 14 173 -4 3 -8 14
-8 25 0 11 -24 44 -52 72 -80 80 -188 106 -296 72z"/>
<path d="M2569 7900 c0 -14 -1 -91 -1 -172 0 -82 -3 -148 -6 -149 -4 0 -53 -1
-109 -1 l-103 -1 0 -184 c0 -139 3 -183 13 -184 6 0 55 -1 108 -1 l96 0 1
-242 c0 -255 4 -301 29 -375 44 -135 133 -219 275 -262 50 -15 86 -18 178 -15
133 4 150 7 245 45 54 22 70 33 68 47 -11 108 -14 131 -18 144 -2 8 -6 38 -10
65 -17 147 -14 142 -59 125 -46 -17 -119 -19 -158 -3 -68 27 -72 42 -74 269
l-2 202 112 0 c61 0 118 1 127 1 15 1 17 22 17 185 l0 184 -91 0 c-51 0 -108
1 -128 1 l-36 1 0 158 c-1 86 -2 164 -2 173 -1 13 -30 15 -236 15 l-235 0 -1
-26z"/>
<path d="M9262 7915 c-5 -5 -8 -83 -7 -172 l1 -163 -40 -1 c-23 -1 -70 -1
-106 -1 -67 1 -85 -9 -70 -39 5 -9 7 -19 4 -22 -10 -9 -10 -298 -1 -304 5 -3
53 -5 108 -5 54 0 100 -3 100 -7 1 -3 3 -114 4 -246 3 -266 11 -332 55 -421
75 -153 213 -226 419 -220 124 3 155 8 236 37 96 34 94 31 80 124 -7 44 -15
100 -19 125 -3 25 -8 68 -12 95 -3 28 -8 51 -9 53 -2 2 -23 -2 -46 -9 -71 -20
-124 -18 -165 5 -57 32 -65 68 -62 281 l3 180 90 2 c50 1 107 2 127 2 l37 1
-2 183 -2 182 -80 1 c-44 1 -102 2 -128 3 l-48 1 1 118 c1 64 1 142 1 173 l-1
56 -230 -1 c-149 0 -234 -4 -238 -11z"/>
<path d="M1675 7613 c-111 -10 -235 -61 -280 -115 -14 -16 -26 -28 -26 -26 -1
2 -3 23 -4 48 -2 25 -3 48 -4 51 -1 3 -107 6 -236 6 l-235 0 -1 -26 c-1 -32
-1 -1182 0 -1196 1 -15 471 -15 472 0 0 5 1 165 2 355 2 371 1 360 57 421 51
56 149 70 229 35 41 -19 73 -67 87 -131 3 -16 7 -178 7 -360 l2 -330 235 0
235 0 -1 440 c0 425 -1 442 -22 504 -40 117 -101 198 -191 250 -39 23 -101 49
-133 57 -5 1 -9 2 -10 4 -2 1 -23 4 -48 6 -25 2 -58 5 -75 7 -16 1 -43 1 -60
0z"/>
<path d="M4147 7614 c-1 -1 -27 -3 -57 -5 -51 -2 -144 -21 -180 -36 -8 -3 -17
-7 -20 -7 -3 -1 -36 -17 -75 -36 -96 -47 -218 -169 -263 -263 -46 -95 -63
-168 -67 -273 -10 -342 164 -579 485 -663 92 -24 279 -26 389 -5 145 28 320
91 349 126 10 12 -1 43 -53 164 -36 81 -67 150 -69 152 -2 2 -30 -10 -62 -26
-33 -16 -79 -35 -104 -42 -25 -7 -52 -15 -60 -17 -46 -16 -216 -20 -285 -7
-56 10 -132 60 -153 101 -30 55 -50 53 430 51 l443 -1 7 34 c15 62 11 231 -6
295 -42 162 -127 277 -267 366 -37 24 -139 64 -180 71 -87 16 -195 27 -202 21z
m130 -364 c38 -21 73 -69 73 -99 0 -14 19 -13 -209 -14 -145 -2 -195 1 -198
10 -10 26 40 85 91 109 69 32 181 30 243 -6z"/>
<path d="M5727 7608 c-92 -19 -217 -98 -217 -135 0 -8 -4 -12 -10 -8 -5 3 -9
22 -8 43 1 76 24 70 -237 70 l-235 0 -1 -27 c-1 -35 -1 -1104 0 -1162 l1 -45
235 0 c205 0 235 2 236 16 0 8 1 159 2 335 3 352 3 355 67 409 39 32 95 48
167 45 52 -2 142 -21 163 -34 6 -3 10 0 11 7 0 7 2 22 4 33 2 11 6 45 9 75 3
30 8 78 12 105 3 28 7 66 9 85 12 121 17 156 20 168 3 6 1 12 -3 13 -4 0 -16
2 -27 5 -43 8 -162 10 -198 2z"/>
<path d="M6917 7614 c-1 -1 -26 -4 -55 -8 -93 -11 -190 -58 -244 -120 -21 -22
-20 -24 -22 39 l-1 50 -238 1 -239 2 5 -24 c2 -14 0 -27 -5 -30 -4 -3 -6 -10
-2 -15 10 -16 11 -69 1 -69 -4 0 -5 -5 -2 -11 11 -16 12 -69 2 -69 -4 0 -5 -5
-2 -11 11 -16 12 -69 2 -69 -4 0 -5 -5 -1 -11 6 -10 9 -176 4 -204 -2 -9 -1
-32 4 -90 1 -11 -1 -32 -5 -47 -4 -14 -5 -29 -2 -32 9 -9 11 -66 3 -71 -5 -3
-6 -13 -4 -23 9 -35 10 -88 3 -114 -4 -14 -5 -29 -2 -32 10 -9 11 -66 2 -71
-4 -3 -6 -15 -3 -28 10 -42 10 -77 1 -77 -4 0 -5 -5 -1 -12 4 -6 8 -37 8 -67
l1 -56 235 -1 235 0 0 325 c-1 179 3 344 8 366 19 91 85 145 182 150 77 3 132
-27 164 -90 l25 -48 1 -349 c0 -191 2 -349 5 -349 3 -1 110 -3 238 -3 l233 -2
-1 436 c-1 426 -2 438 -24 506 -69 208 -217 314 -459 327 -26 2 -49 2 -50 1z"/>
<path d="M8288 7615 c-2 -1 -32 -6 -67 -9 -161 -17 -344 -113 -442 -233 -46
-56 -98 -162 -115 -234 -21 -86 -25 -219 -10 -322 10 -64 62 -185 104 -240 48
-63 108 -127 121 -127 5 0 11 -4 13 -8 3 -8 78 -56 88 -57 3 -1 21 -8 40 -17
187 -90 528 -71 775 42 95 43 94 39 30 183 -30 69 -55 130 -55 136 0 6 -5 11
-11 11 -5 0 -8 4 -4 9 13 22 -18 20 -60 -3 -25 -14 -45 -23 -45 -20 0 4 -6 2
-12 -4 -35 -28 -209 -59 -313 -56 -113 3 -209 47 -241 110 -28 54 -47 52 426
51 242 0 442 2 445 4 16 17 24 190 12 278 -11 78 -40 152 -94 239 -17 27 -110
122 -149 153 -22 17 -132 72 -149 75 -5 1 -29 7 -52 13 -59 16 -225 34 -235
26z m140 -361 c47 -24 82 -66 82 -101 0 -17 -12 -18 -205 -18 -177 0 -205 2
-205 15 0 15 23 53 45 76 54 55 199 70 283 28z"/>
<path d="M123 7571 c-5 -3 -9 -280 -8 -616 l0 -610 238 0 237 -1 0 617 0 616
-229 0 c-126 0 -233 -3 -238 -6z"/>
<path d="M368 5882 c-14 -3 -16 -33 -16 -265 0 -144 -1 -270 -1 -279 -1 -15
-18 -17 -163 -17 -90 0 -169 0 -176 0 -10 -1 -12 -64 -10 -298 l3 -298 167 -1
c92 0 170 -3 174 -7 3 -3 7 -187 9 -409 1 -222 5 -419 9 -438 31 -170 92 -304
181 -395 27 -28 123 -99 159 -117 33 -17 174 -69 184 -68 1 0 3 0 5 -1 16 -5
85 -10 192 -12 198 -6 333 23 521 110 l36 16 -7 56 c-7 57 -8 66 -19 136 -3
22 -8 60 -11 85 -3 25 -7 59 -10 75 -10 60 -13 84 -21 141 -4 33 -9 62 -10 67
-1 4 -2 14 -3 22 -1 14 -5 13 -33 -2 -18 -9 -62 -22 -98 -29 -175 -34 -281 22
-306 159 -4 25 -8 485 -5 592 1 19 8 20 206 20 135 -1 205 3 206 10 3 56 0
577 -4 581 -3 3 -96 6 -206 6 -199 0 -201 0 -202 22 0 11 0 138 -1 281 l0 260
-367 0 c-202 0 -374 -1 -383 -3z"/>
<path d="M4980 5389 c-36 -4 -78 -10 -95 -13 -16 -3 -47 -8 -67 -11 -20 -3
-77 -17 -125 -31 -48 -14 -95 -26 -103 -28 -52 -12 -280 -117 -280 -128 0 -4
-6 -8 -14 -8 -35 0 -31 -16 39 -205 15 -38 44 -119 66 -178 21 -60 43 -115 47
-123 6 -10 24 -3 82 31 41 24 82 44 90 45 9 0 20 4 25 9 12 10 69 30 105 37
14 3 41 9 60 14 83 21 229 28 330 16 70 -9 170 -57 208 -100 29 -33 70 -122
60 -131 -3 -3 -27 -5 -54 -5 -259 3 -408 -5 -519 -30 -22 -5 -55 -11 -73 -15
-56 -10 -182 -54 -246 -86 -164 -83 -279 -207 -318 -343 -6 -22 -13 -48 -16
-56 -9 -34 -10 -209 0 -260 12 -67 66 -210 79 -210 5 0 9 -6 9 -14 0 -21 119
-138 180 -177 68 -44 171 -85 259 -104 76 -16 283 -14 376 4 132 25 276 96
352 172 26 27 51 49 54 49 3 0 5 -39 5 -86 -1 -47 2 -88 6 -90 6 -4 441 -7
614 -4 l32 0 -3 673 c-1 369 -6 688 -10 707 -39 196 -116 339 -250 462 -64 60
-227 148 -300 162 -11 3 -20 5 -20 6 0 1 -8 3 -17 5 -9 2 -32 8 -50 13 -18 6
-51 14 -73 17 -22 4 -53 9 -70 11 -52 9 -308 10 -375 3z m415 -1252 c16 -3 20
-13 21 -53 3 -108 -60 -203 -164 -246 -47 -19 -75 -23 -162 -23 -116 0 -170
19 -204 70 -36 54 -23 143 28 189 27 24 92 53 136 61 19 3 36 8 39 11 5 5 276
-2 306 -9z"/>
<path d="M2808 5375 c-1 -2 -32 -6 -68 -10 -36 -4 -103 -18 -150 -32 -47 -14
-89 -26 -95 -27 -5 -1 -25 -10 -42 -19 -18 -10 -33 -15 -33 -12 0 4 -12 -2
-27 -13 -16 -11 -44 -27 -63 -36 -115 -54 -315 -252 -362 -357 -7 -16 -16 -29
-20 -29 -5 0 -8 -9 -8 -20 0 -11 -4 -20 -10 -20 -5 0 -10 -8 -10 -18 0 -10 -4
-22 -9 -28 -20 -22 -65 -190 -76 -284 -11 -96 -6 -279 10 -349 3 -16 8 -43 10
-59 9 -74 101 -290 146 -346 5 -6 29 -36 53 -66 153 -192 388 -318 681 -366
64 -10 318 -12 338 -2 11 6 17 5 17 -2 0 -6 4 -9 9 -5 6 3 29 8 53 11 72 9
231 43 304 65 38 11 74 22 79 23 10 3 25 8 63 23 9 3 19 7 22 8 6 2 78 33 105
46 26 13 54 30 83 50 l23 17 -92 208 c-50 115 -100 228 -110 252 l-18 42 -82
-40 c-79 -40 -231 -95 -290 -105 -16 -3 -44 -7 -61 -10 -18 -3 -46 -8 -63 -11
-71 -13 -261 -6 -325 11 -154 40 -255 123 -272 220 -3 20 3 20 715 23 394 1
717 5 718 10 0 4 3 16 5 27 20 87 26 299 12 405 -15 110 -71 269 -129 363
-116 189 -316 345 -524 408 -22 6 -47 14 -55 17 -21 7 -29 9 -74 16 -21 3 -43
9 -48 12 -10 6 -324 15 -330 9z m172 -539 c89 -12 143 -37 196 -93 29 -30 64
-117 52 -129 -5 -5 -144 -6 -495 -5 -165 1 -172 2 -168 21 13 68 74 137 151
172 54 23 73 28 139 35 28 3 52 7 53 8 2 2 9 2 15 0 7 -2 32 -6 57 -9z"/>
<path d="M7858 5375 c-1 -2 -16 -6 -33 -9 -65 -11 -88 -17 -135 -35 -92 -35
-185 -95 -254 -163 -37 -37 -69 -68 -70 -68 0 0 0 49 1 110 1 97 -1 110 -15
111 -20 0 -697 0 -729 -1 -21 0 -23 -4 -22 -57 1 -32 0 -62 -1 -68 -1 -5 -2
-12 -1 -15 6 -16 2 -390 -3 -399 -4 -6 -4 -11 1 -11 9 0 9 -511 0 -534 -3 -8
-3 -16 0 -19 8 -8 7 -383 -1 -396 -4 -6 -4 -11 1 -11 9 0 8 -281 -1 -305 -3
-8 -2 -15 2 -15 4 0 6 -36 5 -80 l-2 -80 42 0 c245 -2 711 1 717 5 4 3 8 265
8 583 0 628 -2 611 57 680 90 107 300 121 404 26 36 -32 69 -85 76 -123 2 -9
4 -16 5 -16 9 0 13 -156 14 -612 l1 -543 217 0 c120 -1 274 -1 343 -1 69 0
143 0 165 1 l40 0 0 583 0 583 26 52 c40 80 115 128 217 139 52 6 167 -14 167
-28 0 -5 6 -9 13 -9 36 0 111 -112 123 -185 4 -22 8 -286 8 -587 l1 -548 80 0
c322 -1 679 0 682 3 5 5 3 1345 -2 1392 -2 22 -8 53 -12 70 -3 16 -7 35 -8 40
0 6 -7 30 -15 55 -7 25 -15 51 -16 59 -2 8 -20 49 -40 90 -83 169 -263 292
-476 327 -97 16 -316 11 -423 -11 -74 -14 -236 -77 -266 -102 -8 -7 -21 -13
-27 -13 -7 0 -12 -4 -12 -9 0 -5 -8 -12 -18 -15 -23 -8 -119 -102 -150 -149
-26 -38 -26 -39 -36 -15 -5 12 -10 26 -10 29 -1 4 -16 29 -33 56 -39 60 -96
112 -168 153 -52 30 -165 74 -165 64 0 -3 -10 0 -21 7 -19 10 -242 23 -251 14z"/>
<path d="M569 2816 c-1 -1 -3 -66 -5 -146 -1 -80 -3 -147 -3 -149 -1 -2 -16 8
-33 21 -46 34 -90 50 -141 51 -168 2 -283 -126 -265 -296 3 -37 12 -75 18 -83
7 -7 9 -14 6 -14 -8 0 29 -55 50 -77 7 -7 17 -13 23 -13 6 0 11 -3 11 -8 0 -9
50 -31 87 -39 87 -17 168 3 226 56 l27 25 0 -37 c0 -37 0 -37 44 -37 l43 0 1
373 0 372 -44 1 c-24 0 -45 0 -45 0z m-81 -339 c50 -32 74 -84 73 -153 -1
-119 -88 -196 -201 -178 -109 18 -169 126 -134 243 32 107 166 152 262 88z"/>
<path d="M4025 2810 c-2 -4 -4 -171 -4 -372 l1 -366 46 2 47 1 0 368 c1 249
-2 367 -10 368 -48 5 -76 5 -80 -1z"/>
<path d="M974 2776 c-21 -33 -15 -65 18 -89 24 -18 30 -18 57 -7 51 21 54 92
4 111 -40 15 -61 11 -79 -15z"/>
<path d="M2203 2778 c-54 -59 38 -141 95 -85 22 22 20 74 -4 92 -28 21 -68 18
-91 -7z"/>
<path d="M2670 2653 c0 -58 -3 -73 -15 -74 -8 0 -34 -2 -57 -2 -40 -2 -43 -4
-45 -34 -3 -39 6 -45 66 -47 l46 -1 5 -170 c6 -191 15 -221 79 -251 59 -28
190 -11 177 23 -4 8 -9 25 -12 38 -5 19 -10 22 -32 16 -59 -15 -94 0 -109 47
-5 15 -9 88 -8 162 l0 135 72 0 73 0 0 42 0 42 -61 -2 c-33 -2 -65 1 -72 5 -7
4 -13 32 -13 65 -1 32 -2 63 -3 69 0 7 -19 12 -46 11 l-45 -1 0 -73z"/>
<path d="M1575 2593 c-50 -10 -112 -36 -135 -56 -29 -26 -71 -82 -74 -100 -1
-7 -5 -18 -10 -25 -4 -7 -8 -43 -8 -80 -1 -159 118 -275 271 -266 52 3 131 31
131 45 0 4 11 14 24 23 l24 15 -3 -49 c-4 -66 -13 -89 -45 -123 -49 -52 -164
-66 -263 -31 -22 8 -41 13 -42 12 -14 -21 -26 -71 -19 -78 22 -21 119 -39 197
-37 140 5 210 55 246 174 15 49 17 99 17 308 l-1 250 -45 2 c-44 2 -46 1 -45
-25 2 -43 -5 -45 -38 -12 -38 37 -127 63 -182 53z m121 -103 c132 -64 120
-285 -18 -329 -86 -28 -175 4 -216 77 -23 40 -23 121 -1 171 10 24 27 50 37
58 55 45 133 54 198 23z"/>
<path d="M3375 2587 c-132 -22 -218 -139 -209 -282 12 -175 166 -283 337 -236
23 7 58 26 76 42 19 16 35 29 37 29 2 0 3 -10 2 -22 -2 -45 1 -48 42 -48 25 0
40 5 41 13 1 16 1 480 0 489 -1 11 -81 7 -82 -4 -1 -4 -3 -17 -4 -28 -1 -11
-3 -22 -4 -25 0 -3 -13 6 -28 20 -49 47 -128 66 -208 52z m124 -91 c81 -19
128 -141 94 -241 -33 -97 -144 -139 -244 -91 -83 39 -114 184 -58 268 21 32
79 79 79 63 0 -3 8 -2 18 4 17 10 66 9 111 -3z"/>
<path d="M5989 2589 c-84 -13 -159 -68 -194 -144 -24 -51 -29 -161 -9 -219 17
-50 75 -117 119 -139 100 -48 219 -35 288 30 25 24 27 25 28 7 1 -10 1 -26 0
-35 -2 -14 7 -17 41 -15 l43 1 3 251 2 252 -42 -2 c-41 -1 -43 -3 -48 -35 -4
-31 -6 -32 -19 -18 -41 50 -131 78 -212 66z m111 -92 c91 -33 125 -106 105
-227 -18 -107 -162 -160 -263 -98 -92 56 -100 220 -14 296 14 12 28 22 31 23
24 3 44 8 49 13 9 10 55 6 92 -7z"/>
<path d="M6818 2594 c-2 -1 -15 -4 -28 -7 -75 -11 -144 -63 -180 -133 -34 -68
-34 -190 -1 -249 53 -94 126 -138 231 -138 71 0 115 16 163 62 l29 26 -3 -55
c-3 -64 -12 -93 -36 -119 -19 -20 -58 -43 -83 -49 -39 -9 -149 -2 -184 13 -42
18 -48 15 -64 -32 -10 -31 -10 -32 31 -48 52 -21 197 -29 251 -13 43 12 92 41
114 68 27 31 55 107 59 155 5 74 5 217 -1 243 -3 12 -2 22 2 22 6 0 6 107 1
206 -2 30 -4 32 -45 32 -44 1 -44 1 -44 -34 l0 -36 -34 30 c-19 16 -49 35 -68
41 -33 11 -105 21 -110 15z m112 -102 c100 -40 128 -222 45 -295 -88 -78 -226
-55 -278 46 -24 47 -19 145 10 190 42 66 140 92 223 59z"/>
<path d="M7619 2589 c-130 -20 -219 -122 -222 -254 -1 -97 19 -151 79 -207 83
-79 249 -93 357 -30 32 19 34 35 9 67 -16 20 -20 21 -37 9 -54 -39 -164 -46
-228 -14 -53 27 -80 63 -81 109 l-1 36 202 0 c186 0 203 1 204 18 1 9 2 23 3
30 3 22 -22 108 -40 135 -51 79 -142 116 -245 101z m137 -104 c20 -16 35 -38
42 -64 l10 -41 -159 0 -158 0 10 33 c15 44 70 92 110 95 18 1 35 4 36 6 11 10
82 -9 109 -29z"/>
<path d="M8402 2588 c-46 -8 -112 -43 -112 -59 0 -6 -4 -7 -10 -4 -5 3 -10 17
-10 31 0 22 -3 24 -45 22 -33 -1 -45 -5 -46 -17 -3 -51 -4 -468 -1 -477 4 -15
79 -16 88 -2 4 6 7 77 7 157 0 80 4 160 10 176 34 102 189 122 242 32 17 -28
19 -54 20 -202 l0 -170 47 -3 46 -3 4 36 c2 20 1 38 -3 41 -5 3 -5 14 0 26 4
12 5 39 1 59 -4 21 -5 41 -2 44 13 12 -2 185 -18 215 -40 76 -125 115 -218 98z"/>
<path d="M9129 2585 c-96 -20 -156 -65 -194 -147 -45 -97 -23 -229 51 -303 84
-84 240 -101 348 -37 32 19 32 20 8 62 -19 34 -25 36 -45 15 -53 -52 -198 -33
-254 34 -36 43 -46 132 -21 196 10 29 61 84 79 86 19 3 24 5 34 11 19 11 110
2 144 -15 19 -9 35 -16 36 -15 1 2 11 17 23 34 17 25 19 34 9 42 -48 38 -138
54 -218 37z"/>
<path d="M983 2563 c-7 -13 -9 -432 -4 -485 1 -11 81 -6 88 5 4 7 8 399 4 480
-1 13 -10 17 -41 17 -28 0 -42 -5 -47 -17z"/>
<path d="M2208 2573 c-4 -7 -3 -456 1 -491 2 -19 80 -12 85 7 3 9 4 122 3 251
l-2 234 -42 4 c-22 2 -43 0 -45 -5z"/>
<path d="M9594 2517 c35 -92 77 -199 86 -222 16 -37 78 -200 84 -222 7 -21
-37 -132 -52 -134 -4 0 -20 -3 -36 -5 -16 -3 -41 -1 -57 5 -30 10 -36 3 -45
-50 -5 -30 6 -37 73 -46 81 -10 154 35 189 117 9 19 44 112 79 205 35 94 69
184 76 200 52 130 77 200 72 207 -5 9 -78 8 -91 -1 -4 -3 -27 -62 -51 -131
-23 -69 -46 -135 -52 -147 -22 -54 -28 -70 -36 -96 -8 -27 -10 -25 -32 40 -13
37 -29 82 -36 98 -7 17 -31 77 -52 135 l-39 105 -52 2 -51 1 23 -61z"/>
<path d="M4840 2402 c-6 -2 -10 -21 -10 -43 l0 -38 134 1 c146 1 149 2 136 58
l-5 25 -123 0 c-67 0 -127 -1 -132 -3z"/>
</g>
</svg>
